<svg width="25" height="24" viewBox="0 0 25 24" fill="none" xmlns="http://www.w3.org/2000/svg">
<path d="M6.66895 14.6763V16.9701C6.66895 19.1328 6.66895 20.2141 7.3408 20.886C8.01265 21.5578 9.09398 21.5578 11.2566 21.5578H14.3151C16.4778 21.5578 17.5591 21.5578 18.2309 20.886C18.9028 20.2141 18.9028 19.1328 18.9028 16.9701V14.6763" stroke="white" stroke-width="1.5" stroke-linecap="round"/>
<path d="M6.66896 14.6129C4.4992 14.2489 2.84589 12.3619 2.84589 10.0887C2.84589 7.55495 4.89986 5.50098 7.43358 5.50098C7.7484 5.50098 8.05581 5.53269 8.35279 5.59309" stroke="white" stroke-width="1.5" stroke-linecap="round"/>
<path d="M19.0574 14.6129C21.2272 14.2489 22.8805 12.3619 22.8805 10.0887C22.8805 7.55495 20.8265 5.50098 18.2928 5.50098C17.978 5.50098 17.6706 5.53269 17.3736 5.59309" stroke="white" stroke-width="1.5" stroke-linecap="round"/>
<path d="M8.34274 8.17699C8.24839 7.81042 8.19821 7.4261 8.19821 7.03007C8.19821 4.49636 10.2522 2.44238 12.7859 2.44238C15.3196 2.44238 17.3736 4.49636 17.3736 7.03007C17.3736 7.4261 17.3234 7.81042 17.2291 8.17699" stroke="white" stroke-width="1.5" stroke-linecap="round"/>
<path d="M6.66895 18.1172H18.9028" stroke="white" stroke-width="1.5"/>
<path d="M12.7559 10.7329V13.1355" stroke="white" stroke-width="1.5" stroke-linecap="round"/>
<path d="M8.50703 10.9343C8.31497 11.3633 8.66708 12.9989 9.08322 13.267" stroke="white" stroke-width="1.5" stroke-linecap="round"/>
<path d="M17.3197 10.9343C17.5118 11.3633 17.1597 12.9989 16.7436 13.267" stroke="white" stroke-width="1.5" stroke-linecap="round"/>
</svg>
