<svg width="27" height="28" viewBox="0 0 27 28" fill="none" xmlns="http://www.w3.org/2000/svg">
<path d="M25.5639 0.350918C25.241 0.028044 24.6833 0.0573219 24.4192 0.438957L17.3749 10.0955L14.2049 14.3222L11.8568 11.1815C12.8842 10.2129 13.0602 8.59851 12.2089 7.42451L7.07246 0.35085C6.80834 -0.0307791 6.25062 -0.118817 5.869 0.174774C5.48738 0.438888 5.39934 0.99661 5.69293 1.37823L9.91956 7.18978C10.0369 7.36586 10.0076 7.60069 9.83152 7.74751L9.09774 8.27573C8.92167 8.39304 8.68684 8.36376 8.54002 8.18769L4.31338 2.34678C4.04927 1.96515 3.49155 1.87712 3.10993 2.17071C2.7285 2.43482 2.64046 2.99254 2.93385 3.37395L7.16049 9.1855C7.2778 9.36158 7.24853 9.59641 7.07245 9.74323L6.33867 10.2714C6.16259 10.3888 5.92776 10.3595 5.78094 10.1834L1.5543 4.37186C1.29019 3.99023 0.732469 3.90219 0.35085 4.19578C-0.0307792 4.4599 -0.118817 5.01762 0.174774 5.39924L5.28195 12.4435C6.16254 13.647 7.80616 13.9699 9.06816 13.2066L11.9445 17.3157L6.39714 24.7122C5.72211 25.5928 5.92747 26.8548 6.80805 27.5005C7.68864 28.1463 8.95064 27.9407 9.59636 27.0309L14.2046 20.4855L18.8129 27.0309C19.4586 27.9407 20.6914 28.1463 21.6012 27.5005C22.4818 26.8548 22.6871 25.5928 22.0121 24.7122L16.4354 17.3157L18.3138 14.6447L18.9596 15.1143C20.075 15.9069 21.6306 15.6133 22.3644 14.4686L23.92 12.0325C25.2702 9.91917 26.2386 7.62977 26.8258 5.22297C27.2953 3.462 26.7963 1.61302 25.5636 0.350814L25.5639 0.350918Z" fill="white"/>
</svg>
