<svg width="32" height="32" viewBox="0 0 32 32" fill="none" xmlns="http://www.w3.org/2000/svg">
<path fill-rule="evenodd" clip-rule="evenodd" d="M24.5732 7.4267C23.9205 6.77419 23.2173 6.23818 22.593 5.91752C21.5289 5.371 20.9651 5.59687 20.6794 5.88257C20.3937 6.16826 20.1679 6.73223 20.7144 7.79638C21.0348 8.42044 21.5708 9.12383 22.2236 9.77634C22.8761 10.4291 23.5792 10.9651 24.2035 11.2855C24.6775 11.5289 25.0519 11.6192 25.347 11.6192C25.7147 11.6192 25.959 11.4791 26.1174 11.3205C26.4031 11.0348 26.629 10.4708 26.0824 9.40688C25.7618 8.7826 25.2258 8.07921 24.5733 7.4267" fill="white"/>
<path fill-rule="evenodd" clip-rule="evenodd" d="M30.5439 15.7472C30.5081 15.783 30.4664 15.8133 30.4207 15.8393C30.4164 15.8413 30.412 15.8428 30.4079 15.8451C29.7445 16.187 27.993 15.6884 25.705 14.1748C24.3659 13.2862 22.9536 12.1245 21.5926 10.7848C21.5296 10.7227 21.4664 10.6602 21.4032 10.5968C21.3401 10.5336 21.2775 10.4706 21.2155 10.4076C19.8735 9.04412 18.7098 7.62931 17.8205 6.28804C17.8017 6.25958 17.7831 6.23135 17.7645 6.20289C17.7512 6.18294 17.738 6.16255 17.725 6.14261C17.0165 5.05001 16.5435 4.08561 16.2865 3.31098C16.2829 3.30022 16.2791 3.28969 16.2757 3.27916C16.2715 3.26594 16.2674 3.25294 16.2632 3.23972C16.2549 3.21373 16.2464 3.18751 16.2385 3.16152C16.2338 3.14651 16.2298 3.13172 16.2253 3.1167C16.2188 3.09519 16.2123 3.07323 16.206 3.05172C16.0167 2.38602 16.0044 1.88386 16.1549 1.59211C16.1569 1.5883 16.1583 1.58427 16.1603 1.58046C16.1863 1.5343 16.2168 1.49217 16.2529 1.45609C16.3967 1.31224 16.6241 1.25107 16.9029 1.25107C17.6056 1.25107 18.6341 1.63961 19.4699 2.06895C21.3075 3.01275 23.4112 4.62409 25.3938 6.60651C27.3763 8.58871 28.9875 10.6925 29.9314 12.5304C30.5308 13.6977 31.0511 15.2406 30.5443 15.7475M22.7503 17.1146C22.6528 17.3608 22.4166 17.5107 22.167 17.5107C22.0899 17.5107 22.0117 17.4964 21.9358 17.4664C16.9031 15.4681 14.5594 10.2265 14.4619 10.004C14.3227 9.68645 14.4673 9.31652 14.7848 9.17736C15.1016 9.03865 15.4718 9.18274 15.6109 9.4998C15.6329 9.54955 17.8541 14.4954 22.3988 16.2997C22.721 16.4276 22.8783 16.7922 22.7503 17.1142M19.1828 18.4129C19.0851 18.6592 18.8492 18.8091 18.5996 18.8091C18.5225 18.8091 18.4441 18.7948 18.3681 18.7647C14.8613 17.3723 13.2309 13.7259 13.1633 13.5713C13.0241 13.254 13.1687 12.8839 13.4862 12.745C13.803 12.6062 14.1728 12.7503 14.3121 13.0672C14.3269 13.1003 15.8123 16.3996 18.8312 17.5984C19.1532 17.7264 19.3108 18.0909 19.1828 18.4129M16.1174 19.9405C16.0197 20.1865 15.7836 20.3364 15.5339 20.3364C15.4568 20.3364 15.3786 20.3223 15.3027 20.292C12.8302 19.3104 11.6832 16.7456 11.6357 16.6369C11.4965 16.3194 11.6413 15.9494 11.9586 15.8105C12.2756 15.6718 12.6451 15.8157 12.7845 16.1323C12.799 16.1648 13.7856 18.3396 15.7658 19.126C16.0878 19.2537 16.2451 19.6185 16.1174 19.9405M31.0474 11.9566C30.0458 10.006 28.3529 7.79084 26.2811 5.71894C24.209 3.64714 21.9936 1.95423 20.0434 0.952379C17.2796 -0.466907 15.9741 -0.0398359 15.3658 0.568538C15.2549 0.679455 15.1504 0.813451 15.0617 0.975233C11.232 6.28204 9.62698 11.0196 8.95536 14.0621C8.47853 16.2227 8.38778 17.8493 8.38554 18.7511C3.19977 18.0352 0.403993 19.8294 0.281809 19.9098C0.0826026 20.0411 -0.0247302 20.2744 0.0048521 20.5112C0.0342061 20.7478 0.19554 20.9475 0.420961 21.0261C4.30378 22.3777 6.87779 25.0478 6.90418 25.0756C6.90642 25.0781 6.90888 25.0804 6.91135 25.0828C6.91224 25.0837 6.91291 25.0846 6.91381 25.0855L6.91403 25.0857C6.91493 25.0866 6.91605 25.0875 6.91695 25.0884C6.91986 25.0911 6.92255 25.094 6.92546 25.0967C6.95213 25.1223 9.62108 27.6944 10.9734 31.5788C11.052 31.8042 11.2517 31.9655 11.4883 31.9949C11.5145 31.9983 11.5403 31.9998 11.5661 31.9998C11.7751 31.9998 11.9728 31.8952 12.0897 31.7179C12.1702 31.596 13.9644 28.8003 13.2484 23.6142C14.1503 23.6117 15.7769 23.5212 17.9374 23.0444C23.4407 21.8296 28.0867 19.0585 31.0266 16.9369C31.1873 16.8484 31.321 16.7442 31.4315 16.6339C32.0398 16.0256 32.467 14.7201 31.0474 11.9564" fill="white"/>
</svg>
