<svg width="18" height="29" viewBox="0 0 18 29" fill="none" xmlns="http://www.w3.org/2000/svg">
<path d="M18 9.69365H15.9237C15.5365 6.37857 12.7122 3.79649 9.29534 3.79649C8.69535 3.79649 8.11398 3.87753 7.56053 4.0267L7.11903 1.54721C7.0506 1.16333 6.74175 0.867386 6.35487 0.815767L0.236808 0L0 1.77714L5.46887 2.50648L5.86746 4.74671C4.13473 5.78853 2.91227 7.59386 2.66763 9.69364H0.295319V14.2504H2.3891L3.13255 26.1254C3.14966 27.4012 4.19173 28.4331 5.47097 28.4331H12.8433C14.1219 28.4331 15.1649 27.4006 15.1811 26.1254L15.9246 14.2504H17.9997L18 9.69365ZM9.29526 5.58923C11.7219 5.58923 13.7346 7.3709 14.1086 9.69334H8.56862L7.8759 5.80114C8.32581 5.66428 8.80154 5.58925 9.29529 5.58925L9.29526 5.58923ZM6.21314 6.68952L6.74799 9.69365H4.48163C4.67582 8.48917 5.307 7.42968 6.21313 6.68952H6.21314ZM16.2072 12.4576H2.08859V11.4863H16.2072V12.4576Z" fill="white"/>
</svg>
