<svg width="29" height="29" viewBox="0 0 29 29" fill="none" xmlns="http://www.w3.org/2000/svg">
<g clip-path="url(#clip0_2_2912)">
<path d="M25.1231 4.23517e-07H3.87875C2.85004 4.23517e-07 1.86347 0.408654 1.13606 1.13606C0.408654 1.86347 0 2.85004 0 3.87875V25.1249C0 26.1536 0.408654 27.1402 1.13606 27.8676C1.86347 28.595 2.85004 29.0036 3.87875 29.0036H25.1249C26.1536 29.0036 27.1402 28.595 27.8676 27.8676C28.595 27.1402 29.0036 26.1536 29.0036 25.1249V3.87875C29.0036 3.36923 28.9032 2.86471 28.7082 2.394C28.5132 1.92329 28.2273 1.49562 27.8669 1.13542C27.5066 0.77522 27.0788 0.489552 26.608 0.294733C26.1371 0.0999142 25.6326 -0.000237669 25.1231 4.23517e-07ZM20.01 13.5825H8.99L4.48304 7.5864C15.5048 -4.08356 24.517 7.5864 24.517 7.5864L20.01 13.5825Z" fill="#F1F1F1"/>
<path d="M13.8514 11.0765C13.826 11.1584 13.8171 11.2445 13.8252 11.3299C13.8333 11.4153 13.8583 11.4982 13.8987 11.5738C13.9392 11.6495 13.9942 11.7163 14.0607 11.7705C14.1272 11.8247 14.2038 11.8651 14.2861 11.8894C14.3683 11.9137 14.4546 11.9215 14.5398 11.9122C14.6251 11.9029 14.7077 11.8768 14.7827 11.8353C14.8578 11.7938 14.9239 11.7379 14.9772 11.6706C15.0304 11.6034 15.0698 11.5263 15.093 11.4437L17.0142 4.94189L13.8967 10.9623C13.8784 10.999 13.8632 11.0372 13.8514 11.0765V11.0765Z" fill="#F1F1F1"/>
</g>
<defs>
<clipPath id="clip0_2_2912">
<rect width="29" height="29" fill="white"/>
</clipPath>
</defs>
</svg>
