<svg width="24" height="24" viewBox="0 0 24 24" fill="none" xmlns="http://www.w3.org/2000/svg">
<mask id="mask0_408_513" style="mask-type:alpha" maskUnits="userSpaceOnUse" x="0" y="0" width="24" height="24">
<path fill-rule="evenodd" clip-rule="evenodd" d="M4.99982 14.2206C2.23878 14.2206 0 11.947 0 9.1419C0 6.3368 2.23878 4.06325 4.99982 4.06325C5.22156 4.06325 5.43965 4.07755 5.65356 4.10617C6.76852 1.68052 9.19096 0 12 0C14.809 0 17.2315 1.68052 18.3464 4.10617C18.5603 4.07755 18.7784 4.06325 19.0002 4.06325C21.7612 4.06325 24 6.3368 24 9.1419C24 11.947 21.7612 14.2206 19.0002 14.2206V22.3471C16.5 24.7171 7.83339 24.3784 4.99982 22.3471V14.2206Z" fill="#E23E3E"/>
</mask>
<g mask="url(#mask0_408_513)">
<path d="M4.99961 14.2205H6.56483V12.6306H4.99961V14.2205ZM5.65335 4.1061L5.45092 5.68275L6.58727 5.83326L7.07196 4.77863L5.65335 4.1061ZM18.3462 4.1061L16.9276 4.77863L17.4123 5.83326L18.5487 5.68275L18.3462 4.1061ZM19 14.2205V12.6306H17.4347V14.2205H19ZM19 22.347L20.068 23.5092L20.5652 23.0375V22.347H19ZM4.99961 22.347H3.43439V23.1705L4.097 23.6459L4.99961 22.347ZM4.99961 12.6306C3.10257 12.6306 1.56501 11.0688 1.56501 9.14183H-1.56543C-1.56543 12.8251 1.37404 15.8104 4.99961 15.8104V12.6306ZM1.56501 9.14183C1.56501 7.21488 3.10257 5.65307 4.99961 5.65307V2.47328C1.37404 2.47328 -1.56543 5.45857 -1.56543 9.14183H1.56501ZM4.99961 5.65307C5.15352 5.65307 5.30379 5.66314 5.45092 5.68275L5.85631 2.52945C5.5751 2.49235 5.28918 2.47328 4.99961 2.47328V5.65307ZM7.07196 4.77863C7.93909 2.89195 9.821 1.58983 11.9998 1.58983V-1.58997C8.56048 -1.58997 5.59752 0.469482 4.23526 3.43358L7.07196 4.77863ZM11.9998 1.58983C14.1786 1.58983 16.0605 2.89195 16.9276 4.77863L19.7643 3.43358C18.4021 0.469482 15.4391 -1.58997 11.9998 -1.58997V1.58983ZM18.5487 5.68275C18.6958 5.66314 18.8461 5.65307 19 5.65307V2.47328C18.7104 2.47328 18.4245 2.49235 18.1433 2.52945L18.5487 5.68275ZM19 5.65307C20.897 5.65307 22.4346 7.21488 22.4346 9.14183H25.565C25.565 5.45857 22.6255 2.47328 19 2.47328V5.65307ZM22.4346 9.14183C22.4346 11.0688 20.897 12.6306 19 12.6306V15.8104C22.6255 15.8104 25.565 12.8251 25.565 9.14183H22.4346ZM17.4347 14.2205V22.347H20.5652V14.2205H17.4347ZM17.932 21.1842C17.6111 21.489 16.9266 21.8324 15.82 22.0793C14.7561 22.3173 13.4747 22.4275 12.148 22.4079C10.8238 22.3878 9.50326 22.2394 8.36848 21.9845C7.20187 21.7232 6.36344 21.3782 5.90222 21.048L4.097 23.6459C5.05283 24.3312 6.36031 24.7906 7.69335 25.0895C9.05875 25.3959 10.5927 25.5644 12.1015 25.5872C13.6083 25.6094 15.1391 25.4876 16.492 25.1849C17.802 24.8929 19.1387 24.39 20.068 23.5092L17.932 21.1842ZM6.56483 22.347V14.2205H3.43439V22.347H6.56483Z" fill="#E23E3E"/>
<path d="M18.4424 19.4137C18.7126 19.3125 18.8504 19.0077 18.7507 18.7332C18.6505 18.4587 18.3505 18.3182 18.0803 18.4195L18.4424 19.4137ZM5.66707 18.9166C5.46046 19.4036 5.46046 19.4036 5.46099 19.4036H5.4615C5.46203 19.4041 5.46255 19.4041 5.46307 19.4047C5.46412 19.4052 5.46568 19.4057 5.46777 19.4068C5.47142 19.4084 5.47664 19.4105 5.48342 19.4131C5.49646 19.419 5.51525 19.4269 5.53977 19.4365C5.58829 19.4566 5.6582 19.4842 5.74899 19.5181C5.93055 19.5864 6.19455 19.6797 6.53055 19.7825C7.2036 19.9882 8.16881 20.2335 9.35055 20.3968C11.7125 20.7238 14.9509 20.7248 18.4424 19.4137L18.0803 18.4195C14.7892 19.6559 11.7307 19.6564 9.49142 19.3469C8.37176 19.1916 7.46029 18.9595 6.83159 18.7676C6.51699 18.6712 6.27386 18.5853 6.11107 18.5244C6.02968 18.4937 5.96811 18.4693 5.92846 18.4528C5.90864 18.4449 5.89403 18.4385 5.88464 18.4348C5.87994 18.4327 5.87681 18.4316 5.87524 18.4306C5.8742 18.4306 5.87368 18.4301 5.87316 18.4301H5.87368C5.87368 18.4301 5.87368 18.4301 5.66707 18.9166Z" fill="#E23E3E"/>
<path d="M6.26116 4.5047C6.26116 4.5047 5.47855 7.15453 6.7829 9.00941Z" fill="#E23E3E"/>
<path d="M6.26116 4.5047C6.26116 4.5047 5.47855 7.15453 6.7829 9.00941" stroke="#E23E3E" stroke-width="1.5" stroke-linecap="round"/>
<path d="M17.4179 4.23975C17.4179 4.23975 18.4999 7.04538 16.6963 9.00944Z" fill="#E23E3E"/>
<path d="M17.4179 4.23975C17.4179 4.23975 18.4999 7.04538 16.6963 9.00944" stroke="#E23E3E" stroke-width="1.5" stroke-linecap="round"/>
</g>
</svg>
