<svg width="26" height="31" viewBox="0 0 26 31" fill="none" xmlns="http://www.w3.org/2000/svg">
<path d="M13.6607 12.3378C13.6607 12.3378 11.81 7.6354 15.4453 0.0846465L13.1129 0C13.1129 0 11.0605 5.06384 13.1144 12.8457L13.6607 12.3378Z" fill="white"/>
<path d="M13.9939 0.0319824C13.2795 2.83943 12.174 8.4261 13.3613 12.6161L13.6607 12.3378C13.6607 12.3378 11.81 7.63536 15.4453 0.0846045L13.9939 0.0319824Z" fill="white"/>
<path d="M24.263 12.0215C20.5715 6.96552 12.9999 11.4195 12.9999 11.4195C12.9999 11.4195 5.42826 6.96552 1.73711 12.0215C-1.95405 17.0774 0.934942 23.1181 3.94427 26.8391C6.95359 30.5602 10.9805 31.7969 12.9999 30.0949C15.0191 31.7966 19.0459 30.5605 22.0554 26.8388C25.0648 23.1172 27.9541 17.0775 24.263 12.0215Z" fill="white"/>
<path d="M13.0003 30.0949C15.0195 31.7966 19.0463 30.5605 22.0558 26.8388C25.0652 23.1172 27.9545 17.0774 24.2634 12.0215C20.5722 6.96552 13.0003 11.4195 13.0003 11.4195C13.0003 11.4195 23.8822 9.82883 23.4018 16.8285C22.9755 23.0426 13.7662 29.3379 4.78125 27.7843C7.66417 30.759 11.163 31.6435 13.0003 30.0949Z" fill="white"/>
<path d="M20.9362 2.95923C14.2472 1.93204 13.0098 11.3893 13.0098 11.3893C14.2771 8.5957 20.9362 2.95923 20.9362 2.95923Z" fill="white"/>
<path d="M20.9362 2.95923C20.9362 2.95923 14.2773 8.5957 13.0098 11.3893C20.6017 9.00384 20.9362 2.95923 20.9362 2.95923Z" fill="white"/>
<path opacity="0.47" d="M3.86375 12.3615C3.86375 12.3615 1.97148 14.1337 2.27028 15.9407C2.56908 17.7476 6.52871 10.5033 3.86375 12.3615Z" fill="white"/>
</svg>
