<svg width="29" height="29" viewBox="0 0 29 29" fill="none" xmlns="http://www.w3.org/2000/svg">
<path d="M25.1231 4.23517e-07H3.87875C2.85004 4.23517e-07 1.86347 0.408654 1.13606 1.13606C0.408654 1.86347 0 2.85004 0 3.87875V25.1249C0 26.1536 0.408654 27.1402 1.13606 27.8676C1.86347 28.595 2.85004 29.0036 3.87875 29.0036H25.1249C26.1536 29.0036 27.1402 28.595 27.8676 27.8676C28.595 27.1402 29.0036 26.1536 29.0036 25.1249V3.87875C29.0036 3.36923 28.9032 2.86471 28.7082 2.394C28.5132 1.92329 28.2273 1.49562 27.8669 1.13542C27.5066 0.77522 27.0788 0.489552 26.608 0.294733C26.1371 0.0999142 25.6326 -0.000237669 25.1231 4.23517e-07ZM20.01 13.5825H8.99L4.48304 7.5864C15.5048 -4.08356 24.517 7.5864 24.517 7.5864L20.01 13.5825Z" fill="#F1F1F1"/>
</svg>
