<svg width="21" height="32" viewBox="0 0 21 32" fill="none" xmlns="http://www.w3.org/2000/svg">
<path d="M17.2995 3.39601C16.5245 3.18232 15.8335 2.78395 15.2728 2.24645L13.0831 2.24622V7.91713H18.7554V5.54677C18.0467 5.03167 17.5198 4.28304 17.2995 3.39601V3.39601Z" fill="white"/>
<path d="M0 10.163H10.1618V0H0V10.163ZM1.56889 1.90798C1.56889 1.72142 1.72031 1.56976 1.90711 1.56976H8.25415C8.44071 1.56976 8.59237 1.72118 8.59237 1.90798V8.25502C8.59237 8.44158 8.44095 8.59323 8.25415 8.59323H1.90711C1.72055 8.59323 1.56889 8.44182 1.56889 8.25502V1.90798Z" fill="white"/>
<path d="M2.24512 2.24634H7.91603V7.91725H2.24512V2.24634Z" fill="white"/>
<path d="M13.082 13.0852H18.7551V18.7554H13.082V13.0852Z" fill="white"/>
<path d="M19.4313 5.93783V8.25608C19.4313 8.44264 19.2799 8.5943 19.0931 8.5943L12.7448 8.59407C12.5583 8.59407 12.4066 8.44265 12.4066 8.25585V1.90881C12.4066 1.72225 12.558 1.57059 12.7448 1.57059H14.681C14.3489 1.10406 14.1076 0.571739 13.9606 0.000976562L10.8379 0.00121242V10.1636H20.9997V6.28401C20.9935 6.28401 20.9869 6.28472 20.9815 6.28472C20.4322 6.28472 19.9103 6.15358 19.4315 5.93801L19.4313 5.93783Z" fill="white"/>
<path d="M10.8379 10.8394V21.0011H20.9997V10.8394H10.8379ZM19.0935 19.4313H12.7441C12.5575 19.4313 12.4058 19.2799 12.4058 19.0931V12.7466C12.4058 12.5601 12.5573 12.4084 12.7441 12.4084H19.0935C19.2801 12.4084 19.4317 12.5598 19.4317 12.7466V19.0931C19.4317 19.2803 19.2803 19.4313 19.0935 19.4313Z" fill="white"/>
<path d="M2.24512 13.0852H7.91603V18.7554H2.24512V13.0852Z" fill="white"/>
<path d="M10.1618 21.6791H0V31.8409L10.1618 31.8411V21.6791ZM8.59241 29.9329C8.59241 30.1194 8.441 30.2711 8.25419 30.2711H1.90715C1.7206 30.2711 1.56894 30.1197 1.56894 29.9329V23.5858C1.56894 23.3993 1.72035 23.2476 1.90715 23.2476H8.25419C8.44075 23.2476 8.59241 23.399 8.59241 23.5858V29.9329Z" fill="white"/>
<path d="M20.9997 21.6792H10.8379V31.841H20.9997V21.6792ZM19.4315 29.933C19.4315 30.1196 19.28 30.2712 19.0932 30.2712H12.7438C12.5572 30.2712 12.4056 30.1198 12.4056 29.933V23.586C12.4056 23.3994 12.557 23.2477 12.7438 23.2477H19.0932C19.2798 23.2477 19.4315 23.3992 19.4315 23.586V29.933Z" fill="white"/>
<path d="M13.082 23.9233H18.7551V29.5943H13.082V23.9233Z" fill="white"/>
<path d="M10.1618 21.0022V10.8398H0V21.0016H10.1618V21.0022ZM1.56865 12.7472C1.56865 12.5607 1.72006 12.409 1.90686 12.409H8.25391C8.44046 12.409 8.59212 12.5604 8.59212 12.7472V19.0936C8.59212 19.2802 8.44071 19.4319 8.25391 19.4319H1.90686C1.72031 19.4319 1.56865 19.2804 1.56865 19.0936V12.7472Z" fill="white"/>
<path d="M2.24512 23.9233H7.91603V29.5943H2.24512V23.9233Z" fill="white"/>
</svg>
