<svg width="22" height="30" viewBox="0 0 22 30" fill="none" xmlns="http://www.w3.org/2000/svg">
<path d="M22 10.9974C21.9992 12.3208 21.4742 13.5899 20.5399 14.5274C20.0547 15.0162 19.4722 15.3976 18.83 15.6473C18.7796 15.6766 18.726 15.7002 18.67 15.7172C18.2586 15.8546 17.8323 15.9419 17.4 15.9773C17.2676 15.9966 17.1337 16.0033 17 15.9973H5.00002C4.53939 15.9968 4.0813 15.9294 3.63992 15.7972C3.59478 15.798 3.55015 15.7877 3.51003 15.7674C3.48245 15.7654 3.45537 15.7586 3.43004 15.7473C3.32673 15.716 3.22643 15.6759 3.12989 15.6275C3.0301 15.5959 2.93306 15.5557 2.84003 15.5073C2.58326 15.382 2.33602 15.2383 2.10009 15.0773C1.87567 14.9108 1.66203 14.7305 1.46017 14.5374C1.2671 14.3353 1.08656 14.1217 0.920058 13.8973C0.759077 13.6613 0.615396 13.4141 0.490023 13.1573C0.441628 13.0646 0.401509 12.9675 0.370164 12.8675C0.321519 12.7709 0.2814 12.6706 0.250055 12.5673C0.238771 12.5423 0.232001 12.5149 0.229995 12.4873C0.210687 12.4462 0.197397 12.4023 0.190126 12.3575C0.0660041 11.9146 0.00231249 11.4573 5.93546e-05 10.9974C-0.0047049 9.55201 0.277388 8.12027 0.830061 6.78476C1.38297 5.44925 2.19517 4.23666 3.21992 3.21736C4.46037 1.97692 5.98441 1.05718 7.65995 0.537606C7.7101 0.517546 7.76 0.497486 7.8099 0.477677C7.87985 0.457618 7.94981 0.437557 8.01977 0.417748C8.28983 0.337759 8.54986 0.277829 8.80965 0.217649L8.8099 0.217399C10.2555 -0.0724662 11.7444 -0.0724662 13.19 0.217399C13.5275 0.286604 13.8612 0.373366 14.19 0.477427C15.9226 0.997484 17.4998 1.93882 18.7799 3.21739C19.2476 3.6863 19.6693 4.19857 20.0397 4.74747L20.0598 4.76753C20.1799 4.94757 20.2897 5.12761 20.4098 5.30765V5.3074C21.1911 6.58873 21.6951 8.01951 21.8897 9.50747C21.9296 9.75747 21.9597 9.96735 21.9798 10.1674V10.2675C21.9898 10.5375 21.9998 10.7775 21.9998 10.9974L22 10.9974ZM7.02018 16.727L6.20045 26.5619H6.2002C6.12623 27.4463 6.42612 28.3214 7.02693 28.9746C7.62798 29.6278 8.47478 29.9994 9.36242 29.9994H12.6377C13.5253 29.9994 14.3721 29.6278 14.9732 28.9746C15.574 28.3214 15.8739 27.4463 15.7999 26.5619L14.98 16.727H7.02018Z" fill="white"/>
</svg>
