<svg width="22" height="22" viewBox="0 0 22 22" fill="none" xmlns="http://www.w3.org/2000/svg">
<g clip-path="url(#clip0_2_2696)">
<path d="M8.24998 20.1667C8.75624 20.1667 9.16665 19.7563 9.16665 19.25C9.16665 18.7438 8.75624 18.3334 8.24998 18.3334C7.74372 18.3334 7.33331 18.7438 7.33331 19.25C7.33331 19.7563 7.74372 20.1667 8.24998 20.1667Z" stroke="#E23E3E" stroke-width="2" stroke-linecap="round" stroke-linejoin="round"/>
<path d="M18.3332 20.1666C18.8394 20.1666 19.2498 19.7562 19.2498 19.2499C19.2498 18.7437 18.8394 18.3333 18.3332 18.3333C17.8269 18.3333 17.4165 18.7437 17.4165 19.2499C17.4165 19.7562 17.8269 20.1666 18.3332 20.1666Z" stroke="#E23E3E" stroke-width="2" stroke-linecap="round" stroke-linejoin="round"/>
<path d="M0.916687 0.916626H4.58335L7.04002 13.1908C7.12384 13.6128 7.35344 13.9919 7.6886 14.2617C8.02377 14.5315 8.44316 14.6749 8.87335 14.6666H17.7834C18.2135 14.6749 18.6329 14.5315 18.9681 14.2617C19.3033 13.9919 19.5329 13.6128 19.6167 13.1908L21.0834 5.49996H5.50002" stroke="#E23E3E" stroke-width="2" stroke-linecap="round" stroke-linejoin="round"/>
</g>
<defs>
<clipPath id="clip0_2_2696">
<rect width="22" height="22" fill="white"/>
</clipPath>
</defs>
</svg>
