<svg width="284" height="292" viewBox="0 0 284 292" fill="none" xmlns="http://www.w3.org/2000/svg">
<path d="M184.049 45.7135C150.872 42.1467 128.679 -16.0538 42.8783 22.3031C-14.6145 48.0064 24.1104 111.699 9.41869 134.486C-1.6213 151.584 -22.6256 252.643 83.2168 261.248C134.312 265.409 157.1 257.087 209.384 286.3C255.639 312.145 282.956 221.759 283.805 184.676C284.654 147.593 287.06 56.7535 184.049 45.7135Z" fill="#24997F"/>
<g style="mix-blend-mode:multiply">
<path d="M2.65295 157.048L36.5089 156.906L70.3366 156.85L138.02 156.736L205.732 156.85L239.56 156.906L273.416 157.048L239.56 157.218L205.732 157.274L138.02 157.359L70.3366 157.246L36.5089 157.218L2.65295 157.048Z" fill="#ECECEC"/>
<path d="M2.65295 135.845L36.5089 135.704L70.3366 135.647L138.02 135.534L205.732 135.647L239.56 135.704L273.416 135.845L239.56 136.015L205.732 136.043L138.02 136.157L70.3366 136.043L36.5089 136.015L2.65295 135.845Z" fill="#ECECEC"/>
<path d="M2.65295 114.642L36.5089 114.501L70.3366 114.444L138.02 114.331L205.732 114.444L239.56 114.501L273.416 114.642L239.56 114.812L205.732 114.841L138.02 114.954L70.3366 114.841L36.5089 114.812L2.65295 114.642Z" fill="#ECECEC"/>
<path d="M2.65295 93.4401L36.5089 93.2986L70.3366 93.2419L138.02 93.1287L205.732 93.2419L239.56 93.2986L273.416 93.4401L239.56 93.6099L205.732 93.6382L138.02 93.7515L70.3366 93.6382L36.5089 93.5816L2.65295 93.4401Z" fill="#ECECEC"/>
<path d="M2.65295 72.2378L36.5089 72.0962L70.3366 72.0396L138.02 71.9264L205.732 72.0396L239.56 72.0962L273.416 72.2378L239.56 72.3793L205.732 72.4359L138.02 72.5491L70.3366 72.4359L36.5089 72.3793L2.65295 72.2378Z" fill="#ECECEC"/>
<path d="M2.65308 51.0355L36.509 50.894L70.3367 50.8374L138.02 50.7241L205.732 50.8374L239.56 50.894L273.416 51.0355L239.56 51.177L205.732 51.2337L138.02 51.3469L70.3367 51.2337L36.509 51.177L2.65308 51.0355Z" fill="#ECECEC"/>
<path d="M2.65295 178.278L36.5089 178.137L70.3366 178.08L138.02 177.967L205.732 178.08L239.56 178.137L273.416 178.278L239.56 178.42L205.732 178.477L138.02 178.59L70.3366 178.477L36.5089 178.42L2.65295 178.278Z" fill="#ECECEC"/>
<path d="M2.65295 199.509L36.5089 199.339L70.3366 199.311L138.02 199.198L205.732 199.311L239.56 199.339L273.416 199.509L239.56 199.651L205.732 199.707L138.02 199.821L70.3366 199.707L36.5089 199.651L2.65295 199.509Z" fill="#ECECEC"/>
<path d="M2.65295 220.712L36.5089 220.57L70.3366 220.514L138.02 220.429L205.732 220.514L239.56 220.57L273.416 220.712L239.56 220.882L205.732 220.938L138.02 221.023L70.3366 220.938L36.5089 220.882L2.65295 220.712Z" fill="#ECECEC"/>
<path d="M2.65295 241.942L36.5089 241.801L70.3366 241.744L138.02 241.631L205.732 241.744L239.56 241.801L273.416 241.942L239.56 242.084L205.732 242.14L138.02 242.254L70.3366 242.14L36.5089 242.084L2.65295 241.942Z" fill="#ECECEC"/>
</g>
<path d="M161.148 27.8235L161.318 52.4228L161.375 70.8794L161.488 188.186L161.375 225.071L161.318 243.528L161.148 261.984L160.978 243.528L160.922 225.071L160.808 188.186L160.922 70.8794L160.978 52.4228L161.148 27.8235Z" fill="#ECECEC" style="mix-blend-mode:multiply"/>
<path d="M138.02 27.8236L138.19 52.423L138.247 70.8796L138.36 188.186L138.247 225.071L138.19 243.528L138.02 261.985L137.879 243.528L137.822 225.071L137.709 188.186L137.822 70.8796L137.879 52.423L138.02 27.8236Z" fill="#ECECEC" style="mix-blend-mode:multiply"/>
<path d="M114.921 27.8235L115.062 52.4228L115.147 70.8794L115.232 188.186L115.147 225.071L115.062 243.528L114.921 261.984L114.751 243.528L114.694 225.071L114.581 188.186L114.694 70.8794L114.751 52.4228L114.921 27.8235Z" fill="#ECECEC" style="mix-blend-mode:multiply"/>
<path d="M91.7934 27.8236L91.9633 52.423L92.0199 70.8796L92.1331 188.186L92.0199 225.071L91.9633 243.528L91.7934 261.985L91.6236 243.528L91.567 225.071L91.4537 188.186L91.567 70.8796L91.6236 52.423L91.7934 27.8236Z" fill="#ECECEC" style="mix-blend-mode:multiply"/>
<path d="M230.502 27.8235L230.671 52.4228L230.728 70.8794L230.841 188.186L230.728 225.071L230.671 243.528L230.502 261.984L230.332 243.528L230.275 225.071L230.162 188.186L230.275 70.8794L230.332 52.4228L230.502 27.8235Z" fill="#ECECEC" style="mix-blend-mode:multiply"/>
<path d="M207.374 27.8236L207.543 52.423L207.6 70.8796L207.713 188.186L207.6 225.071L207.543 243.528L207.374 261.985L207.232 243.528L207.175 225.071L207.062 188.186L207.175 70.8796L207.232 52.423L207.374 27.8236Z" fill="#ECECEC" style="mix-blend-mode:multiply"/>
<path d="M184.275 27.8236L184.445 52.423L184.501 70.8796L184.615 188.186L184.501 225.071L184.445 243.528L184.275 261.985L184.105 243.528L184.048 225.071L183.935 188.186L184.048 70.8796L184.105 52.423L184.275 27.8236Z" fill="#ECECEC" style="mix-blend-mode:multiply"/>
<path d="M253.628 27.8236L253.798 52.423L253.855 70.8796L253.968 188.186L253.855 225.071L253.798 243.528L253.628 261.985L253.458 243.528L253.402 225.071L253.289 188.186L253.402 70.8796L253.458 52.423L253.628 27.8236Z" fill="#ECECEC" style="mix-blend-mode:multiply"/>
<path d="M230.502 27.8235L230.671 52.4228L230.728 70.8794L230.841 188.186L230.728 225.071L230.671 243.528L230.502 261.984L230.332 243.528L230.275 225.071L230.162 188.186L230.275 70.8794L230.332 52.4228L230.502 27.8235Z" fill="#ECECEC" style="mix-blend-mode:multiply"/>
<path d="M68.6666 27.8235L68.8364 52.4228L68.8931 70.8794L69.0063 188.186L68.8931 225.071L68.8364 243.528L68.6666 261.984L68.5251 243.528L68.4401 225.071L68.3552 188.186L68.4401 70.8794L68.5251 52.4228L68.6666 27.8235Z" fill="#ECECEC" style="mix-blend-mode:multiply"/>
<path d="M45.568 27.8235L45.7095 52.4228L45.7661 70.8794L45.8793 188.186L45.7661 225.071L45.7095 243.528L45.568 261.984L45.3981 243.528L45.3415 225.071L45.2283 188.186L45.3415 70.8794L45.3981 52.4228L45.568 27.8235Z" fill="#ECECEC" style="mix-blend-mode:multiply"/>
<path d="M22.44 27.8235L22.6099 52.4228L22.6665 70.8794L22.7797 188.186L22.6665 225.071L22.6099 243.528L22.44 261.984L22.2702 243.528L22.2136 225.071L22.1003 188.186L22.2136 70.8794L22.2702 52.4228L22.44 27.8235Z" fill="#ECECEC" style="mix-blend-mode:multiply"/>
<path d="M69.3751 124.919C64.5628 120.276 48.3425 120.616 41.3788 128.344C31.8108 138.988 44.4077 159.964 59.6372 154.727C74.8951 149.49 73.0834 128.514 69.3751 124.919Z" fill="#621610"/>
<path d="M42.3975 149.121C39.7082 145.215 37.6701 140.771 37.1889 136.27C36.9907 134.033 37.2738 131.769 38.2928 129.901C39.2836 128.004 40.8972 126.447 42.8221 125.343C44.7187 124.182 46.9267 123.446 49.163 122.795C51.371 122.116 53.6639 121.833 55.9568 121.663C60.5427 121.465 65.2984 122.399 69.3747 124.918C65.8362 121.635 60.8824 119.936 55.9285 119.823C53.4658 119.766 50.9747 120.049 48.5685 120.644C46.1907 121.267 43.8128 122.003 41.6048 123.333C39.4252 124.607 37.4436 126.504 36.283 128.91C35.1507 131.288 34.8959 134.005 35.3489 136.496C36.2547 141.478 39.0005 145.753 42.3975 149.121Z" fill="#621610"/>
<path d="M88.2273 156.396C99.8901 170.409 109.543 188.242 114.723 192.573C117.413 194.838 156.732 198.32 161.204 199.197C167.998 200.528 158.374 235.375 153.816 234.072C150.844 233.223 105.665 226.996 97.3424 217.569C90.9449 210.322 80.8674 179.127 78.1781 165.426C75.1492 150.197 83.5849 150.82 88.2273 156.396Z" fill="#FFCBA2"/>
<path d="M170.63 235.742C163.1 235.742 153.447 234.355 147.531 232.657C143.426 231.468 145.493 199.027 149.711 197.81C162.817 194.045 180.793 196.735 186.794 201.519C192.795 206.331 178.443 235.742 170.63 235.742Z" fill="#FFCBA2"/>
<path d="M267.527 179.75C260.196 184.11 251.081 186.035 242.928 188.356C238.455 189.601 233.983 190.79 229.482 191.894C227.444 192.404 225.377 192.885 223.311 193.338C222.065 193.621 220.112 194.442 218.781 194.074C218.498 193.989 218.215 193.763 218.215 193.423C218.215 193.338 218.215 193.253 218.215 193.168C218.159 192.404 239.588 186.148 245.759 178.278C248.901 174.287 251.647 167.72 248.618 162.907C246.806 160.048 243.154 159.595 240.154 160.444C236.983 161.322 233.671 164.945 236.644 166.417C236.927 165.88 237.889 166.106 237.691 166.757C237.097 168.314 233.728 169.248 231.973 167.182C229.142 163.898 231.18 158.633 233.417 156.085C239.729 148.923 255.1 149.036 260.224 158.52C263.196 156.283 267.159 157.246 268.631 160.671C271.434 158.095 275.538 161.039 276.246 164.606C277.435 170.975 272.651 176.75 267.527 179.75Z" fill="#FF5710"/>
<path d="M229.765 156.312C229.058 155.491 222.83 156.963 224.302 159.907C225.859 162.936 230.813 157.5 229.765 156.312Z" fill="#FF5710"/>
<path d="M226.283 164.096C225.462 163.813 222.632 167.465 224.528 168.512C226.453 169.616 226.991 164.351 226.283 164.096Z" fill="#FF5710"/>
<path d="M260.959 156.142C261.78 155.774 261.299 151.188 259.176 151.726C257.053 152.292 260.28 156.453 260.959 156.142Z" fill="#FF5710"/>
<path d="M224.302 162.398C223.962 161.973 222.348 162.511 222.971 163.445C223.594 164.408 224.67 162.908 224.302 162.398Z" fill="#FF5710"/>
<path d="M260.196 150.084C260.705 149.942 260.847 148.244 259.771 148.442C258.639 148.669 259.601 150.254 260.196 150.084Z" fill="#FF5710"/>
<path d="M204.232 200.613L144.163 220.344L141.983 212.672L202.675 195.121L204.232 200.613Z" fill="#A8A8A8"/>
<path d="M274.01 174.825C274.01 174.825 275.596 190.961 269.962 192.546C264.329 194.131 239.928 201.095 239.928 201.095C239.928 201.095 215.527 208.03 209.894 209.644C204.26 211.229 197.127 196.707 197.127 196.707L274.01 174.825Z" fill="#375A64"/>
<path d="M153.278 197.018C153.278 197.018 185.407 183.996 184.7 197.895C184.502 202.028 178.727 218.73 175.33 217.626C170.97 216.21 172.074 208.794 173.518 204.236C173.518 204.236 164.148 209.926 158.232 204.576C154.552 201.236 153.278 197.018 153.278 197.018Z" fill="#FFCBA2"/>
<path d="M184.7 196.735C184.869 198.349 184.615 199.99 184.332 201.576C184.02 203.189 183.567 204.746 183.058 206.303C181.982 209.388 180.822 212.417 179.208 215.305C178.783 216.041 178.33 216.749 177.679 217.4C177.34 217.711 176.915 218.022 176.434 218.192C176.179 218.277 175.953 218.334 175.641 218.334C175.358 218.334 175.075 218.277 174.849 218.192C173.858 217.881 173.122 217.173 172.641 216.38C172.159 215.588 171.905 214.71 171.735 213.861C171.423 212.134 171.565 210.436 171.848 208.822C172.103 207.18 172.556 205.595 173.065 204.038L173.914 204.689C172.782 205.312 171.678 205.793 170.489 206.19C169.3 206.586 168.083 206.869 166.866 207.011C165.62 207.152 164.375 207.124 163.158 206.897C161.94 206.671 160.78 206.218 159.732 205.567C160.836 206.076 162.025 206.388 163.214 206.501C164.403 206.614 165.592 206.501 166.753 206.303C167.913 206.105 169.074 205.765 170.178 205.312C171.282 204.859 172.358 204.321 173.32 203.727L174.537 202.934L174.169 204.378C173.773 205.907 173.348 207.464 173.15 209.02C172.952 210.577 172.81 212.163 173.094 213.635C173.348 215.078 174.084 216.522 175.273 216.89C176.292 217.315 177.396 215.899 178.161 214.597C178.982 213.267 179.661 211.795 180.369 210.351C181.048 208.907 181.727 207.435 182.322 205.935C183.369 203.019 184.53 199.962 184.7 196.735Z" fill="#621610"/>
<path d="M176.067 195.999C172.642 198.065 177.058 200.896 177.058 200.896C177.058 200.896 169.754 198.348 167.065 201.83C164.489 205.199 169.896 208.454 170.292 208.681C169.896 208.539 163.13 206.359 160.781 210.153C158.346 214.087 164.347 216.409 164.744 216.55C164.347 216.55 158.969 216.494 157.865 219.777C155.94 225.411 169.641 225.892 172.783 229.572C172.783 229.572 170.235 235.516 170.094 235.715C170.094 235.715 180.058 236.535 184.786 232.006C187.277 229.628 185.55 226.854 185.55 226.854C185.55 226.854 189.711 227.562 191.664 224.618C192.655 223.118 191.127 220.202 191.127 220.202C191.127 220.202 194.495 220.627 196.052 217.909C197.298 215.758 195.571 213.153 195.571 213.153C195.571 213.153 198.996 212.049 199.562 209.445C200.695 204.18 183.37 191.583 176.067 195.999Z" fill="#FFCBA2"/>
<path d="M195.344 212.729C195.4 212.785 195.485 212.701 195.429 212.644C190.758 207.124 183.908 202.453 176.831 200.726C176.604 200.67 176.406 201.009 176.661 201.123C183.596 204.35 189.512 207.718 195.344 212.729Z" fill="#621610"/>
<path d="M191.183 220.258C191.24 220.315 191.325 220.202 191.268 220.145C186.427 214.484 178.558 209.445 170.179 208.397C169.896 208.369 169.584 208.624 169.924 208.681C175.472 209.813 185.974 215.729 191.183 220.258Z" fill="#621610"/>
<path d="M164.121 216.72C172.132 218.05 178.925 221.787 185.323 226.656C185.408 226.712 185.493 226.599 185.436 226.514C182.945 223.287 178.529 220.598 174.934 218.815C171.48 217.116 168.027 216.239 164.177 216.437C164.007 216.437 163.951 216.692 164.121 216.72Z" fill="#621610"/>
<path d="M177.057 200.924C175.613 200.556 174.113 200.33 172.641 200.245C171.169 200.188 169.64 200.273 168.423 200.924C167.829 201.264 167.376 201.745 167.149 202.368C166.923 202.991 166.838 203.698 166.979 204.349C167.206 205.652 168.253 206.756 169.385 207.407L172.216 209.049L168.989 208.482C167.574 208.228 166.045 208.171 164.658 208.397C163.271 208.624 161.912 209.218 161.233 210.322C160.497 211.455 160.525 212.785 161.403 213.748C162.252 214.767 163.611 215.503 164.913 215.956L168.565 217.258L164.715 217.201C163.667 217.201 162.563 217.314 161.516 217.569C160.497 217.824 159.506 218.277 158.883 218.985C158.261 219.692 158.034 220.74 158.402 221.532C158.77 222.381 159.676 223.089 160.582 223.655C162.478 224.788 164.63 225.552 166.725 226.401C167.772 226.826 168.848 227.25 169.867 227.703C170.886 228.185 171.961 228.694 172.726 229.572C171.905 228.779 170.801 228.411 169.753 227.986C168.706 227.59 167.602 227.279 166.526 226.939C164.347 226.26 162.195 225.552 160.101 224.448C159.11 223.882 158.034 223.202 157.383 221.985C156.732 220.74 157.072 219.183 157.949 218.192C158.827 217.173 160.016 216.663 161.176 216.352C162.337 216.041 163.498 215.899 164.715 215.899L164.517 217.173C162.96 216.635 161.516 215.899 160.355 214.597C159.789 213.946 159.365 213.04 159.365 212.106C159.336 211.172 159.648 210.294 160.129 209.558C161.12 208.029 162.875 207.35 164.46 207.124C166.073 206.897 167.63 206.982 169.216 207.265L168.819 208.341C167.404 207.463 166.3 206.105 166.045 204.406C165.932 203.557 166.074 202.736 166.385 201.972C166.696 201.179 167.347 200.556 168.083 200.188C169.584 199.481 171.169 199.565 172.669 199.735C174.169 200.018 175.641 200.415 177.057 200.924Z" fill="#621610"/>
<path d="M146.342 194.895L140.709 232.856C140.709 232.856 100.342 225.977 93.7466 218.419C87.151 210.861 80.442 180.713 77.2433 165.54C74.0162 150.367 82.4519 145.612 91.7651 158.208C101.078 170.805 111.694 190.055 114.156 191.159C116.591 192.291 146.342 194.895 146.342 194.895Z" fill="#FF5710"/>
<path opacity="0.1" d="M130.122 230.789C117.695 228.185 98.1629 223.429 93.7752 218.39C87.1795 210.832 80.4706 180.684 77.2718 165.54C75.63 157.812 77.0171 152.773 79.9894 151.386C86.9813 162.2 115.572 206.501 130.122 230.789Z" fill="black"/>
<path d="M151.069 194.527C150.985 194.329 139.52 192.319 139.52 192.319C139.52 192.319 129.188 210.577 129.216 212.757C129.244 214.937 128.989 231.581 129.159 231.78C129.329 231.978 143.087 235.601 143.37 235.205C143.653 234.809 144.587 216.89 144.615 215.531C144.672 214.201 151.069 194.527 151.069 194.527Z" fill="#FF5710"/>
<path opacity="0.2" d="M151.069 194.527C150.985 194.329 139.52 192.319 139.52 192.319C139.52 192.319 129.188 210.577 129.216 212.757C129.244 214.937 128.989 231.581 129.159 231.78C129.329 231.978 143.087 235.601 143.37 235.205C143.653 234.809 144.587 216.89 144.615 215.531C144.672 214.201 151.069 194.527 151.069 194.527Z" fill="black"/>
<path d="M108.014 265.777L99.7485 220.598C99.7485 220.598 108.014 213.04 107.165 199.481C106.712 192.206 93.4925 166.106 86.4155 156.963C79.7632 148.386 65.4113 148.867 56.551 159.595C27.9319 194.301 19.0999 240.357 15.4199 265.749H108.014V265.777Z" fill="#FF5710"/>
<path d="M65.9482 158.888C68.2695 161.605 71.1002 163.841 74.1858 165.54C77.2996 167.238 80.7531 168.314 84.2633 168.484C86.0184 168.569 87.7734 168.427 89.5285 168.116L90.8307 167.833H90.859C90.8873 167.833 90.8307 167.833 90.9439 167.833C91.0571 167.833 91.1137 167.889 91.1137 167.889C91.1704 167.918 91.1987 167.946 91.1987 167.974C91.227 168.003 91.227 168.003 91.2553 168.031C91.3119 168.088 91.3402 168.144 91.3685 168.201C91.4251 168.314 91.4817 168.399 91.5384 168.512C91.6516 168.71 91.7365 168.909 91.8497 169.135C92.2177 169.956 92.5857 170.777 92.8971 171.598C94.1993 174.91 95.3316 178.335 96.2657 181.76C97.1999 185.214 97.9925 188.696 98.5304 192.234C99.0682 195.772 99.3513 199.368 99.2381 202.934C99.1248 206.501 98.6153 210.124 97.3414 213.521C96.0959 216.89 93.9445 220.004 91.0288 222.183L91.1421 221.9L93.6048 243.782L95.9827 265.692L93.2085 243.839L90.5476 221.957L90.5193 221.787L90.6608 221.674C93.4633 219.579 95.5297 216.579 96.747 213.267C97.9642 209.955 98.4737 206.416 98.587 202.906C98.7568 195.829 97.5113 188.752 95.6713 181.902C94.7371 178.476 93.6331 175.08 92.3593 171.796C92.0196 170.975 91.7082 170.154 91.3402 169.361C91.2553 169.163 91.1421 168.965 91.0571 168.767C91.0005 168.682 90.9439 168.569 90.9156 168.484C90.8873 168.456 90.859 168.399 90.8307 168.371C90.8307 168.371 90.8307 168.371 90.859 168.399C90.859 168.399 90.9156 168.427 91.0005 168.427C91.1138 168.427 91.0571 168.427 91.0571 168.427H91.0288L89.6984 168.71C87.915 169.022 86.1033 169.135 84.3199 169.022C80.7248 168.767 77.2147 167.635 74.1292 165.851C70.9587 164.011 68.1845 161.662 65.9482 158.888Z" fill="#621610"/>
<path d="M74.4699 186.714C74.4699 187.846 73.564 188.752 72.4317 188.752C71.2994 188.752 70.3936 187.846 70.3936 186.714C70.3936 185.582 71.2994 184.676 72.4317 184.676C73.564 184.647 74.4699 185.582 74.4699 186.714Z" fill="#621610"/>
<path d="M94.0021 187.79C94.0021 188.922 93.0962 189.828 91.9639 189.828C90.8316 189.828 89.9258 188.922 89.9258 187.79C89.9258 186.658 90.8316 185.752 91.9639 185.752C93.0962 185.752 94.0021 186.658 94.0021 187.79Z" fill="#621610"/>
<path d="M71.7228 202.142C71.7228 203.274 70.8169 204.18 69.6846 204.18C68.5523 204.18 67.6465 203.274 67.6465 202.142C67.6465 201.01 68.5523 200.104 69.6846 200.104C70.8169 200.104 71.7228 201.01 71.7228 202.142Z" fill="#621610"/>
<path d="M65.2697 220.598C65.2697 221.73 64.3638 222.636 63.2315 222.636C62.0992 222.636 61.1934 221.73 61.1934 220.598C61.1934 219.466 62.0992 218.56 63.2315 218.56C64.3638 218.56 65.2697 219.466 65.2697 220.598Z" fill="#621610"/>
<path d="M64.6183 238.743C64.6183 239.876 63.7125 240.782 62.5801 240.782C61.4478 240.782 60.542 239.876 60.542 238.743C60.542 237.611 61.4478 236.705 62.5801 236.705C63.6841 236.705 64.6183 237.611 64.6183 238.743Z" fill="#621610"/>
<path d="M92.7843 203.67C92.7843 204.803 91.8785 205.709 90.7462 205.709C89.6139 205.709 88.708 204.803 88.708 203.67C88.708 202.538 89.6139 201.632 90.7462 201.632C91.8785 201.632 92.7843 202.538 92.7843 203.67Z" fill="#621610"/>
<path d="M86.1887 238.376C86.1887 239.508 85.2829 240.414 84.1506 240.414C83.0183 240.414 82.1124 239.508 82.1124 238.376C82.1124 237.243 83.0183 236.338 84.1506 236.338C85.2546 236.338 86.1887 237.243 86.1887 238.376Z" fill="#621610"/>
<path d="M63.6846 258.813C64.8103 258.813 65.7228 257.901 65.7228 256.775C65.7228 255.65 64.8103 254.737 63.6846 254.737C62.559 254.737 61.6465 255.65 61.6465 256.775C61.6465 257.901 62.559 258.813 63.6846 258.813Z" fill="#621610"/>
<path d="M87.2931 256.379C87.2931 257.511 86.3872 258.417 85.2549 258.417C84.1226 258.417 83.2168 257.511 83.2168 256.379C83.2168 255.247 84.1226 254.341 85.2549 254.341C86.3589 254.341 87.2931 255.247 87.2931 256.379Z" fill="#621610"/>
<path d="M86.6701 221.278C86.6701 222.41 85.7642 223.316 84.6319 223.316C83.4996 223.316 82.5938 222.41 82.5938 221.278C82.5938 220.145 83.4996 219.24 84.6319 219.24C85.7359 219.24 86.6701 220.145 86.6701 221.278Z" fill="#621610"/>
<path d="M87.8019 150.877C87.8019 150.877 90.5194 163.417 88.2548 164.012C81.2911 165.852 71.7797 157.416 71.1004 155.944C70.9305 155.576 69.8548 145.668 69.0622 137.94C68.5527 132.986 68.1281 128.938 68.1281 128.938L87.9434 136.298L87.8019 149.886V150.877Z" fill="#FFCBA2"/>
<path d="M87.9433 136.326L87.8018 149.914C83.8104 149.32 74.9784 146.97 69.0621 137.968C68.5525 133.014 68.1279 128.966 68.1279 128.966L70.619 129.787L87.9433 136.326Z" fill="#621610"/>
<path d="M104.108 116.086C106.854 139.78 92.9829 144.111 87.8592 144.706C83.2168 145.243 67.3645 146.461 62.1559 123.163C56.9756 99.8662 67.1097 91.0908 77.6685 89.3357C88.2272 87.5524 101.334 92.393 104.108 116.086Z" fill="#FFCBA2"/>
<path d="M99.8048 114.247C99.2386 114.218 98.7291 114.077 98.1913 113.992C97.5685 113.879 97.059 113.85 96.5777 113.397C96.323 113.143 96.323 112.633 96.5211 112.35C97.0306 111.727 97.8233 111.671 98.5593 111.756C99.3802 111.869 99.9746 112.152 100.541 112.746C101.107 113.369 100.541 114.303 99.8048 114.247Z" fill="#621610"/>
<path d="M83.5558 115.294C84.0936 115.181 84.6031 114.983 85.141 114.813C85.7354 114.615 86.245 114.53 86.6413 114.02C86.8678 113.737 86.7828 113.228 86.5564 113.001C85.9619 112.435 85.1693 112.492 84.4333 112.69C83.6407 112.916 83.0745 113.284 82.5933 113.964C82.1121 114.586 82.8198 115.464 83.5558 115.294Z" fill="#621610"/>
<path d="M87.4057 119.766C87.3774 119.71 87.2925 119.851 87.2925 119.908C87.4623 121.521 87.3774 123.418 85.9337 124.041C85.8771 124.069 85.9054 124.154 85.962 124.126C87.7454 123.758 87.8303 121.267 87.4057 119.766Z" fill="#621610"/>
<path d="M85.8486 118.153C83.216 118.125 83.3859 123.39 85.8203 123.39C88.1982 123.418 88.0283 118.181 85.8486 118.153Z" fill="#621610"/>
<path d="M84.8302 118.464C84.3772 118.776 83.9526 119.313 83.3865 119.37C82.7354 119.455 82.2542 118.917 81.8296 118.408C81.7729 118.351 81.7446 118.408 81.7446 118.464C81.7729 119.455 82.1692 120.474 83.2449 120.616C84.2357 120.729 84.9151 119.823 85.1415 118.804C85.1699 118.606 85 118.351 84.8302 118.464Z" fill="#621610"/>
<path d="M96.4357 119.087C96.4357 119.03 96.5772 119.172 96.5772 119.229C96.5489 120.842 96.8037 122.71 98.304 123.22C98.3606 123.248 98.3606 123.305 98.304 123.305C96.464 123.078 96.1526 120.616 96.4357 119.087Z" fill="#621610"/>
<path d="M97.8509 117.36C100.455 117.106 100.767 122.343 98.3605 122.569C95.9826 122.796 95.6713 117.559 97.8509 117.36Z" fill="#621610"/>
<path d="M98.9554 117.615C99.38 117.87 99.8329 118.351 100.314 118.351C100.88 118.351 101.277 117.756 101.616 117.19C101.645 117.134 101.701 117.162 101.701 117.247C101.786 118.238 101.531 119.313 100.569 119.568C99.6914 119.795 99.012 118.974 98.7006 117.983C98.6723 117.813 98.7856 117.53 98.9554 117.615Z" fill="#621610"/>
<path d="M87.4625 132.562C87.8588 132.958 88.2268 133.468 88.8213 133.524C89.3874 133.581 90.0385 133.326 90.5764 133.156C90.633 133.128 90.6896 133.185 90.633 133.241C90.2084 133.864 89.3025 134.232 88.5665 134.091C87.8305 133.949 87.4908 133.298 87.321 132.647C87.2644 132.534 87.4059 132.505 87.4625 132.562Z" fill="#621610"/>
<path d="M94.0012 126.391C94.0012 126.391 94.4258 128.797 94.4824 129.957C94.4824 130.071 94.1994 130.127 93.8314 130.156C93.803 130.156 93.803 130.184 93.7747 130.156C91.7649 130.552 89.6984 129.929 88.4246 128.344C88.3397 128.231 88.4812 128.117 88.5944 128.174C90.1514 129.221 91.8215 129.448 93.6049 129.391C93.6615 129.08 92.7273 125.287 92.8972 125.258C93.52 125.173 94.7655 125.541 95.5298 125.74C94.7655 120.701 93.2086 115.804 92.5292 110.765C92.5009 110.595 92.7557 110.51 92.8123 110.68C94.8221 115.69 95.8129 121.465 96.747 126.674C96.8603 127.353 94.4541 126.589 94.0012 126.391Z" fill="#621610"/>
<path d="M93.2091 129.646C93.2091 129.646 92.3599 131.146 91.0294 131.797C90.5482 132.052 89.982 132.194 89.3876 132.109C88.1703 131.939 88.0005 130.863 88.1137 129.901C88.1986 129.108 88.4817 128.401 88.4817 128.401C88.4817 128.401 90.4066 129.816 93.2091 129.646Z" fill="#621610"/>
<path d="M91.0294 131.826C90.5482 132.081 89.982 132.222 89.3876 132.137C88.1703 131.968 88.0005 130.892 88.1137 129.929C89.4159 129.873 90.7747 130.58 91.0294 131.826Z" fill="#FF9CBF"/>
<path d="M61.8718 123.39C65.8915 123.701 66.7974 115.294 66.7974 115.294C66.7974 115.294 74.95 115.322 77.6392 103.603C77.6392 103.603 77.4693 109.066 74.0441 113.284C74.0441 113.284 88.4244 111.755 94.4539 99.7247C94.4539 99.7247 92.0478 105.839 89.7832 108.019C89.7832 108.019 95.8127 106.349 98.7567 101.451C98.7567 101.451 101.276 108.387 103.201 110.312C103.201 110.312 102.607 85.1745 79.3093 87.8355C79.3093 87.8355 64.7309 88.7979 59.494 100.347C54.2571 111.925 61.8718 123.39 61.8718 123.39Z" fill="#621610"/>
<path d="M66.1468 124.551C66.1468 124.551 60.7401 117.247 57.3998 119.201C54.0878 121.154 58.3056 131.826 62.297 133.185C66.3167 134.543 67.6472 130.863 67.6472 130.863L66.1468 124.551Z" fill="#FFCBA2"/>
<path d="M58.6735 122.257C58.6169 122.257 58.5886 122.342 58.6452 122.371C61.4477 123.418 63.0046 125.966 64.1086 128.598C63.2594 127.579 62.0988 127.07 60.7683 128.089C60.6834 128.145 60.7683 128.259 60.8532 128.23C61.9855 127.947 62.8065 128.117 63.5991 129.023C64.1652 129.646 64.5615 130.467 64.9579 131.203C65.0994 131.457 65.5523 131.288 65.4391 131.005C65.4391 130.976 65.4108 130.948 65.4108 130.948C65.3825 127.381 62.4951 122.484 58.6735 122.257Z" fill="#621610"/>
<path d="M64.5052 132.08C64.5052 132.533 64.1372 132.929 63.6843 132.929C63.2314 132.929 62.8351 132.561 62.8351 132.108C62.8351 131.655 63.2031 131.259 63.656 131.259C64.1372 131.259 64.5052 131.627 64.5052 132.08Z" fill="white"/>
<path d="M62.1553 130.637C62.1553 130.92 61.9288 131.174 61.6174 131.174C61.3344 131.174 61.0796 130.948 61.0796 130.637C61.0796 130.354 61.306 130.099 61.6174 130.099C61.9288 130.127 62.1553 130.354 62.1553 130.637Z" fill="white"/>
<path d="M58.9002 114.247C58.6171 114.048 32.8572 78.579 30.6492 75.3236C29.6584 73.8799 37.5279 51.2338 50.5778 44.9778C59.9759 40.4769 77.102 44.1852 80.2442 45.5722C84.0091 47.2424 98.3611 92.9876 98.3611 92.9876L75.9414 102.244L58.9002 114.247Z" fill="#FF5710"/>
<g opacity="0.1">
<path opacity="0.1" d="M60.5133 107.538C59.9754 107.142 59.6357 106.575 59.2677 106.038C58.8997 105.5 58.5034 104.934 58.1071 104.396C57.3145 103.32 56.3804 102.358 55.4462 101.395C54.6819 100.659 53.8044 99.8382 52.7004 99.7249C52.2191 99.6683 51.7662 99.7816 51.3416 100.008C51.1151 100.121 50.7471 100.291 50.5773 100.518C50.4074 100.716 50.3225 101.027 50.2093 101.225C50.1527 101.282 50.2942 101.367 50.3225 101.282C50.4641 100.942 50.6056 100.687 50.9453 100.489C51.1717 100.376 51.4548 100.263 51.7096 100.206C52.3041 100.065 52.8702 100.206 53.3797 100.489C54.3705 101.027 55.1065 101.961 55.8142 102.782C56.5785 103.631 57.3711 104.509 58.1354 105.358C58.8431 106.151 59.4659 107.198 60.4284 107.679C60.485 107.708 60.5982 107.594 60.5133 107.538Z" fill="black"/>
<path opacity="0.1" d="M63.1741 107.283C61.5888 105.047 59.9753 102.81 58.3618 100.602C56.7482 98.3661 55.0781 96.0449 54.0024 93.4972C53.9741 93.4122 53.8608 93.4689 53.8891 93.5255C54.9082 96.1298 56.0688 98.6209 57.6541 100.97C59.211 103.292 61.1642 105.358 63.0608 107.396C63.1174 107.425 63.2024 107.34 63.1741 107.283Z" fill="black"/>
<path opacity="0.1" d="M69.8547 100.404C68.411 98.5357 66.7975 96.8089 65.2123 95.0821C63.7969 93.5535 62.2399 92.2231 60.4849 91.1191C60.4283 91.0625 60.3433 91.1757 60.4283 91.2323C62.1267 92.4778 63.4006 94.2046 64.816 95.7615C66.3446 97.46 67.9015 99.1867 69.5716 100.744C69.7415 100.885 70.0246 100.602 69.8547 100.404Z" fill="black"/>
<path opacity="0.1" d="M75.4028 78.7489C73.9874 78.1544 72.4588 78.947 72.0908 80.4473C71.6661 82.1741 72.4022 84.1556 72.9966 85.7692C73.6194 87.5243 74.4969 89.1944 75.5443 90.7513C76.7332 92.5347 78.1769 94.035 79.7621 95.4504C79.8188 95.507 79.9037 95.4221 79.8471 95.3655C77.5825 92.9593 75.8274 90.0436 74.5818 87.0147C73.9591 85.5144 73.4495 83.9575 73.1098 82.3723C72.8268 81.0418 73.0815 78.6923 74.9781 78.947C76.7615 79.1735 77.6674 81.24 78.9978 82.2307C79.0261 82.259 79.0544 82.2024 79.0261 82.1741C77.724 81.1267 77.0446 79.4566 75.4028 78.7489Z" fill="black"/>
<path opacity="0.1" d="M88.5664 77.5317C87.6605 80.136 87.887 82.9951 88.7645 85.5711C89.2458 87.0147 89.9251 88.4018 90.7178 89.704C91.5104 91.0344 92.2747 92.5064 93.3504 93.6387C93.407 93.6954 93.4919 93.6388 93.4636 93.5821C92.8691 92.2234 91.9916 90.9778 91.3688 89.6191C90.7461 88.2603 90.1799 86.8732 89.7836 85.4295C89.4156 84.1557 89.1608 82.8818 88.991 81.5514C88.8211 80.1926 88.7928 78.9188 88.9061 77.56C88.9061 77.4185 88.623 77.3335 88.5664 77.5317Z" fill="black"/>
<path opacity="0.1" d="M85.2824 87.7791C84.3766 85.5711 83.2443 83.5046 82.0271 81.4382C81.9138 81.24 81.6024 81.4099 81.7157 81.608C82.7348 83.7311 83.6406 85.9108 84.5181 88.0622C85.3957 90.2136 86.16 92.4498 87.1791 94.5163C87.2074 94.5729 87.2923 94.5446 87.2923 94.4597C87.0092 92.1951 86.1883 89.9022 85.2824 87.7791Z" fill="black"/>
</g>
<path d="M97.9357 87.977C96.4354 87.4391 78.092 88.1751 71.6945 92.0816C66.033 95.5634 56.0687 105.358 53.5776 109.406C53.153 110.085 57.7105 117.304 59.1825 117.927C60.0601 118.295 71.3831 108.245 77.724 104.112C83.1308 100.574 97.0016 99.2718 100.54 99.1019C101.078 99.0736 98.8416 88.2884 97.9357 87.977Z" fill="#FF5710"/>
<path opacity="0.2" d="M97.9357 87.977C96.4354 87.4391 78.092 88.1751 71.6945 92.0816C66.033 95.5634 56.0687 105.358 53.5776 109.406C53.153 110.085 57.7105 117.304 59.1825 117.927C60.0601 118.295 71.3831 108.245 77.724 104.112C83.1308 100.574 97.0016 99.2718 100.54 99.1019C101.078 99.0736 98.8416 88.2884 97.9357 87.977Z" fill="black"/>
<path d="M83.9518 166.842C83.9518 166.842 82.9893 160.331 82.4515 159.765C81.9136 159.227 74.0441 155.462 70.3075 149.574C69.3734 148.074 65.6934 153.368 65.6934 153.368C65.6934 153.368 68.4392 160.898 74.8084 164.917C81.1776 168.937 88.8207 168.116 90.4059 167.012C90.9438 166.644 89.1321 155.774 88.9339 156.255C88.3395 157.784 87.745 158.689 86.7259 159.737C86.4429 160.02 87.5752 166.417 87.5752 166.417L83.9518 166.842Z" fill="#FF5710"/>
<path d="M57.4575 157.501C44.1529 168.456 3.84276 212.644 6.36214 227.109C8.23044 237.866 20.0914 241.093 30.3104 236.564C39.199 232.629 59.8919 185.129 65.5535 171.796C70.9319 159.086 70.5356 146.715 57.4575 157.501Z" fill="#FFCBA2"/>
<path d="M57.4575 157.501C44.1529 168.456 3.84276 212.644 6.36214 227.109C8.23044 237.866 20.0914 241.093 30.3104 236.564C39.199 232.629 59.8919 185.129 65.5535 171.796C70.9319 159.086 70.5356 146.715 57.4575 157.501Z" fill="#FF5710"/>
<path d="M64.4204 175.533C64.4487 175.448 64.3072 175.363 64.2788 175.476C62.8352 178.845 61.3348 182.213 59.7779 185.525C58.221 188.866 56.749 192.206 55.1921 195.546C52.0782 202.17 48.7945 208.709 45.3127 215.135C44.3502 216.947 43.3312 218.73 42.3404 220.514C41.3213 222.325 40.2739 224.109 39.3115 225.92C39.2832 225.977 39.3681 226.034 39.3964 225.977C40.4721 224.477 41.4346 222.92 42.4253 221.363C43.3878 219.806 44.3502 218.249 45.2561 216.692C47.0961 213.55 48.9078 210.379 50.6345 207.152C52.3613 203.897 54.0315 200.585 55.645 197.245C56.9472 194.527 58.221 191.81 59.3816 189.035C59.6364 188.667 59.9195 188.271 60.1459 187.903C60.6555 187.111 61.165 186.318 61.6462 185.525C62.6087 183.968 63.4862 182.355 64.4204 180.798C64.477 180.713 64.3072 180.6 64.2505 180.685C63.2598 182.242 62.2124 183.742 61.2782 185.299C60.8819 185.95 60.4856 186.601 60.0893 187.28V187.252C61.6462 183.402 63.0899 179.467 64.4204 175.533Z" fill="#621610"/>
<path d="M9.5321 233.281C0.756726 223.798 12.2779 213.692 21.2798 213.437C42.4256 212.786 73.1394 218.447 90.0674 224.364C95.8705 226.402 97.2859 259.692 90.7185 259.522C79.0557 259.21 27.3093 252.502 9.5321 233.281Z" fill="#FFCBA2"/>
<path d="M81.7726 221.986C81.7726 221.986 83.9806 222.298 95.983 222.043C104.277 221.873 124.574 226.714 133.547 248.228C136.973 256.465 132.698 262.466 127.603 254.54C124.008 248.964 122.026 244.774 120.328 243.274C120.328 243.274 119.309 253.38 114.185 256.295C111.892 257.597 105.579 260.994 100.257 262.919C100.257 262.919 99.5215 261.872 98.7855 260.428C98.7855 260.428 92.2181 263.882 85.7073 258.645L81.7726 221.986Z" fill="#FFCBA2"/>
<path d="M103.909 223.147C107.249 225.921 114.213 231.95 118.204 238.857C122.62 246.529 129.103 262.523 123.385 265.721C119.195 268.071 116.195 262.183 116.195 262.183C116.195 262.183 117.468 269.345 113.222 270.647C109.344 271.836 107.306 267.137 107.306 267.137C107.306 267.137 107.334 271.609 103.4 272.034C98.6439 272.543 99.3799 263.06 94.1147 259.437C92.9541 258.644 103.909 223.147 103.909 223.147Z" fill="#FFCBA2"/>
<path d="M109.316 242.198C112.034 245.34 116.337 254.031 116.308 262.042C116.308 262.212 116.167 262.325 116.139 262.155C114.299 253.323 110.902 245.482 109.232 242.226C109.203 242.198 109.288 242.141 109.316 242.198Z" fill="#621610"/>
<path d="M101.702 246.897C103.768 249.841 107.816 259.012 107.505 267.137C107.505 267.307 107.363 267.42 107.335 267.25C105.806 257.937 103.089 250.294 101.645 246.953C101.589 246.868 101.674 246.84 101.702 246.897Z" fill="#621610"/>
<path d="M79.4805 217.4L73.1113 240.131L72.1489 261.617C72.1489 261.617 4.60678 244.689 6.27693 225.977C6.84308 219.665 12.8726 211.257 26.9415 210.776C41.067 210.267 79.4805 217.4 79.4805 217.4Z" fill="#FF5710"/>
<path d="M79.6504 217.937C78.1784 217.513 76.763 217.06 75.291 216.664C73.8473 216.296 72.4036 215.928 70.9599 215.616C68.0442 214.937 65.1002 214.399 62.1562 213.918C56.3249 212.955 50.4652 212.276 44.5772 211.88C42.4258 211.2 40.1895 210.719 38.0098 210.096C37.9532 210.068 37.9249 210.181 37.9815 210.209C39.7649 210.719 41.5483 211.313 43.3599 211.823C42.0012 211.738 40.6424 211.681 39.2553 211.625C37.6135 211.568 35.9433 211.625 34.3015 211.596C34.2449 211.596 34.2449 211.71 34.3015 211.71C35.7735 211.795 37.2455 211.964 38.7175 212.106C40.2178 212.248 41.7181 212.361 43.2184 212.502C46.1907 212.785 49.163 213.125 52.107 213.493C57.995 214.257 63.9113 215.163 69.7144 216.324C71.3562 216.664 72.9981 216.947 74.6116 217.286C76.2535 217.626 77.9519 217.881 79.5938 218.249C79.7919 218.277 79.8485 217.994 79.6504 217.937Z" fill="#621610"/>
<path d="M70.4507 261.022C67.6483 260.201 64.8458 259.267 62.0433 258.418C59.2126 257.54 56.3818 256.663 53.5794 255.729C47.9461 253.804 42.4261 251.681 36.8495 249.586C33.6225 248.369 30.3671 247.293 27.14 246.076C27.0551 246.047 26.9985 246.161 27.0834 246.189C28.4988 246.783 29.9142 247.406 31.3012 248.029C32.6883 248.652 34.0754 249.19 35.4625 249.784C38.2366 251.001 41.0391 252.105 43.8698 253.238C49.3898 255.446 55.0231 257.37 60.7129 259.012C63.9117 259.918 67.1387 260.597 70.3941 261.249C70.5356 261.277 70.564 261.079 70.4507 261.022Z" fill="#621610"/>
<path d="M82.9334 217.485C82.8201 217.259 70.7044 215.532 70.7044 215.532C70.7044 215.532 61.0515 236.621 61.1931 239.084C61.3629 241.546 62.1555 260.314 62.3537 260.541C62.5518 260.767 77.1869 264.193 77.47 263.74C77.7531 263.287 77.5832 243.047 77.5266 241.49C77.4983 239.961 82.9334 217.485 82.9334 217.485Z" fill="#FF5710"/>
<path opacity="0.2" d="M82.8773 217.457C82.7641 217.23 70.6201 215.56 70.6201 215.56C70.6201 215.56 61.0238 236.678 61.1936 239.141C61.3635 241.603 62.2127 260.371 62.4109 260.598C62.609 260.824 77.2724 264.193 77.5272 263.768C77.8102 263.315 77.5555 243.075 77.5272 241.518C77.4988 239.933 82.8773 217.457 82.8773 217.457Z" fill="black"/>
<path d="M231.209 68.699H129.981V76.4836H231.209V68.699Z" fill="#621610"/>
<path d="M182.067 90.5812H179.066V128.57H182.067V90.5812Z" fill="#C8C8C8"/>
<path d="M188.719 126.9H172.442L171.621 149.602H189.568L188.719 126.9ZM177.169 146.941H175.471V130.155H177.169V146.941ZM181.415 146.941H179.745V130.155H181.415V146.941ZM185.661 146.941H183.991V130.155H185.661V146.941Z" fill="#C8C8C8"/>
<path d="M183.822 94.3175H177.538L176.887 70.7939H184.473L183.822 94.3175Z" fill="#1A2E35"/>
<path d="M180.68 74.8706C181.243 74.8706 181.699 74.4144 181.699 73.8515C181.699 73.2887 181.243 72.8325 180.68 72.8325C180.117 72.8325 179.661 73.2887 179.661 73.8515C179.661 74.4144 180.117 74.8706 180.68 74.8706Z" fill="#FFC800"/>
<path d="M213.884 90.581H210.884V121.153H213.884V90.581Z" fill="#C8C8C8"/>
<path d="M220.989 129.985C220.989 136.354 216.828 142.214 212.384 142.214C207.94 142.214 203.778 136.354 203.778 129.985C203.778 123.587 208.874 120.445 212.384 120.445C215.894 120.445 220.989 123.587 220.989 129.985Z" fill="#C8C8C8"/>
<path d="M215.639 94.3175H209.327L208.704 70.7938H216.262L215.639 94.3175Z" fill="#1A2E35"/>
<path d="M212.469 74.8706C213.032 74.8706 213.488 74.4143 213.488 73.8515C213.488 73.2887 213.032 72.8324 212.469 72.8324C211.906 72.8324 211.45 73.2887 211.45 73.8515C211.45 74.4143 211.906 74.8706 212.469 74.8706Z" fill="#FFC800"/>
<path d="M129.924 103.603V140.941H152.74V90.468H148.012V103.603H129.924V103.603ZM133.151 108.811C133.151 108.047 133.773 107.453 134.509 107.453C135.245 107.453 135.868 108.047 135.868 108.811C135.868 109.547 135.274 110.17 134.509 110.17C133.745 110.17 133.151 109.547 133.151 108.811Z" fill="#C8C8C8"/>
<path d="M147.219 94.3175H153.532L154.155 70.7939H146.597L147.219 94.3175Z" fill="#1A2E35"/>
<path d="M150.389 74.8706C150.952 74.8706 151.408 74.4144 151.408 73.8515C151.408 73.2887 150.952 72.8325 150.389 72.8325C149.826 72.8325 149.37 73.2887 149.37 73.8515C149.37 74.4144 149.826 74.8706 150.389 74.8706Z" fill="#FFC800"/>
<path d="M162.546 37.2553V68.7051H211.688V37.2553H162.546Z" fill="#FF5710"/>
<path opacity="0.2" d="M162.546 37.2553V68.7051H211.688V37.2553H162.546Z" fill="#FF5710"/>
<path d="M224.727 48.7708C222.292 48.7708 219.999 50.8656 217.706 50.8656C215.413 50.8656 211.677 50.8656 211.677 50.8656V55.0834C211.677 55.0834 215.385 55.0834 217.706 55.0834C219.999 55.0834 222.264 57.1782 224.727 57.1782C227.614 57.1782 229.765 55.5647 229.765 52.9604C229.765 50.4127 227.614 48.7708 224.727 48.7708ZM225.378 54.5456C224.5 54.5456 223.792 53.8379 223.792 52.9604C223.792 52.0828 224.5 51.3751 225.378 51.3751C226.255 51.3751 226.963 52.0828 226.963 52.9604C226.963 53.8662 226.255 54.5456 225.378 54.5456Z" fill="#FF5710"/>
<g opacity="0.2">
<path opacity="0.2" d="M224.727 48.7708C222.292 48.7708 219.999 50.8656 217.706 50.8656C215.413 50.8656 211.677 50.8656 211.677 50.8656V55.0834C211.677 55.0834 215.385 55.0834 217.706 55.0834C219.999 55.0834 222.264 57.1782 224.727 57.1782C227.614 57.1782 229.765 55.5647 229.765 52.9604C229.765 50.4127 227.614 48.7708 224.727 48.7708ZM225.378 54.5456C224.5 54.5456 223.792 53.8379 223.792 52.9604C223.792 52.0828 224.5 51.3751 225.378 51.3751C226.255 51.3751 226.963 52.0828 226.963 52.9604C226.963 53.8662 226.255 54.5456 225.378 54.5456Z" fill="#FF5710"/>
</g>
<path d="M175.782 53.4411C175.782 53.4411 169.3 65.5568 168.054 67.1986C166.781 68.8405 163.752 68.6989 161.855 68.6989C159.958 68.6989 154.127 68.6989 154.127 68.6989C154.127 68.6989 148.296 68.6989 146.399 68.6989C144.502 68.6989 141.445 68.8405 140.2 67.1986C138.926 65.5568 132.472 53.4411 132.472 53.4411H175.782Z" fill="#375A64"/>
<path d="M186.642 30.8535L151.975 16.7035C151.975 16.7035 203.622 15.2885 203.622 25.1935C203.622 35.0984 186.642 30.8535 186.642 30.8535Z" fill="#24997F"/>
<path d="M265.882 81.7934C263.335 75.0014 249.02 63.3984 242.181 58.4459C247.841 56.7951 260.505 55.1914 265.882 61.9834C271.259 68.7754 268.123 78.0201 265.882 81.7934Z" fill="#24997F"/>
<path d="M176.03 4.67596C172.068 8.07196 161.644 9.62846 156.927 9.98221C158.225 8.21346 161.809 4.18071 165.771 2.19971C170.724 -0.276538 180.982 0.430961 176.03 4.67596Z" fill="#24997F"/>
<path d="M17.55 35.4522C21.0875 30.2639 32.832 18.6845 51.51 13.8735C41.9588 9.8643 21.795 8.56721 17.55 35.4522Z" fill="#24997F"/>
<path d="M182.751 278.832C166.337 270.342 145.961 268.22 137.825 268.22C140.891 271.757 149.923 280.389 161.526 286.615C173.129 292.841 180.511 284.02 182.751 278.832Z" fill="#24997F"/>
<path d="M131.104 288.03C127.991 282.936 129.099 274.587 130.042 271.05C134.523 273.644 143.556 280.035 143.839 284.846C144.192 290.86 134.995 294.397 131.104 288.03Z" fill="#24997F"/>
</svg>
