<svg width="24" height="24" viewBox="0 0 24 24" fill="none" xmlns="http://www.w3.org/2000/svg">
<path fill-rule="evenodd" clip-rule="evenodd" d="M4.99982 14.2206C2.23878 14.2206 0 11.947 0 9.1419C0 6.3368 2.23878 4.06325 4.99982 4.06325C5.22156 4.06325 5.43965 4.07755 5.65356 4.10617C6.76852 1.68052 9.19096 0 12 0C14.809 0 17.2315 1.68052 18.3464 4.10617C18.5603 4.07755 18.7784 4.06325 19.0002 4.06325C21.7612 4.06325 24 6.3368 24 9.1419C24 11.947 21.7612 14.2206 19.0002 14.2206V22.3471C16.5 24.7171 7.83339 24.3784 4.99982 22.3471V14.2206Z" fill="#E23E3E"/>
</svg>
