<svg width="170" height="105" viewBox="0 0 170 105" fill="none" xmlns="http://www.w3.org/2000/svg">
<path d="M54.4821 30.1602H38.2031L42.7391 4.41803H49.1652L45.6302 24.5834H55.483L54.4821 30.1602Z" fill="#FF5710"/>
<path d="M73.8339 30.1602H55.9102L60.4461 4.41803H78.3667L77.3657 9.99485H65.8713L65.0489 14.8215H74.5479L73.547 20.3984H64.0512L63.3372 24.5834H74.8316L73.8339 30.1602Z" fill="#FF5710"/>
<path d="M102.602 9.99485H93.8201L90.285 30.1602H83.8238L87.3588 9.99485H78.5388L79.5397 4.41803H103.603L102.602 9.99485Z" fill="#FF5710"/>
<path d="M104.03 5.77472C104.03 4.25309 104.369 3.13901 105.047 2.43246C105.725 1.72591 106.779 1.37475 108.209 1.37901C110.374 1.37901 111.457 2.44308 111.457 4.57124C111.457 11.5793 108.137 15.0822 101.496 15.0801L101.961 12.5071C102.811 12.5071 103.805 12.1432 104.941 11.4154C105.482 11.083 105.945 10.6383 106.299 10.1112C106.653 9.58419 106.89 8.98712 106.994 8.36042C105.018 8.35404 104.03 7.49214 104.03 5.77472Z" fill="#FF5710"/>
<path d="M115.811 22.8309C115.811 24.4759 116.996 25.2984 119.365 25.2984C121.735 25.2984 122.918 24.5536 122.916 23.0639C122.916 22.2786 122.511 21.6401 121.702 21.1485C120.78 20.6019 119.789 20.181 118.756 19.8972C117.603 19.5652 116.449 19.1778 115.295 18.7352C114.154 18.3046 113.141 17.5918 112.349 16.6634C111.527 15.6824 111.095 14.4322 111.135 13.152C111.135 7.16973 114.979 4.17754 122.668 4.17542C125.477 4.17542 127.602 4.70745 129.043 5.77153C130.484 6.83561 131.203 8.30726 131.201 10.1864C131.204 10.8575 131.113 11.5257 130.933 12.172C130.822 12.6455 130.636 13.0981 130.382 13.5127L130.095 13.9404H123.774C124.035 13.6639 124.239 13.3381 124.374 12.9818C124.508 12.6256 124.571 12.2461 124.558 11.8655C124.558 10.3162 123.546 9.54158 121.523 9.54158C118.973 9.54158 117.698 10.3524 117.698 11.9741C117.698 12.7849 118.103 13.4233 118.913 13.8894C119.833 14.4098 120.826 14.7896 121.858 15.0163C123.035 15.2969 124.196 15.6368 125.339 16.0346C126.489 16.4304 127.511 17.1283 128.3 18.0552C129.11 18.9959 129.515 20.2175 129.515 21.72C129.515 24.7462 128.61 26.9925 126.802 28.4588C124.993 29.9251 122.209 30.6582 118.447 30.6582C114.686 30.6582 112.116 29.99 110.736 28.6535C109.712 27.6554 109.2 26.2721 109.2 24.5036C109.207 23.7719 109.279 23.0423 109.414 22.3233L109.522 21.7519H115.948L115.878 22.1796C115.834 22.394 115.812 22.6121 115.811 22.8309Z" fill="#FF5710"/>
<path d="M47.2368 61.4345C43.8367 61.4345 41.48 60.6897 40.1667 59.2C39.2615 58.1529 38.8099 56.6877 38.812 54.8042C38.8181 53.9282 38.9013 53.0544 39.0607 52.193L40.5237 43.9698C41.5863 37.9407 45.4539 34.9252 52.1265 34.923C54.8891 34.923 56.9834 35.5136 58.4093 36.6947C59.8352 37.8758 60.5492 39.49 60.5513 41.5373C60.5498 42.4999 60.4125 43.4575 60.1433 44.3816C59.9544 45.1065 59.685 45.8078 59.34 46.4725L58.9448 47.1876H52.627C53.4111 46.281 53.8043 44.9935 53.8064 43.325C53.848 42.5677 53.6059 41.822 53.1274 41.234C52.8699 40.9684 52.5578 40.762 52.2127 40.6292C51.8676 40.4963 51.4977 40.4402 51.1288 40.4647C48.7211 40.4647 47.2931 41.8001 46.8447 44.471L45.5952 51.6918C45.4771 52.2922 45.4173 52.9027 45.4167 53.5146C45.4167 55.0873 46.356 55.8747 48.2345 55.8769C50.4977 55.8769 51.8545 54.6 52.3051 52.0462H58.7312L58.5527 53.0837C57.6007 58.6509 53.8287 61.4345 47.2368 61.4345Z" fill="#FF5710"/>
<path d="M73.0466 34.939C78.7843 34.939 81.6531 37.2874 81.6531 41.9842C81.6477 42.8413 81.5645 43.6961 81.4045 44.538L80.1549 51.6886C79.5854 55.0021 78.3476 57.457 76.4414 59.0531C74.5352 60.6492 71.8577 61.4484 68.4087 61.4505C64.9576 61.4505 62.5542 60.6514 61.1984 59.0531C60.2697 57.9592 59.8054 56.4461 59.8054 54.5138C59.8143 53.5652 59.9104 52.6195 60.0923 51.6886L61.3418 44.538C62.4596 38.1387 66.3612 34.939 73.0466 34.939ZM69.3713 55.8928C70.4099 55.9487 71.4322 55.6165 72.2402 54.9606C72.9542 54.3414 73.4536 53.1975 73.7383 51.529L74.9528 44.6657C75.0184 44.2431 75.0535 43.8164 75.058 43.3888C75.058 41.4564 74.0826 40.4903 72.1318 40.4903C69.6795 40.5392 68.2153 41.9342 67.7393 44.6753L66.528 51.5386C66.4309 52.1541 66.3829 52.7765 66.3846 53.3997C66.3761 55.0596 67.3717 55.8907 69.3713 55.8928Z" fill="#FF5710"/>
<path d="M94.6106 34.939C100.348 34.939 103.217 37.2874 103.217 41.9842C103.212 42.8413 103.128 43.6961 102.968 44.538L101.719 51.6886C101.145 55.0021 99.9073 57.457 98.0054 59.0531C96.1035 60.6492 93.4259 61.4484 89.9727 61.4505C86.5195 61.4505 84.116 60.6514 82.7624 59.0531C81.8316 57.9592 81.3673 56.4461 81.3694 54.5138C81.3771 53.5653 81.4721 52.6196 81.6531 51.6886L82.9026 44.538C84.0204 38.1387 87.9231 34.939 94.6106 34.939ZM90.9321 55.8928C91.9707 55.9487 92.993 55.6165 93.801 54.9606C94.515 54.3414 95.0154 53.1975 95.3023 51.529L96.5168 44.6657C96.5824 44.2431 96.6176 43.8164 96.622 43.3888C96.622 41.4564 95.6466 40.4903 93.6958 40.4903C91.2435 40.5392 89.7793 41.9342 89.3033 44.6753L88.0888 51.5386C87.9917 52.1541 87.9437 52.7765 87.9454 53.3997C87.9369 55.0596 88.9325 55.8907 90.9321 55.8928Z" fill="#FF5710"/>
<path d="M127.204 35.1912L119.031 48.1677L122.671 60.9366H115.884L113.207 51.4971H110.386L108.709 60.9366H102.286L106.819 35.1944H113.245L111.355 45.9203H113.653L120.436 35.1944L127.204 35.1912Z" fill="#FF5710"/>
<path d="M49.315 84.6645C45.6132 84.6645 43.7623 83.3769 43.7623 80.8019C43.716 79.6776 44.0887 78.5763 44.8078 77.7118C45.1154 77.3321 45.5043 77.0266 45.9457 76.8178C46.3871 76.6089 46.8697 76.5021 47.3579 76.5051V76.4349C47.0253 76.4377 46.6981 76.3501 46.4113 76.1814C46.1245 76.0128 45.8887 75.7694 45.729 75.4772C45.326 74.8296 45.1189 74.079 45.1329 73.3161C45.1156 72.5295 45.2808 71.7497 45.6154 71.0379C45.95 70.3261 46.445 69.7018 47.0614 69.214C48.3364 68.15 50.1268 67.6179 52.4325 67.6179C54.2048 67.6179 55.5499 67.9371 56.4584 68.6203C56.8987 68.9308 57.2545 69.3467 57.4933 69.8301C57.7322 70.3135 57.8465 70.849 57.8259 71.388C57.8284 71.8007 57.7704 72.2115 57.6538 72.6074C57.5782 72.8998 57.4577 73.1788 57.2967 73.4342L57.1119 73.664H53.0573C53.2235 73.4859 53.352 73.2757 53.4347 73.0463C53.5174 72.8169 53.5528 72.5731 53.5386 72.3297C53.5386 71.5635 52.9499 71.1805 51.7727 71.1805C51.1177 71.1549 50.4749 71.3631 49.9589 71.7678C49.7354 71.939 49.5548 72.1599 49.4314 72.4132C49.308 72.6664 49.2452 72.9449 49.2481 73.2267C49.2358 73.4861 49.2786 73.7451 49.3737 73.9866C49.4687 74.2282 49.6139 74.4469 49.7995 74.6281C50.2146 75.0002 50.7568 75.198 51.3136 75.1803H58.3582L57.8992 77.6862H56.8887L56.6369 79.0876C56.3012 80.9583 55.4947 82.3533 54.2175 83.2727C52.9404 84.192 51.3062 84.656 49.315 84.6645ZM48.0783 79.5824C48.0717 79.7889 48.1116 79.9942 48.1949 80.1831C48.2782 80.3721 48.4028 80.5399 48.5596 80.6742C48.917 80.9701 49.3714 81.1225 49.8346 81.1019C51.5347 81.1019 52.4984 80.4348 52.7257 79.1004L52.9776 77.699H50.3638C48.8401 77.699 48.0783 78.3268 48.0783 79.5824Z" fill="#FF5710"/>
<path d="M69.6964 72.9649C71.2115 72.9649 72.2741 73.3905 72.884 74.2418C73.3533 74.8708 73.596 75.6405 73.5725 76.4253C73.5705 76.7953 73.5321 77.1642 73.4577 77.5266L72.9987 80.1027C72.9035 80.7754 72.6745 81.422 72.3252 82.0044C71.9758 82.5867 71.5133 83.0928 70.965 83.4929C69.8706 84.2824 68.4893 84.6772 66.8212 84.6772C65.153 84.6772 63.878 84.3474 62.9961 83.6876C62.6527 83.4402 62.3761 83.111 62.1914 82.7298C62.0066 82.3486 61.9195 81.9274 61.9378 81.5041C61.9398 81.2493 61.9632 80.9952 62.0079 80.7444L64.4401 66.9092H68.3417L67.1718 73.6129C67.9328 73.1563 68.8099 72.9312 69.6964 72.9649ZM69.4892 77.8586C69.507 77.6868 69.5145 77.5142 69.5115 77.3415C69.4958 77.0792 69.3951 76.8293 69.2246 76.6296C69.0334 76.3774 68.6222 76.2497 67.9847 76.2497C67.7276 76.2253 67.4684 76.265 67.2304 76.3653C66.9924 76.4656 66.7828 76.6233 66.6204 76.8243L65.9542 80.655C66.0444 80.8794 66.2053 81.0681 66.4124 81.1926C66.6195 81.317 66.8615 81.3704 67.1017 81.3445C68.2811 81.3445 68.9771 80.754 69.1896 79.5728L69.4892 77.8586Z" fill="#FF5710"/>
<path d="M84.2924 80.8018C84.2815 80.8839 84.2899 80.9674 84.3168 81.0457C84.3438 81.124 84.3886 81.1949 84.4477 81.2528C84.5068 81.3108 84.5785 81.3541 84.6572 81.3794C84.736 81.4048 84.8195 81.4114 84.9012 81.3988C85.2552 81.4107 85.6064 81.3316 85.9212 81.1689L85.8065 83.7674C85.113 84.3506 84.2353 84.6685 83.3297 84.6644C81.6467 84.6644 80.7127 84.0515 80.5279 82.8257C80.1848 83.4094 79.6898 83.8888 79.0958 84.2127C78.5018 84.5365 77.8311 84.6927 77.1554 84.6644C74.6457 84.6644 73.3909 83.5833 73.3909 81.4211C73.3946 81.0132 73.433 80.6063 73.5056 80.2049L73.9869 77.5138C74.1684 76.2578 74.7616 75.0978 75.6732 74.2163C76.6167 73.3725 77.8521 72.9315 79.1158 72.9873C80.5311 72.9873 81.4873 73.316 81.9846 73.9736L82.0993 73.2873H85.6025L84.3274 80.5273C84.3077 80.6176 84.296 80.7095 84.2924 80.8018ZM77.4997 79.6973C77.4634 79.8866 77.4474 80.0792 77.4518 80.2719C77.4588 80.4094 77.4928 80.5442 77.5519 80.6686C77.611 80.7929 77.694 80.9044 77.7961 80.9966C77.956 81.1305 78.141 81.2312 78.3402 81.2926C78.5395 81.3539 78.749 81.3749 78.9564 81.3541C79.2237 81.3552 79.4881 81.2988 79.7318 81.1887C79.9754 81.0785 80.1926 80.9172 80.3685 80.7156L81.057 76.853C80.888 76.4732 80.4896 76.2816 79.8616 76.2816C78.6844 76.2816 77.9959 76.8477 77.7961 77.9799L77.4997 79.6973Z" fill="#FF5710"/>
<path d="M96.9598 81.3988C97.2932 81.4079 97.6231 81.3286 97.9161 81.169L97.8013 83.7675C97.0577 84.3742 96.1208 84.6926 95.162 84.6645C94.1229 84.6645 93.3547 84.3878 92.8574 83.8345C92.3601 83.2812 91.9734 82.3544 91.6971 81.0541L91.6302 80.7349C91.3114 80.7827 90.8269 80.821 90.183 80.8498L89.5646 84.3612H85.6471L88.7231 66.9156H92.6151L91.2859 74.478C92.1869 73.4821 93.411 72.9841 94.958 72.9841C95.9972 72.9841 96.7654 73.2405 97.2626 73.7534C97.5169 74.0294 97.7138 74.3533 97.8418 74.7063C97.9699 75.0592 98.0265 75.4341 98.0085 75.8092C98.0085 77.467 97.1447 78.762 95.417 79.6942L95.6688 80.5465C95.8431 81.1147 96.2734 81.3988 96.9598 81.3988ZM92.9913 76.0901C92.1625 76.0901 91.4294 76.4796 90.7855 77.2617L90.5336 78.778C92.7989 78.6886 93.9316 78.0842 93.9316 76.9648C93.938 76.8473 93.9197 76.7299 93.878 76.6199C93.8362 76.5099 93.772 76.4099 93.6894 76.3264C93.5951 76.2416 93.4846 76.177 93.3646 76.1364C93.2446 76.0958 93.1175 76.08 92.9913 76.0901Z" fill="#FF5710"/>
<path d="M103.042 84.6644C99.8542 84.6644 98.2604 83.561 98.2604 81.3541C98.2621 81.0223 98.292 80.6913 98.3496 80.3645L98.8341 77.5138C98.9295 76.8416 99.1582 76.1953 99.507 75.6131C99.8557 75.0308 100.317 74.5244 100.865 74.1237C101.959 73.3341 103.408 72.9404 105.212 72.9426C108.29 72.9426 109.827 74.1067 109.825 76.4349C109.823 76.8048 109.793 77.174 109.736 77.5394L109.458 79.1706H102.446L102.353 79.6974C102.325 79.8652 102.311 80.0348 102.309 80.2049C102.309 81.0562 102.806 81.4818 103.8 81.4818C104.151 81.4939 104.494 81.3704 104.757 81.137C105.003 80.9341 105.166 80.6479 105.216 80.3326L109.041 80.3773C108.531 83.2354 106.531 84.6644 103.042 84.6644ZM105.796 77.7692C105.854 77.5319 105.885 77.2888 105.888 77.0446C105.875 76.7887 105.769 76.5466 105.589 76.3646C105.464 76.2402 105.314 76.1447 105.149 76.0851C104.984 76.0255 104.807 76.0032 104.632 76.0199C104.195 76.0205 103.772 76.1753 103.437 76.4572C103.048 76.7977 102.785 77.2601 102.691 77.7692H105.796Z" fill="#FF5710"/>
<path d="M109.446 83.0077C109.446 82.0288 109.658 81.3126 110.083 80.8593C110.51 80.406 111.189 80.1826 112.123 80.1826C113.398 80.1826 114.036 80.7487 114.036 81.8808C114.036 82.8492 113.823 83.5546 113.398 83.9973C112.973 84.44 112.289 84.6623 111.345 84.6645C110.077 84.6645 109.443 84.1122 109.446 83.0077ZM113.908 78.3183H110.854L112.509 66.1623H116.41L113.908 78.3183Z" fill="#FF5710"/>
<path d="M19.4634 51.4844L19.2339 51.9855C19.336 51.8315 19.4135 51.6624 19.4634 51.4844Z" fill="#5A5A5A"/>
<path d="M24.4009 22.467C24.3346 22.4685 24.2684 22.4632 24.2032 22.451C24.2679 22.4662 24.3346 22.4716 24.4009 22.467Z" fill="#5A5A5A"/>
<path d="M3.74219 63.9436V63.9149L3.78044 63.7808L3.74219 63.9436Z" fill="#5A5A5A"/>
<path d="M20.3368 44.8477C19.8841 46.5971 19.4634 48.0112 19.0394 49.2434C18.6708 50.369 18.2322 51.4703 17.7261 52.541C17.2225 53.5146 16.6328 54.3733 15.6191 54.8586C14.9963 55.135 14.3511 55.3582 13.6906 55.5257L11.2107 56.26L8.58096 57.0165C8.09823 57.1438 7.62439 57.3026 7.16249 57.4922C6.89109 57.615 6.63621 57.7716 6.40385 57.9582C6.16316 58.1544 5.95452 58.3871 5.78545 58.6477C5.51674 59.0856 5.29351 59.5498 5.11925 60.0332C4.94075 60.4769 4.78455 60.9142 4.62517 61.3484C4.30641 62.2198 4.03228 63.0785 3.75178 63.9021C3.33739 65.5334 2.3078 68.3042 1.77547 70.2036L1.45672 70.9027C1.26791 71.5925 1.03255 72.2687 0.752264 72.9266V72.8819C0.605635 73.3735 0.411199 73.8109 0.219944 74.328C0.128723 74.5759 0.0635521 74.8327 0.0254964 75.0941C-0.00203877 75.3061 -0.00203877 75.5207 0.0254964 75.7326L0 75.6751C0.0620865 76.203 0.262199 76.7052 0.580132 77.1308C0.522756 77.0701 0.46857 77.0031 0.414381 76.9361C0.69464 77.3484 1.02317 77.7256 1.39297 78.0597C1.72767 78.379 2.05918 78.6982 2.39068 79.0014L3.40752 79.8697C3.74859 80.141 4.09604 80.3964 4.42117 80.6518L4.3638 80.4986C5.45556 81.3373 6.63051 82.0615 7.87013 82.6597C8.90291 83.1832 9.92612 83.6174 11.3765 84.2558H11.3287C13.2412 84.8655 14.7139 85.3508 16.228 85.8168C17.8831 86.3395 19.5709 86.7522 21.2803 87.0522C20.7798 86.966 21.4811 87.1416 21.4365 87.1544C21.8987 87.2502 22.3449 87.3523 22.8103 87.4449C23.25 87.5345 23.6972 87.5826 24.1459 87.5885C24.494 87.5927 24.8406 87.541 25.1723 87.4353C25.4241 87.3459 25.558 87.2501 25.5484 87.2086C25.8263 87.098 26.0854 86.9451 26.3167 86.7554C26.4328 86.6594 26.5396 86.5525 26.6354 86.4361C26.7438 86.3053 26.7534 86.3404 26.8362 86.251C26.8861 85.9928 26.9521 85.738 27.0339 85.488C27.1231 85.1497 27.3909 84.607 27.5917 84.1122C27.5407 84.2686 27.4769 84.4314 27.4196 84.5782C27.8276 83.6206 28.1814 82.6629 28.5033 81.7052C28.3918 81.8808 28.2866 82.0532 28.1846 82.2256C28.752 80.7061 28.5033 81.9064 28.9464 80.406H28.8285C29.5297 78.2768 30.0557 77.0606 30.6868 74.9792C31.2606 72.7957 31.7547 70.5484 32.1467 68.2755C32.2392 67.7009 32.3316 67.1263 32.4017 66.5421L32.5133 65.6962C32.5516 65.4121 32.593 65.1216 32.6249 64.8215C32.7138 64.1824 32.6792 63.5322 32.5229 62.9062C32.4721 62.7405 32.4103 62.5784 32.338 62.421L32.0957 61.99L31.8025 61.5878L31.4646 61.2334C31.0045 60.8154 30.4858 60.467 29.925 60.1992C29.3927 59.931 28.8635 59.7107 28.3631 59.4777C27.8735 59.2647 27.405 59.0061 26.9637 58.7052C26.5496 58.4171 26.1893 58.0583 25.8991 57.6454C25.3265 56.791 24.9558 55.8172 24.8153 54.7979C24.6569 53.7803 24.6077 52.7487 24.6687 51.7206L24.7643 51.3631C24.9046 51.213 24.6751 49.0679 24.8312 48.7582V47.8005C24.8727 47.5324 24.9556 46.9674 24.9364 47.4462C24.9945 46.931 25.0265 46.4132 25.0321 45.8948L25.2265 44.9562C25.6679 41.5796 26.3432 38.2378 27.2474 34.955C27.7351 33.3972 28.3503 31.3254 29.0006 29.0941L29.976 25.6656L31.1108 21.554H30.0397H29.501H29.1185C28.7328 21.554 28.3248 21.5189 27.9296 21.5189C27.5343 21.5189 27.1709 21.5189 26.7884 21.5189L25.7684 21.5667L25.1309 21.5891H24.8121H24.5954C24.5466 21.5939 24.4975 21.5939 24.4487 21.5891C24.4035 21.5669 24.3675 21.5296 24.3467 21.4837C24.3074 21.3889 24.2953 21.285 24.3117 21.1837C24.3563 20.8389 24.5093 20.3793 24.6304 19.9515C24.7516 19.5237 24.8695 19.0832 24.9906 18.6459C25.4815 16.8997 26.0011 15.1344 26.5207 13.334C27.0402 11.5336 27.5598 9.75867 28.0539 7.99655C28.3057 7.13784 28.5862 6.33343 29.058 5.79394C29.5767 5.25106 30.2718 4.91146 31.0183 4.83627C31.1235 4.83627 31.3116 4.80753 31.4742 4.78519C31.575 4.77734 31.6751 4.7624 31.7738 4.74049C32.2639 4.71262 32.7555 4.72651 33.2433 4.78199C33.4141 4.81107 33.5739 4.88612 33.7055 4.99908C33.8379 5.12017 33.9396 5.27121 34.0019 5.43961C34.1509 5.87329 34.2127 6.33222 34.1836 6.78992C34.1836 7.27514 34.0912 7.79864 34.0274 8.32217C34.0274 8.32217 33.782 10.2375 33.2592 12.6924C32.717 15.3126 32.0317 17.9011 31.2064 20.4463C31.1171 20.7304 31.0183 20.9953 30.9291 21.2539C30.8813 21.4359 30.8175 21.4646 30.6103 21.5987C30.2827 21.7841 29.9338 21.9288 29.5712 22.0296C29.452 22.0647 29.3306 22.0913 29.2078 22.1094C29.1581 22.1024 29.1077 22.1024 29.058 22.1094L29.0325 22.1414L29.0643 22.1094H29.0484C29.034 22.1043 29.0182 22.1043 29.0038 22.1094C28.9847 22.1094 28.9847 22.1382 29.0038 22.1861C28.9719 22.2371 29.2014 22.3488 29.5807 22.3233C29.811 22.3081 30.0393 22.2718 30.2629 22.2148C30.5735 22.1409 30.8712 22.0204 31.1458 21.8572C31.1896 21.8299 31.2303 21.7978 31.267 21.7615C31.3092 21.7292 31.3449 21.6891 31.3722 21.6434C31.4239 21.5534 31.4708 21.4607 31.5124 21.3656C31.5953 21.1837 31.6845 20.9954 31.7738 20.7911C31.9523 20.3824 32.1404 19.9323 32.3348 19.428C32.7205 18.4256 33.1413 17.2253 33.5748 15.8048V15.9676C34.0529 14.2693 34.3749 12.8647 34.6203 11.5878C34.8586 10.3778 35.0193 9.15372 35.1016 7.92314C35.2799 7.35173 35.3342 6.74881 35.261 6.15467C35.2347 5.71293 35.1266 5.27993 34.9422 4.87777C34.7753 4.53337 34.5229 4.23766 34.2091 4.01904L34.3047 4.06694C34.0078 3.88561 33.6727 3.7763 33.3261 3.74771C33.0338 3.71941 32.74 3.70769 32.4464 3.7126C31.8759 3.69998 31.3053 3.72343 30.7378 3.78282C30.1276 3.84702 29.5378 4.03957 29.007 4.34785C28.4791 4.66717 28.0525 5.12983 27.7766 5.68219C27.8353 5.45619 27.9518 5.24938 28.1144 5.08204C27.6083 5.77946 27.2424 6.56875 27.037 7.406C26.9404 7.83679 26.8016 8.25702 26.6227 8.66056C25.7142 12.1305 24.369 16.9604 23.926 19.2173V19.0577C23.808 19.6961 23.7028 20.1111 23.5849 20.5452C23.553 20.6634 23.5211 20.7847 23.4956 20.9187C23.4956 20.989 23.4765 21.04 23.467 21.1422C23.4605 21.2389 23.4605 21.336 23.467 21.4327C23.4724 21.6447 23.5304 21.8521 23.6359 22.036C23.6954 22.1369 23.7733 22.2256 23.8654 22.2978C23.9128 22.3372 23.9683 22.3656 24.028 22.3808C24.088 22.4024 24.1499 22.4184 24.2129 22.4287C24.318 22.4702 24.4774 22.4829 24.4519 22.4861H24.6623H24.8249H25.1436L25.8321 22.4606C26.3071 22.4606 26.8299 22.4159 27.3112 22.4223C27.7925 22.4287 28.2866 22.4414 28.7233 22.4702C28.94 22.4702 29.1759 22.4925 29.3353 22.4957C29.4309 22.4957 29.5202 22.4957 29.5999 22.4957C29.6014 22.518 29.6014 22.5404 29.5999 22.5627H29.8039C29.8039 22.6425 29.7592 22.7319 29.7369 22.8181L29.6477 23.1373L29.3289 24.2865L29.6477 23.2714C29.7242 23.6768 28.9432 25.3048 28.481 27.3128C27.9168 29.1579 27.7479 31.1754 27.1136 33.0588C26.9382 34.0165 27.206 32.2129 26.884 33.6047C26.7789 33.6238 27.0052 32.9471 26.833 33.2855C26.5143 34.6517 26.1158 35.4785 25.7556 37.18L25.6664 37.2311C25.252 39.4656 24.6368 41.381 24.5252 42.9069C24.4551 43.491 24.3882 43.8645 24.3308 44.1646C24.2734 44.4646 24.2288 44.6498 24.181 44.8477C24.0264 45.5133 23.9505 46.1947 23.9547 46.878C23.8941 47.1972 23.824 47.5164 23.7698 47.8165C23.6837 48.8572 23.8367 48.5699 23.7188 49.7319C23.6582 49.6584 23.6008 51.1875 23.5721 50.5075C23.4328 51.8905 23.4756 53.2857 23.6996 54.6574C23.8308 55.4377 24.0445 56.2018 24.3372 56.9367C24.6662 57.7812 25.1629 58.55 25.7971 59.1968C26.2675 59.5347 26.7606 59.8397 27.2729 60.1098C27.707 60.3421 28.1602 60.5365 28.6277 60.6908C28.6595 60.7387 29.4405 61.0834 29.9027 61.3803C30.0206 61.4569 30.1258 61.524 30.2023 61.5814C30.2497 61.6163 30.2945 61.6547 30.3362 61.6963C30.3553 61.7346 30.2501 61.658 29.8581 61.4569C29.7331 61.4012 29.6153 61.3304 29.5074 61.2462L29.2779 61.2143C29.6444 61.4234 29.9979 61.6547 30.3362 61.907C30.6214 62.127 30.8755 62.3848 31.0916 62.6731C31.1838 62.8173 31.2679 62.9665 31.3435 63.1201C31.4075 63.2804 31.4535 63.4475 31.4805 63.6181C31.5336 64.0288 31.525 64.4452 31.455 64.8535C31.5634 64.3108 31.5347 63.6563 31.5889 64.1001C31.5496 64.675 31.4783 65.2473 31.3753 65.8143V65.4312L31.1713 66.756C31.1076 67.187 31.0215 67.6211 30.9482 68.0552L31.0821 67.7073C30.8207 68.9842 30.6071 69.3992 30.4095 70.8548C30.3298 71.5188 30.7729 69.6737 30.5051 71.0208C30.0876 72.7095 29.3959 75.2282 28.7583 77.351C28.8986 77.1755 28.7328 77.7501 28.5766 78.3438L28.4842 78.3917C28.1941 79.5345 28.0858 79.7261 27.9774 79.9144C27.869 80.1027 27.7734 80.2943 27.4323 81.4052L27.4482 81.1945L27.3972 81.8329C27.2714 82.3664 27.0775 82.8814 26.8203 83.3652C26.7275 83.5366 26.6456 83.7135 26.5748 83.8951C26.5207 84.0164 26.4633 84.1633 26.3932 84.3484L26.2784 84.6676L26.2051 84.8719C26.1764 84.9486 26.1541 85.0284 26.1318 85.1082C26.1666 84.9989 26.2092 84.8922 26.2593 84.7889C26.2833 84.7401 26.311 84.6931 26.3422 84.6485C26.3804 84.5942 26.3963 84.6134 26.3836 84.6868C26.3476 84.8348 26.304 84.9807 26.2529 85.1241C26.1939 85.3514 26.1194 85.5743 26.0298 85.7913L26.0521 85.5263C26.0079 85.7021 25.9392 85.8709 25.8481 86.0275C25.819 86.0728 25.7823 86.1128 25.7397 86.1456C25.6851 86.1947 25.6253 86.2376 25.5612 86.2733C25.6728 86.1808 25.6759 86.1265 25.6026 86.168C25.415 86.2658 25.2186 86.346 25.0161 86.4074C25.1549 86.3432 25.2837 86.2594 25.3986 86.1584C25.0042 86.4121 24.5409 86.537 24.0726 86.516C23.7538 86.4777 23.4128 86.4106 23.0366 86.3276L21.8668 86.0626C21.2991 85.9518 20.739 85.8047 20.1901 85.6221L18.6983 85.2455C17.911 85.0443 17.044 84.8368 16.7093 84.7953C17.2894 84.8847 15.753 84.4282 16.2152 84.4761C15.8423 84.4187 15.1251 84.2303 14.3951 84.0228C13.7619 83.8415 13.1421 83.6164 12.5399 83.3493L12.7025 83.4003C11.1788 82.8098 9.89743 82.2735 8.68615 81.6893C7.44809 81.1115 6.27753 80.3984 5.19575 79.5633C5.24994 79.7133 4.05141 78.7588 4.28729 79.0716C3.71743 78.6397 3.17946 78.1671 2.67756 77.6575C2.44487 77.4181 2.19943 77.1914 2.01136 76.9648C1.83699 76.7675 1.68219 76.5536 1.54916 76.3263C1.35746 75.9992 1.28535 75.6155 1.34516 75.241C1.39616 74.8994 1.50134 74.561 1.52684 74.2833C2.04323 72.9521 2.20261 72.7383 2.48312 72.0487L2.3843 72.368C3.21626 69.8652 3.45852 69.1406 4.07373 67.2796C4.34786 66.3442 4.24266 66.1463 4.83236 64.5055C4.71442 65.0609 4.9248 64.381 5.15112 63.7617C5.0268 64.1607 5.00768 64.2884 5.32325 63.4936C5.35309 63.3363 5.3914 63.1806 5.43801 63.0275C5.43801 63.0275 5.46032 62.9892 5.46032 63.0083C5.7982 61.9773 5.7217 62.1496 5.5432 62.6221C5.5432 62.5933 5.5177 62.6221 5.44757 62.7721C5.6707 62.2518 5.93846 61.5144 6.17434 60.9015C6.29588 60.5057 6.47757 60.1309 6.71304 59.7905C6.84319 59.488 7.03668 59.2169 7.28043 58.9957C7.53178 58.7974 7.81538 58.6441 8.11877 58.5424C8.43752 58.4243 8.77541 58.3253 9.10373 58.2232L10.06 57.904C11.335 57.4986 12.5399 57.1091 13.8405 56.7101C14.1592 56.6782 13.5536 56.9016 12.7981 57.1442L14.6533 56.5856C14.6533 56.6686 13.5982 56.9399 13.0308 57.1218C13.5918 56.991 14.1529 56.841 14.7298 56.6654C15.3484 56.4929 15.9436 56.2453 16.5021 55.928C17.0976 55.5703 17.6147 55.0958 18.0226 54.5329C18.4299 53.9717 18.7852 53.3744 19.084 52.7485C19.1446 52.5634 19.1988 52.3782 19.253 52.1931L19.3231 52.043C19.3871 51.7113 19.4756 51.3848 19.5877 51.0662C19.7789 50.7246 19.7375 51.1492 20.1742 49.8691C20.6539 48.4728 21.0394 47.0459 21.3281 45.5979C21.1273 46.3225 21.1528 46.0767 21.207 45.7607C21.3791 45.1222 21.5257 44.7488 21.6245 44.238L21.7297 44.1965C21.6564 44.3146 21.7297 43.8773 21.8317 43.3888C21.9337 42.9004 22.0357 42.3386 22.0453 42.2141C22.1951 41.8566 21.8795 43.2452 21.8923 43.4176C22.4661 40.7872 22.1855 42.1056 22.7242 39.4688C22.9346 38.0483 22.584 39.7082 22.6382 39.0187C22.8677 37.7737 23.0366 36.5511 23.365 35.1337L23.196 35.5711C23.5785 33.2248 23.8558 31.833 24.2479 30.2784C24.9428 25.9114 25.3763 23.498 25.5229 22.3201C25.6696 21.1422 25.5739 21.2092 25.3476 21.8094C25.1213 22.4095 24.7866 23.5683 24.5316 24.5738L24.2129 25.8795L24.0854 26.4349C23.2661 29.8346 22.7944 32.4395 22.3099 35.2008C21.8254 37.9621 21.2771 40.8383 20.3368 44.8477Z" fill="#5A5A5A"/>
<path d="M30.8047 6.32383V6.28552C30.8021 6.29815 30.8021 6.3112 30.8047 6.32383Z" fill="#5A5A5A"/>
<path d="M31.0949 5.27676C30.8495 5.19377 30.7156 5.07243 30.5052 5.0022C30.4391 5.049 30.381 5.10613 30.3331 5.1714C30.2697 5.22468 30.21 5.28229 30.1546 5.34379C30.1356 5.3602 30.1194 5.37959 30.1067 5.40123L30.0653 5.4619C30.0688 5.48089 30.0688 5.50038 30.0653 5.51938C30.0462 5.58322 29.9506 5.61194 29.9442 5.7109L29.8836 5.69173C29.8836 5.73642 29.8836 5.77473 29.8262 5.77473C29.788 5.80665 29.6764 5.77472 29.6669 5.80665L29.6509 5.79071C29.6437 5.80837 29.6352 5.82541 29.6254 5.84176L29.6063 5.81943C29.6151 5.84997 29.6126 5.88268 29.5991 5.91147C29.5856 5.94026 29.5621 5.96314 29.533 5.97584L29.6095 6.02374C29.58 6.03366 29.5544 6.0525 29.5361 6.07767C29.5179 6.10283 29.5078 6.13306 29.5075 6.16418C29.4972 6.24121 29.4571 6.31111 29.3959 6.3589H29.3768C29.4061 6.42612 29.4171 6.49993 29.4087 6.57279C29.4087 6.63983 29.3832 6.70687 29.3704 6.7771C29.3547 6.84968 29.3547 6.92476 29.3704 6.99734C29.3839 7.03672 29.4065 7.07236 29.4364 7.10123C29.4664 7.1301 29.5027 7.15137 29.5425 7.16335C29.5011 7.16335 29.517 7.20486 29.4979 7.21443C29.6063 7.31339 29.6828 7.35489 29.7944 7.21443C29.8326 7.24955 29.7944 7.28147 29.7529 7.33574C29.7667 7.3141 29.7882 7.29849 29.813 7.29198C29.8378 7.28547 29.8642 7.28855 29.8868 7.30063H29.8549L29.9569 7.34532L30.0239 7.22082C30.043 7.28467 29.9346 7.36766 29.9984 7.37085L30.0653 7.27511C30.1099 7.33576 30.0653 7.51132 30.0844 7.62624C30.2391 7.72123 30.4199 7.76481 30.6008 7.75075C30.7808 7.73653 30.9612 7.77067 31.1236 7.84968L31.1427 7.93908C31.1586 8.06677 31.2288 7.74115 31.2511 7.85607L31.283 7.79225C31.2989 7.81459 31.3276 7.83693 31.3116 7.86886C31.3499 7.86886 31.3467 7.84648 31.369 7.80179L31.4264 7.87205C31.6049 7.89759 31.6846 7.69965 31.8344 7.65496C31.9094 7.65713 31.9834 7.63825 32.0482 7.60045C32.113 7.56265 32.1659 7.50743 32.201 7.44107C32.2812 7.31809 32.3274 7.17601 32.3349 7.0293C32.3094 6.86011 32.4337 6.76753 32.5357 6.62388C32.6377 6.48023 32.7269 6.30466 32.5962 6.15143C32.6154 6.15143 32.5707 6.11948 32.5548 6.11948C32.5496 6.01885 32.5324 5.91922 32.5038 5.82262C32.4794 5.7489 32.4428 5.67982 32.3954 5.61832C32.3088 5.49234 32.1798 5.4017 32.032 5.36292C32.0013 5.35534 31.9693 5.354 31.938 5.35891C31.9067 5.36382 31.8766 5.37489 31.8496 5.39152C31.8227 5.40816 31.7992 5.43 31.7808 5.45578C31.7623 5.48156 31.7491 5.51077 31.742 5.54171C31.7178 5.75167 31.6398 5.95179 31.5157 6.12267H31.4933C31.4487 6.17694 31.4296 6.17378 31.5762 6.15143C31.4137 6.20889 31.5762 6.18972 31.5157 6.21526C31.6527 6.21526 31.4168 6.27911 31.5157 6.29826C31.5157 6.29826 31.4551 6.29826 31.4519 6.29826C31.4487 6.29826 31.5125 6.34934 31.4105 6.34296C31.436 6.39403 31.3722 6.43552 31.5157 6.5249H31.4902C31.5826 6.58236 31.4902 6.55362 31.5348 6.59831H31.5125C31.5985 6.66535 31.4933 6.66218 31.5125 6.70049L31.4551 6.66538V6.70368H31.4742C31.6145 6.82818 31.369 6.65261 31.4391 6.74838C31.4168 6.74838 31.6336 7.08993 31.5348 7.04843C31.5635 7.13143 31.4774 6.92076 31.4838 6.99099C31.436 6.90799 31.4647 6.93353 31.4168 6.86969C31.4168 6.92076 31.3371 6.80584 31.3403 6.86969L31.3085 6.79943C31.3276 6.94627 31.216 6.72922 31.2351 6.86329C31.2065 6.93033 31.1618 6.64939 31.1587 6.80262L31.13 6.70368C31.114 6.70368 31.13 6.82818 31.1108 6.78029C31.0917 6.73241 31.0885 6.72923 31.0949 6.66857C31.1013 6.60792 31.0184 6.81223 30.9833 6.63666C30.9546 6.75796 30.9387 6.68132 30.91 6.77071C30.91 6.71644 30.8558 6.74835 30.91 6.64301L30.9291 6.57279C30.9291 6.43233 30.8622 6.63344 30.8367 6.6047C30.8367 6.63024 30.8526 6.62708 30.8367 6.67177C30.8367 6.67177 30.8367 6.67175 30.8112 6.6526L30.8367 6.59516L30.8112 6.54727L30.7889 6.62068C30.7889 6.57599 30.8303 6.4515 30.7634 6.54407C30.6964 6.63665 30.7379 6.64621 30.706 6.65579C30.7013 6.59237 30.6917 6.52941 30.6773 6.46746C30.6327 6.54088 30.6263 6.53449 30.6072 6.54088L30.6486 6.47705C30.5562 6.54408 30.7283 6.33338 30.6486 6.38126L30.6805 6.33976L30.5785 6.46107C30.4574 6.55684 30.6614 6.327 30.502 6.46107C30.5243 6.46107 30.4032 6.59516 30.4064 6.55366L30.4574 6.50257C30.4383 6.50257 30.4159 6.52492 30.4191 6.50257C30.4223 6.48022 30.4893 6.42596 30.4733 6.42916L30.5403 6.36529L30.4383 6.45148L30.3841 6.50257L30.3044 6.5696L30.2311 6.62068H30.196H30.2342C30.2575 6.61771 30.2811 6.61771 30.3044 6.62068C30.3511 6.63334 30.397 6.64935 30.4414 6.66857L30.5434 6.71646C30.5785 6.71646 30.6231 6.76115 30.6008 6.74838C30.5785 6.73561 30.5658 6.70688 30.6263 6.71327C30.553 6.66539 30.6072 6.66855 30.5116 6.6079C30.4924 6.54725 30.5562 6.55364 30.6008 6.54088C30.6454 6.52811 30.6295 6.54088 30.5052 6.42276C30.5052 6.39403 30.5753 6.46108 30.5944 6.46746V6.4834C30.5944 6.4419 30.5944 6.42915 30.5944 6.41957C30.5944 6.40999 30.5211 6.28868 30.5084 6.25037C30.4956 6.21206 30.5084 6.25037 30.5084 6.25037C30.5434 6.3206 30.5403 6.30145 30.5403 6.29187C30.5522 6.31801 30.5672 6.34265 30.5849 6.36529L30.5626 6.31744V6.33337C30.5565 6.31167 30.5468 6.29117 30.5339 6.27274L30.5084 6.23443C30.5626 6.30786 30.5084 6.17697 30.5721 6.30785C30.5944 6.2887 30.5721 6.17057 30.6168 6.13546C30.6337 6.17802 30.6413 6.22377 30.6391 6.26954H30.6582C30.6805 6.35573 30.6582 6.31741 30.6582 6.33337C30.6933 6.41318 30.6901 6.3653 30.7028 6.33337C30.7156 6.30145 30.7251 6.2791 30.7443 6.33337V6.26954C30.7376 6.24013 30.7376 6.20957 30.7443 6.18015C30.7443 6.25357 30.7443 6.34615 30.7602 6.34615C30.7602 6.41638 30.7953 6.3174 30.8239 6.28548C30.817 6.26151 30.817 6.23604 30.8239 6.21207C30.8239 6.21207 30.824 6.2823 30.8495 6.25357L30.8303 6.34935C30.8303 6.25997 30.9004 6.26316 30.9132 6.22804C30.9132 6.29827 30.8718 6.28229 30.8558 6.33018H30.9706C31.0248 6.26633 30.9706 6.24079 31.0184 6.16098C31.0566 6.16098 31.1045 6.09394 31.1331 6.16098V6.07802C31.2128 6.02694 31.2511 6.04288 31.2766 6.13865C31.9141 5.56724 31.573 5.24161 31.573 5.24161C31.4997 5.0437 31.3595 5.26399 31.0949 5.27676Z" fill="#5A5A5A"/>
<path d="M7.82548 67.0529L7.75854 67.1135C7.75854 67.1135 7.80636 67.1071 7.82548 67.0529Z" fill="#5A5A5A"/>
<path d="M11.2171 64.3969C11.2156 64.3906 11.2156 64.384 11.2171 64.3777C11.2171 64.3777 11.2139 64.3969 11.2171 64.3969Z" fill="#5A5A5A"/>
<path d="M7.29006 65.6738C6.77367 66.6634 6.49954 66.8581 6.06603 67.9307C5.8174 68.4223 5.60064 68.9682 5.38707 69.463C5.38707 69.7471 5.08743 70.1014 5.05237 70.4207L4.93762 70.4973C4.9306 70.6141 4.88711 70.7258 4.8133 70.8165H4.79737C4.76304 70.9579 4.72154 71.0975 4.67305 71.2347L4.65711 71.2187L4.59018 71.4134L4.57423 71.3687C4.51822 71.6604 4.44045 71.9475 4.34155 72.2275H4.4308C4.33953 72.4499 4.29818 72.6896 4.30967 72.9298C4.32212 73.1616 4.32212 73.3939 4.30967 73.6257H4.28735C4.36131 73.7908 4.42518 73.9603 4.47861 74.1332C4.533 74.2929 4.59578 74.4495 4.66668 74.6025C4.73887 74.7582 4.83817 74.8998 4.95994 75.0207C5.02928 75.0894 5.10754 75.1484 5.19262 75.1962C5.23725 75.2186 5.30101 75.2537 5.36476 75.2792L5.55282 75.3303C5.42213 75.3016 5.58789 75.3942 5.57195 75.4101C5.79177 75.4862 6.02921 75.495 6.25409 75.4356C6.43579 75.3814 6.53141 75.2792 6.49953 75.1994C6.77367 75.059 6.74179 75.1101 6.81829 75.1452C6.79598 75.1133 6.83741 75.0494 6.89479 74.9632C6.95217 74.877 7.01274 74.7908 7.0733 74.7047L7.0478 74.7845L7.30918 74.3886H7.14024C7.32193 74.2131 7.31874 74.4429 7.43349 74.229L7.33468 74.1619C7.56769 73.9566 7.81716 73.7709 8.08057 73.6065C8.92209 72.4733 9.40661 71.0272 10.1684 69.961H10.2736C10.4043 69.9993 10.2577 69.5556 10.3852 69.562V69.3992C10.4234 69.3736 10.484 69.3002 10.4776 69.3992C10.522 69.3253 10.5421 69.2393 10.535 69.1534L10.6689 69.0512C10.9526 68.5723 10.9877 68.0776 11.2363 67.5508C11.6507 66.9603 11.9375 65.6578 12.0555 64.9077C12.1482 64.3523 12.3099 63.8108 12.5368 63.2956C12.6487 63.0159 12.7382 62.7276 12.8046 62.4337C12.8796 62.0899 12.8587 61.7321 12.744 61.3994C12.7424 61.3683 12.7346 61.3378 12.7209 61.3098C12.7072 61.2818 12.6879 61.2569 12.6643 61.2366C12.5932 60.9946 12.4615 60.7749 12.2818 60.5982C12.0936 60.4089 11.8562 60.2762 11.5965 60.2151C11.4993 60.1918 11.3999 60.179 11.3 60.1768C11.0676 60.1692 10.8358 60.2071 10.6179 60.2885C10.3554 60.3862 10.1172 60.5398 9.91981 60.7386C9.7495 60.9089 9.60553 61.1036 9.49268 61.3164C9.30461 61.6771 9.25998 61.9549 9.41299 61.9549C9.56296 61.9448 9.70684 61.8916 9.82737 61.8016C10.089 61.6262 10.3718 61.4847 10.6689 61.3803V61.4154C10.8037 61.3507 10.9461 61.3035 11.0928 61.2749C11.2007 61.2498 11.3071 61.2189 11.4116 61.1824C11.4078 61.1954 11.4067 61.209 11.4083 61.2224C11.41 61.2359 11.4144 61.2489 11.4213 61.2605C11.4282 61.2722 11.4374 61.2823 11.4483 61.2903C11.4592 61.2983 11.4717 61.3039 11.4849 61.3068C11.5295 61.3068 11.5933 61.3547 11.5869 61.393C11.6857 61.4154 11.7049 61.5271 11.6953 61.6388C11.6717 61.7599 11.6783 61.8849 11.7144 62.0027C11.7144 62.0027 11.6539 62.0028 11.6539 61.9293C11.673 62.1049 11.6539 62.389 11.5614 62.3858C11.5295 62.622 11.4435 62.954 11.3925 63.2413C11.3294 63.4871 11.3078 63.7418 11.3287 63.9947L11.3064 63.9628C11.3638 64.183 11.2554 64.215 11.249 64.4416C11.2331 64.4416 11.2235 64.4608 11.2203 64.4416C11.265 64.6778 11.061 65.0481 11.0514 65.2269H10.9845L10.8697 65.6387L10.9303 65.4919C11.0928 65.6036 10.7231 65.7632 10.7326 66.0952C10.6211 66.3601 10.8952 66.7815 10.7008 67.0337C10.7326 67.2029 10.6147 66.8645 10.6019 67.0911C10.5095 67.0656 10.5796 66.9763 10.4904 67.0018C10.4585 67.2157 10.2736 67.2891 10.2354 67.554L10.1621 67.5349C10.1621 67.9052 9.82418 68.0871 9.8433 68.3457C9.75724 68.6905 9.55005 68.4702 9.52454 68.8597L9.37155 68.9427C9.29186 69.0767 9.43529 69.0991 9.31735 69.2332C9.26635 69.1949 9.18029 69.4055 9.16754 69.2906C8.90297 69.5907 8.94123 70.0631 8.54597 70.4302C8.60015 70.5899 8.41527 70.7814 8.45033 70.8963C8.39614 70.8963 8.18258 71.34 8.22721 71.0304C8.22721 71.0049 8.25589 70.9697 8.27183 70.9825L8.22721 70.9155C7.95945 71.0942 8.02958 71.4134 7.85745 71.6465C7.92439 71.5858 7.97857 71.4869 7.98176 71.5794L7.83194 71.8029L7.80644 71.7199L7.56738 72.0391H7.65982C7.52594 72.1859 7.37294 72.17 7.34106 72.4126C7.34106 72.5307 7.52912 72.3169 7.43349 72.502C7.24861 72.6935 6.96492 72.9745 6.75136 73.233C6.84061 73.2554 6.78642 73.3288 6.75136 73.415L6.68442 73.3799C6.56329 73.7278 6.47404 73.3798 6.33378 73.7182L6.31147 73.664L6.3816 73.83C6.34653 74.0024 6.28915 74.0151 6.23815 74.0343C6.22263 74.0372 6.20787 74.0432 6.19473 74.052C6.18158 74.0608 6.17034 74.0721 6.16165 74.0853C6.15071 74.1056 6.14216 74.127 6.13616 74.1492L6.15846 74.2066C6.15846 74.1683 6.3019 74.2992 6.21903 74.3375C6.20926 74.3132 6.19754 74.2897 6.18397 74.2673C6.18397 74.3024 6.18397 74.3375 6.14572 74.3375C6.14572 74.2897 6.10427 74.2386 6.07877 74.2641C6.07579 74.2316 6.06938 74.1995 6.05965 74.1683C6.06797 74.2195 6.06018 74.2719 6.03734 74.3184C6.00228 74.2801 5.96721 74.2833 5.93534 74.2705C5.92036 74.2659 5.90706 74.257 5.89709 74.2449C5.89709 74.2449 5.89709 74.2226 5.89709 74.1939C5.89709 74.1651 5.75045 74.0023 5.62932 73.9991C5.7122 73.9991 5.65801 73.8683 5.75045 73.8619C5.69124 73.8477 5.63915 73.8126 5.60383 73.7629C5.58726 73.737 5.5774 73.7074 5.57514 73.6767C5.56989 73.6418 5.57545 73.6062 5.59107 73.5746V73.5906C5.61146 73.3996 5.61253 73.2071 5.59426 73.0159C5.56792 72.8395 5.59571 72.6591 5.67395 72.4988C5.58789 72.4988 5.67395 72.3041 5.56558 72.3264C5.56558 71.8795 6.03415 71.6688 5.78233 71.3687C5.84927 71.1708 5.95764 71.1772 6.01821 71.0878V71.1389C6.10755 70.8841 6.21405 70.6356 6.33697 70.3951C6.37203 70.2483 6.23815 70.1589 6.38797 69.9322C6.40709 70.0376 6.44216 69.9322 6.48678 69.846C6.46766 69.9067 6.48678 69.9354 6.57603 69.846C6.56941 69.8188 6.56941 69.7904 6.57603 69.7631C6.57846 69.7617 6.58121 69.7609 6.58401 69.7609C6.58681 69.7609 6.58955 69.7617 6.59198 69.7631C6.64298 69.6035 6.6111 69.6194 6.56966 69.6864C6.56966 69.6864 6.55054 69.6864 6.52185 69.6864C6.67167 69.5651 6.72586 69.2491 6.84061 69.2779C7.03505 68.815 7.08605 68.4415 7.2263 68.0457C7.29643 68.0457 7.29962 68.1382 7.26774 68.2563L7.37612 67.9818C7.44943 68.0169 7.34425 68.1542 7.32194 68.2436C7.58969 67.9818 7.51319 67.5317 7.80007 67.2093L7.77776 67.1039H7.80007C7.7682 67.1039 7.765 66.9858 7.78094 66.9284C7.87019 66.9028 7.92757 67.0018 8.01044 66.8134C8.14114 66.6953 8.1762 66.3857 8.23358 66.175C8.17301 66.2739 8.15389 66.2261 8.15389 66.175C8.15389 66.1239 8.28458 66.0601 8.29095 65.9739L8.3802 66.0058C8.28139 66.0058 8.40571 65.7249 8.3802 65.6866C8.46627 65.6642 8.36427 65.8558 8.40252 65.9005L8.65434 65.3418C8.68303 65.112 8.55553 65.3418 8.52684 65.2078C8.56727 65.0091 8.64633 64.8204 8.75953 64.6523L8.65434 64.6778C8.70904 64.4031 8.8406 64.1496 9.03366 63.9468C9.57237 61.2111 8.43121 63.0306 8.43121 63.0306C7.78732 63.9021 7.77457 64.5023 7.29006 65.6738Z" fill="#5A5A5A"/>
<path d="M15.8359 67.5062L15.7721 67.586C15.7944 67.5892 15.7944 67.5892 15.8359 67.5062Z" fill="#5A5A5A"/>
<path d="M17.3341 68.6649C17.3341 68.6649 17.3341 68.665 17.3341 68.6426C17.3341 68.6203 17.3309 68.6649 17.3341 68.6649Z" fill="#5A5A5A"/>
<path d="M15.1569 66.076C14.7426 67.2763 14.4844 67.5445 14.121 68.8054C13.901 69.3928 13.7098 70.0312 13.509 70.609C13.509 70.9282 13.2221 71.3592 13.1902 71.7199L13.0723 71.8157C13.0688 71.9444 13.0266 72.069 12.9511 72.1732H12.9352C12.8998 72.3255 12.8562 72.4758 12.8045 72.6233H12.7854L12.7121 72.8276V72.7797C12.6455 73.0762 12.5383 73.362 12.3933 73.6289H12.4826C12.1638 74.1396 12.2276 74.4142 11.8961 74.8611H11.8801C11.8335 75.1682 11.7156 75.4602 11.5359 75.7134C11.3399 76.0039 11.2417 76.3495 11.2554 76.6998C11.2554 76.5913 11.2012 76.7349 11.182 76.7221C11.1247 77.1212 11.182 77.5809 11.3542 77.5617C11.3956 77.8618 11.3542 77.8203 11.2904 77.8809C11.3637 77.8809 11.4625 78.1139 11.5805 78.3151L11.5072 78.2321C11.6121 78.4318 11.7476 78.6138 11.9088 78.7716C11.9088 78.7077 11.9088 78.6407 11.9311 78.58C12.0236 78.7205 12.0172 78.762 12.0044 78.8035C11.9917 78.845 12.0044 78.8769 12.1415 78.9727L12.2084 78.8769C12.3752 79.0231 12.5544 79.1544 12.744 79.2695C12.9718 79.4032 13.2376 79.4571 13.4994 79.4228C13.792 79.3448 14.0577 79.188 14.2676 78.9695C14.4445 78.7857 14.5938 78.577 14.7107 78.3502C14.9243 77.9288 15.0295 77.5649 15.2016 77.1818C15.4735 76.4458 15.7995 75.7308 16.177 75.043L16.2822 75.0175C16.4129 75.0398 16.263 74.5674 16.3937 74.561V74.3759C16.432 74.3407 16.4925 74.2546 16.4894 74.3471C16.5317 74.2599 16.5493 74.1628 16.5404 74.0662L16.6774 73.9385C16.9643 73.3735 16.9962 72.818 17.2639 72.2083C17.6879 71.5156 18.0194 70.0408 18.182 69.1917C18.3477 67.985 19.2147 66.7592 19.288 65.495C19.298 65.4713 19.3031 65.4458 19.3031 65.42C19.3031 65.3943 19.298 65.3688 19.288 65.345L19.4219 64.7928C19.4666 64.6076 19.5144 64.4352 19.5558 64.2213C19.5744 64.1329 19.5872 64.0433 19.5941 63.9532C19.6263 63.6862 19.5969 63.4153 19.508 63.1615C19.3788 62.8167 19.1298 62.5299 18.8067 62.3539C18.5157 62.1917 18.1816 62.1236 17.8505 62.1592C17.6129 62.1823 17.3891 62.282 17.2129 62.4433C17.0982 62.5742 17.095 62.6572 17.1683 62.6923C17.2416 62.7274 17.4169 62.6923 17.656 62.7433C17.795 62.7715 17.9278 62.8245 18.0481 62.8998C18.1937 62.9851 18.3121 63.1102 18.3892 63.2605H18.3605C18.4085 63.3162 18.4444 63.3815 18.4657 63.452C18.4843 63.5047 18.4972 63.5593 18.5039 63.6148C18.5262 63.7776 18.5422 63.934 18.5677 64.1128C18.3892 64.132 18.4402 64.5917 18.3541 64.7193V64.7034C18.4019 65.096 18.0704 65.4248 18.1023 65.8015C18.0856 65.7873 18.0732 65.7688 18.0664 65.7479C18.0596 65.727 18.0588 65.7047 18.064 65.6834C18.0258 65.9452 17.9716 66.2995 17.8696 66.2931C17.7421 66.906 17.4616 67.7296 17.503 68.1606L17.4839 68.1255C17.5253 68.3745 17.4201 68.416 17.3978 68.6745C17.3819 68.6745 17.3691 68.7 17.3659 68.6937C17.3946 68.965 17.1715 69.396 17.1524 69.6003H17.0823L16.9484 70.0759L17.0185 69.9035C17.1747 70.0216 16.7954 70.2227 16.7922 70.6026C16.6647 70.9218 16.9356 71.3752 16.7316 71.6752C16.7571 71.8636 16.6487 71.4901 16.6296 71.7487C16.534 71.7231 16.6105 71.6178 16.518 71.6529C16.4798 71.9019 16.2885 71.9976 16.2471 72.2913L16.1706 72.2754C16.1706 72.6968 15.82 72.9362 15.8518 73.233C15.7658 73.6353 15.5331 73.4054 15.5331 73.8523L15.3801 73.9672C15.2972 74.13 15.447 74.1364 15.3259 74.2865C15.2717 74.2513 15.1825 74.5003 15.1697 74.3695C14.9083 74.7493 14.9466 75.2729 14.5545 75.7517C14.6151 75.9209 14.4238 76.1635 14.4716 76.2912C14.4142 76.2912 14.2166 76.8339 14.2485 76.4795C14.2485 76.4476 14.274 76.4029 14.2899 76.4157L14.2389 76.3486C13.9775 76.6008 14.0509 76.9392 13.8915 77.2361C13.9552 77.1563 14.0062 77.0318 14.0126 77.1339L13.8724 77.4117L13.8437 77.3287C13.7693 77.4606 13.696 77.5787 13.6237 77.683H13.7162C13.5823 77.833 13.4484 77.8075 13.4261 78.0022C13.4261 78.1012 13.6014 77.9576 13.509 78.098C13.4268 78.1581 13.3298 78.1945 13.2285 78.2033C13.1595 78.2021 13.0918 78.1846 13.0308 78.1523C13.0308 78.2416 12.9862 78.2289 12.9288 78.2289L12.9511 78.1554C12.8428 78.1554 12.8396 78.1012 12.8523 78.0629C12.8651 78.0246 12.881 77.9735 12.7758 77.9288L12.8268 77.9033C12.7762 77.9278 12.724 77.9492 12.6706 77.9671C12.54 77.9256 12.5527 77.8682 12.5623 77.8235C12.5718 77.7788 12.5623 77.7405 12.4348 77.6575C12.4858 77.7501 12.2977 77.7724 12.2849 77.6224H12.3614C12.3264 77.5553 12.2913 77.5362 12.3009 77.4883C12.3487 77.517 12.4029 77.4883 12.3806 77.3861C12.4112 77.4107 12.4444 77.4321 12.4794 77.45C12.4222 77.3871 12.373 77.3174 12.3328 77.2425C12.4061 77.0733 12.3742 76.7541 12.4985 76.6966C12.4985 76.6966 12.5399 76.5976 12.5782 76.4795C12.6222 76.3793 12.6387 76.2691 12.626 76.1603C12.6515 76.2752 12.7758 76.0454 12.8236 76.1603C12.8111 75.9269 12.89 75.6978 13.0436 75.5219V75.5538C13.3623 75.0526 13.3623 74.5961 13.662 74.146C13.5727 74.146 13.7289 73.897 13.5982 73.9162C13.713 73.3703 14.1975 73.0862 13.952 72.7702C14.0285 72.5339 14.1401 72.5307 14.2039 72.4158V72.4796C14.3537 72.0359 14.3983 71.9083 14.5226 71.5922C14.5545 71.4167 14.4142 71.3336 14.5609 71.0591C14.5864 71.1772 14.6182 71.0591 14.6597 70.9474C14.6438 71.0176 14.6597 71.0495 14.7521 70.9218C14.7453 70.8903 14.7453 70.8576 14.7521 70.8261C14.7521 70.8261 14.7521 70.8261 14.7681 70.8261C14.8159 70.6377 14.7872 70.6633 14.7457 70.7431C14.7457 70.7431 14.7234 70.7431 14.6979 70.7431C14.8446 70.5867 14.886 70.2196 14.9976 70.2355C15.1729 69.6801 15.2048 69.2523 15.3163 68.7831C15.3865 68.7511 15.3992 68.8724 15.3737 69.0129L15.4661 68.6937C15.5395 68.7224 15.4438 68.8948 15.4279 69.0129C15.6829 68.6713 15.5745 68.1765 15.8359 67.7584L15.804 67.6466L15.8232 67.6211C15.7913 67.6211 15.7785 67.4966 15.7913 67.4264C15.8805 67.3849 15.9443 67.4806 16.0112 67.254C16.115 67.0128 16.1703 66.7536 16.1738 66.4911C16.1228 66.6124 16.0973 66.5613 16.0909 66.4911C16.1228 66.3761 16.2089 66.3314 16.2057 66.2357H16.3013C16.2025 66.2548 16.3013 65.9164 16.2726 65.859C16.3587 65.8143 16.2726 66.0505 16.3204 66.0952C16.4447 65.6387 16.381 65.8654 16.5053 65.4089C16.5053 65.1439 16.4065 65.428 16.3619 65.2876C16.3787 65.0549 16.4325 64.8265 16.5212 64.6108L16.4192 64.6683C16.4371 64.3465 16.531 64.0336 16.6934 63.7553C16.7444 62.1592 16.5435 61.9549 16.3491 62.1368C16.1747 62.3653 16.0391 62.6209 15.9475 62.8934C15.4183 64.0075 15.4916 64.6715 15.1569 66.076Z" fill="#5A5A5A"/>
<path d="M23.4893 70.044L23.4287 70.127C23.4446 70.143 23.4638 70.111 23.4893 70.044Z" fill="#5A5A5A"/>
<path d="M25.915 70.5356C25.9134 70.5272 25.9134 70.5185 25.915 70.5101C25.9118 70.5292 25.9118 70.5324 25.915 70.5356Z" fill="#5A5A5A"/>
<path d="M22.788 68.5852C22.3736 69.8397 22.1186 70.127 21.7966 71.4582C21.6022 72.0966 21.4396 72.7574 21.2803 73.3735C21.3153 73.6927 21.0444 74.178 21.0476 74.5515L20.9392 74.6632C20.9455 74.7967 20.9145 74.9293 20.8499 75.0462H20.8308C20.8102 75.2074 20.7804 75.3673 20.7416 75.5251H20.7224L20.6682 75.7422L20.6523 75.6975C20.6152 76.0118 20.537 76.3198 20.4196 76.6136H20.5089C20.2411 77.1851 20.3495 77.4532 20.0785 77.9608H20.0594C20.0612 78.2727 19.9844 78.5801 19.8363 78.8546C19.6738 79.1467 19.5955 79.4782 19.61 79.8123C19.61 79.7005 19.5558 79.8506 19.5398 79.841C19.5077 80.043 19.5077 80.2487 19.5398 80.4507C19.5781 80.6263 19.6546 80.7699 19.7407 80.7348C19.8235 81.0541 19.7757 81.0062 19.7247 81.0764C19.7948 81.0476 19.9319 81.303 20.1264 81.4946L20.0212 81.4179C20.1996 81.6333 20.4401 81.7882 20.7097 81.8617C20.6706 81.8023 20.6375 81.7392 20.6109 81.6733C20.7862 81.7659 20.8085 81.7978 20.8244 81.8425C20.8404 81.8872 20.8659 81.9191 21.0794 81.9V81.785C21.3068 81.7818 21.5337 81.7626 21.7584 81.7276C21.9654 81.6993 22.1672 81.6413 22.3577 81.5552C22.7439 81.2779 23.0756 80.9316 23.3363 80.5337C23.5828 80.1583 23.7961 79.762 23.9738 79.3494C24.2672 78.5866 24.6024 77.8406 24.9779 77.1148L25.0862 77.0829C25.2169 77.102 25.0639 76.62 25.1946 76.6073V76.4221C25.2329 76.3806 25.2934 76.2912 25.2902 76.3838C25.3317 76.2941 25.3482 76.1948 25.3381 76.0965L25.4751 75.956C25.7492 75.3623 25.7939 74.7909 26.0138 74.1461C26.4186 73.4086 26.6768 71.8668 26.7757 70.9793C26.8553 69.7216 27.614 68.3873 27.5407 67.0497C27.549 67.0231 27.5513 66.995 27.5474 66.9674C27.5436 66.9398 27.5336 66.9134 27.5184 66.8901C27.5696 66.452 27.5546 66.0085 27.4737 65.5749C27.4545 65.481 27.43 65.3883 27.4004 65.2972C27.3267 65.0561 27.2124 64.8294 27.0625 64.6268C26.8673 64.3625 26.6087 64.1517 26.3107 64.0139C26.0126 63.8761 25.6847 63.8157 25.3572 63.8383C25.1071 63.8655 24.8741 63.9783 24.6973 64.1575C24.5826 64.2948 24.5794 64.3778 24.6559 64.4097C24.7324 64.4417 24.9045 64.4097 25.1532 64.4417C25.4819 64.5076 25.7735 64.6958 25.9692 64.9684H25.9373C26.0672 65.0954 26.1749 65.2432 26.2561 65.4057C26.339 65.5589 26.4155 65.6994 26.5206 65.8686C26.441 65.9133 26.4537 66.0154 26.4728 66.1335C26.5026 66.2373 26.508 66.3465 26.4888 66.4527C26.6195 66.8071 26.3294 67.1742 26.3963 67.5509C26.3776 67.5396 26.3626 67.5229 26.3535 67.503C26.3444 67.483 26.3416 67.4608 26.3453 67.4392C26.3294 67.7041 26.3198 68.0776 26.2146 68.0776C26.1477 68.7161 25.9437 69.5811 26.0202 70.0153L25.9979 69.9834C26.0584 70.2356 25.9533 70.2834 25.9533 70.5484C25.9373 70.5484 25.9246 70.5771 25.9214 70.5739C25.9756 70.8485 25.7716 71.3049 25.7716 71.5316H25.7014L25.5931 72.0264L25.6536 71.8476C25.8162 71.9562 25.4528 72.1924 25.4687 72.5755C25.3604 72.8947 25.6504 73.3575 25.4687 73.68C25.5006 73.8683 25.3763 73.4916 25.3667 73.7598C25.2711 73.7374 25.3444 73.6257 25.252 73.6672C25.2201 73.9226 25.0352 74.0311 25.0065 74.3472H24.93C24.93 74.7749 24.6113 75.0399 24.6304 75.3336C24.5507 75.7485 24.3308 75.5219 24.3117 75.972L24.1586 76.0933C24.079 76.2593 24.232 76.2625 24.1108 76.4349C24.0535 76.3997 23.9674 76.6583 23.9546 76.5243C23.6933 76.9169 23.7379 77.4532 23.3394 77.9448C23.4 78.114 23.2087 78.3662 23.2534 78.4939C23.1992 78.4939 22.9888 79.0333 23.0271 78.679C23.0271 78.6503 23.0557 78.6024 23.0717 78.6152L23.0239 78.5481C22.7529 78.7907 22.8262 79.1291 22.6445 79.3973C22.7115 79.327 22.7689 79.2121 22.7721 79.3111C22.7211 79.3973 22.6669 79.4803 22.6127 79.5633L22.5904 79.4771C22.507 79.5944 22.4176 79.7074 22.3226 79.8155H22.4182C22.262 79.9655 22.1186 79.9336 22.0548 80.1762C22.0293 80.2911 22.262 80.0996 22.1345 80.2751C21.8724 80.4661 21.5876 80.6237 21.2866 80.7444C21.3472 80.8082 21.2866 80.8402 21.2229 80.8785L21.191 80.8114C21.1018 80.8944 21.0826 80.8466 21.0763 80.8114C21.0699 80.7763 21.0763 80.722 21.0508 80.7604V80.7093C21.0378 80.7604 21.0185 80.8097 20.9934 80.8561C20.9201 80.904 20.9233 80.8561 20.936 80.821C20.9488 80.7859 20.9551 80.7731 20.8149 80.738C20.8723 80.7986 20.6969 80.8752 20.6651 80.738H20.7416C20.7001 80.6869 20.6651 80.6741 20.6651 80.6231C20.7161 80.6518 20.7671 80.6231 20.7384 80.5305L20.8372 80.5656C20.7748 80.526 20.7224 80.4725 20.6842 80.4092C20.7138 80.3052 20.7309 80.198 20.7352 80.09C20.7511 79.9783 20.7766 79.8729 20.8372 79.841C20.8669 79.7604 20.8924 79.6784 20.9137 79.5952C20.9608 79.4766 20.973 79.347 20.9488 79.2217C20.9838 79.343 21.0922 79.0717 21.1464 79.1738C21.1125 78.9332 21.1632 78.6883 21.2898 78.4811V78.513C21.5416 77.9608 21.4683 77.4947 21.7201 77.0063C21.6277 77.0063 21.7552 76.7477 21.6277 76.7828C21.6787 76.2178 22.1313 75.8699 21.8604 75.5826C21.9146 75.3336 22.023 75.3176 22.074 75.1963V75.2601C22.1393 74.9439 22.2223 74.6317 22.3226 74.3248C22.3417 74.146 22.1951 74.0758 22.3226 73.7821C22.3545 73.9002 22.38 73.7821 22.4119 73.6576C22.4119 73.7342 22.4119 73.763 22.5011 73.6257C22.4889 73.5954 22.4834 73.5626 22.4852 73.5299H22.5011C22.5362 73.3352 22.5011 73.3639 22.4724 73.4469C22.4724 73.4469 22.4501 73.447 22.4246 73.4661C22.5617 73.2937 22.5808 72.9202 22.6924 72.9266C22.8358 72.3488 22.8486 71.9115 22.9474 71.4263C23.0143 71.388 23.0302 71.5156 23.0111 71.6561L23.0908 71.3145C23.1673 71.3433 23.0908 71.522 23.0621 71.6338C23.3044 71.2699 23.1801 70.7718 23.4319 70.3377L23.4 70.2228L23.4191 70.1973C23.3873 70.1973 23.3745 70.0696 23.3841 69.9993C23.4701 69.9515 23.5371 70.0504 23.6008 69.8174C23.7019 69.5689 23.7549 69.3035 23.757 69.0353C23.706 69.1598 23.6837 69.1087 23.6741 69.0353C23.706 68.9172 23.7953 68.8725 23.7921 68.7735H23.8845C23.7857 68.7927 23.8845 68.4543 23.859 68.3873C23.9451 68.3426 23.859 68.5852 23.9036 68.6299C24.0343 68.1638 23.9706 68.3968 24.0981 67.9276C24.0981 67.6594 23.9993 67.9467 23.9546 67.8063C23.973 67.567 24.0323 67.3327 24.13 67.1136L24.0248 67.1678C24.0494 66.8393 24.1534 66.5216 24.3276 66.2421C24.5762 62.9732 23.6231 65.3227 23.6231 65.3227C23.0972 66.4336 23.1482 67.1295 22.788 68.5852Z" fill="#5A5A5A"/>
<path d="M150.788 15.0418L150.709 15.4823C150.758 15.3404 150.784 15.1919 150.788 15.0418Z" fill="#5A5A5A"/>
<path d="M151.286 27.134V27.0255C151.282 27.0615 151.282 27.0979 151.286 27.134Z" fill="#5A5A5A"/>
<path d="M150.667 9.49052C150.349 10.9813 150.145 12.2039 149.982 13.2925C149.819 14.381 149.701 15.3355 149.584 16.2932C149.364 18.2085 149.137 20.1238 148.78 23.2139C148.395 26.1476 147.958 29.2792 147.486 32.1203C147.426 32.8066 147.26 33.7419 147.081 34.706C146.903 35.67 146.724 36.6628 146.549 37.4066C146.472 37.5917 146.393 37.7737 146.307 37.9429C146.169 38.4529 145.914 38.9232 145.561 39.3156V39.2804C145.166 39.8742 144.385 40.2381 144.044 40.3786L144.066 40.3499C143.775 40.4673 143.477 40.5654 143.173 40.6435L143.326 40.5765C142.641 40.776 141.943 40.9338 141.238 41.0489C140.528 41.183 139.83 41.3043 139.176 41.4097L139.297 41.4671C136.492 41.8853 135.501 42.2269 132.967 42.5812L132.999 42.5557C131.405 42.9451 130.168 43.1335 128.877 43.3346C128.15 43.4246 127.447 43.6555 126.808 44.0145C126.426 44.2441 126.104 44.5628 125.871 44.9435C125.628 45.3524 125.485 45.8128 125.454 46.2874C125.505 45.8182 125.383 46.4789 125.377 46.4406C125.347 46.8466 125.347 47.2541 125.377 47.6601C125.377 48.0431 125.431 48.4039 125.466 48.7135C125.556 49.3328 125.661 49.751 125.744 49.751C125.839 50.316 125.874 50.5458 125.884 50.6576C125.893 50.7693 125.858 50.7565 125.849 50.8363C125.909 50.8172 126.168 51.794 126.467 52.624L126.311 52.2409C126.58 53.0542 126.915 53.8441 127.312 54.6032L127.204 54.0956C127.349 54.3421 127.456 54.609 127.522 54.8873C127.522 54.9703 127.545 55.0469 127.886 55.6023L127.965 55.5353C128.434 56.3429 128.852 56.9622 129.279 57.5656C129.742 58.2221 130.269 58.8306 130.853 59.382C132.32 60.6639 134.026 61.6405 135.874 62.255C137.736 62.8773 139.706 63.1129 141.662 62.9477C143.605 62.8113 145.476 62.1566 147.081 61.0515C148.572 59.9475 149.796 58.5229 150.664 56.8824L150.875 56.6366C151.069 56.3345 151.209 56.0007 151.289 55.6502C151.379 55.2708 151.503 54.9001 151.659 54.5425C151.729 54.2776 151.786 54.0062 151.847 53.7413C151.907 53.4763 152.07 53.0549 151.99 53.4604C152.058 53.221 152.112 52.978 152.153 52.7325C152.178 52.5665 152.201 52.4133 152.229 52.1515C152.258 51.8898 152.37 51.628 152.43 51.3631C152.648 49.9579 152.735 48.5355 152.691 47.1142C152.669 45.7256 152.57 44.3306 152.491 42.7919C152.446 40.9436 152.268 38.2972 152.15 35.6126C152.032 32.9279 151.99 30.2049 152.067 28.2194C152.111 25.4198 152.602 22.4255 153.15 19.4216C153.699 16.4177 154.26 13.3563 154.387 10.4546C154.405 10.3191 154.414 10.1826 154.416 10.046C154.423 9.95778 154.423 9.86921 154.416 9.78103C154.474 8.92447 154.581 8.07187 154.735 7.22724C154.81 6.81859 154.917 6.41627 155.053 6.02376C155.178 5.64116 155.349 5.2755 155.563 4.9352L155.595 4.88095C155.627 4.82689 155.663 4.77463 155.701 4.7245L155.879 4.48828C155.956 4.40528 156.045 4.30954 156.14 4.20101C156.702 3.66776 157.421 3.33167 158.19 3.24334C159.241 3.16436 160.296 3.31129 161.285 3.67428C161.811 3.85305 162.327 4.06371 162.822 4.28716C163.322 4.55329 163.859 4.74371 164.415 4.8522C164.713 4.89368 165.017 4.86414 165.302 4.766C165.37 4.74023 165.437 4.71042 165.502 4.67665C165.573 4.63646 165.64 4.59054 165.703 4.53936C165.816 4.44053 165.909 4.32143 165.977 4.18823C166.089 3.97235 166.146 3.73223 166.143 3.48911C166.145 3.28549 166.099 3.08425 166.009 2.90175C165.932 2.74033 165.804 2.60826 165.646 2.52508C165.54 2.47124 165.42 2.45011 165.302 2.46441C165.215 2.46441 165.193 2.48995 165.18 2.50272C165.168 2.51549 165.18 2.53464 165.231 2.54741C165.314 2.56985 165.394 2.60089 165.47 2.64C165.596 2.70957 165.691 2.82331 165.738 2.95922C165.803 3.13914 165.818 3.33315 165.783 3.52106C165.75 3.76755 165.63 3.99411 165.445 4.15951C165.323 4.24057 165.187 4.29621 165.043 4.32309C164.9 4.34997 164.752 4.34753 164.61 4.31592C164.238 4.23968 163.883 4.1004 163.558 3.90411C162.638 3.36361 161.664 2.92273 160.651 2.58891H160.788C159.357 2.16435 158.002 2.12604 156.889 2.58891C156.359 2.80261 155.878 3.12188 155.474 3.52741C155.102 3.91938 154.802 4.37443 154.588 4.87137C154.432 4.9799 154.164 5.56727 153.998 6.21848C153.833 6.8697 153.743 7.56561 153.68 7.90399V7.83693C153.616 8.74033 153.536 9.65014 153.437 10.5376C153.339 11.425 153.214 12.2965 153.166 13.1424C153.137 12.9788 153.137 12.8113 153.166 12.6476C153.048 13.8703 152.848 15.543 152.73 15.6196C152.529 17.0753 152.236 18.8119 152 20.4431C151.781 21.7945 151.631 23.1561 151.55 24.5227V24.3887C151.525 25.4772 151.413 25.7901 151.369 27.0031C151.361 27.0495 151.35 27.0954 151.337 27.1404C151.337 28.3247 151.187 30.5816 151.232 31.5393L151.171 31.5999C151.171 32.382 151.171 33.1673 151.203 33.9494V33.0716C151.369 33.3716 151.12 34.8496 151.298 36.5447C151.343 38.1408 151.799 39.7369 151.824 41.3969C151.949 42.179 151.655 40.717 151.789 41.8853C151.706 41.9268 151.7 41.3394 151.652 41.6459C151.764 42.7951 151.691 43.5389 151.812 44.9498L151.748 45.0105C151.952 46.8556 151.713 48.4837 151.729 49.6999C151.718 50.2306 151.637 50.7575 151.49 51.2673C151.445 51.4237 151.407 51.5865 151.356 51.8259C151.305 52.0653 151.26 52.3878 151.184 52.8698C151.091 53.106 151.005 53.3422 150.906 53.5753C150.655 54.3606 150.849 54.1786 150.492 55.0278C150.473 54.9894 150.361 55.2576 150.259 55.4651C150.157 55.6726 150.081 55.8162 150.164 55.564C149.719 56.5278 149.185 57.4479 148.57 58.3125C148.227 58.7748 147.839 59.2024 147.413 59.5894C146.943 60.0094 146.423 60.3687 145.864 60.6589C145.538 60.9099 145.179 61.1131 144.796 61.2622C144.369 61.441 143.942 61.5814 143.741 61.6708C143.702 61.6708 143.043 61.8272 142.565 61.8879C142.086 61.9485 141.809 61.9645 142.565 61.8113C142.675 61.7783 142.79 61.7621 142.906 61.7634L143.071 61.6644C142.316 61.7538 141.634 61.8432 140.939 61.8847C140.224 61.9439 139.504 61.9225 138.794 61.8208C139.237 61.907 139.839 61.9485 139.431 61.9581C138.96 61.9125 138.492 61.8411 138.029 61.7442H138.328C137.638 61.6064 136.958 61.4197 136.295 61.1855L136.55 61.3388C136.332 61.2668 136.119 61.1815 135.912 61.0834C135.734 61.0036 135.571 60.9302 135.408 60.844C135.09 60.6844 134.736 60.5248 134.197 60.2949C133.955 60.1896 134.156 60.3332 134.302 60.4322C134.449 60.5311 134.532 60.595 134.047 60.3396C133.332 59.9243 132.656 59.4457 132.026 58.9095C131.331 58.3149 130.691 57.6589 130.114 56.9495C130.165 57.1251 129.852 56.7643 129.546 56.3781L129.566 56.2951C128.979 55.5608 128.928 55.3821 128.877 55.2193C128.72 54.826 128.526 54.4486 128.297 54.0924L128.408 54.2169L127.997 53.8626C127.757 53.4902 127.58 53.0802 127.474 52.6495C127.341 52.18 127.178 51.7195 126.987 51.2705C127.2 51.9824 126.926 51.6567 126.732 50.7533L126.847 50.964C126.745 50.6408 126.666 50.3113 126.607 49.9776C126.697 50.2681 126.719 50.1181 126.607 49.3871C126.652 49.5467 126.716 49.7063 126.767 49.8627C126.703 49.6392 126.649 49.4094 126.604 49.1796C126.56 48.9497 126.502 48.7199 126.47 48.4901C126.47 48.3528 126.47 48.206 126.47 48.0559C126.47 47.9059 126.47 47.7367 126.47 47.5866C126.451 47.2752 126.451 46.9628 126.47 46.6513C126.465 46.2552 126.597 45.8694 126.843 45.5596C126.895 45.4794 126.955 45.4045 127.022 45.3361C127.186 45.1699 127.375 45.0309 127.583 44.9243C128.044 44.7112 128.522 44.5351 129.011 44.3976C128.791 44.4742 128.992 44.4519 129.209 44.4359C129.425 44.4199 129.668 44.3976 129.486 44.4678C130.52 44.1837 131.572 43.9704 132.635 43.8294L132.498 43.8645C135.201 43.4527 137.075 42.9324 139.511 42.5876C139.39 42.5302 140.671 42.3418 140.336 42.3003C141.573 42.0162 142.718 41.9077 143.702 41.6619C144.146 41.5563 144.575 41.3943 144.978 41.1798C145.276 41.0283 145.536 40.8098 145.736 40.5414C146.074 40.2648 146.38 39.951 146.648 39.606C146.827 39.3897 146.982 39.1542 147.11 38.9038C147.075 38.9972 147.036 39.0888 146.992 39.1783C147.215 38.7426 147.394 38.2861 147.528 37.8152C147.642 37.4226 147.719 37.0906 147.789 36.7745C147.923 36.1361 148.018 35.5966 148.171 34.805C148.324 34.0133 148.171 33.8473 148.452 32.4459C148.43 32.9151 148.519 32.331 148.608 31.8074C148.56 32.149 148.56 32.2575 148.717 31.5648C148.717 31.4659 148.732 31.3095 148.745 31.1658C148.745 31.1658 148.761 31.1339 148.764 31.1498C148.889 30.2592 148.847 30.4092 148.764 30.8306C148.764 30.8083 148.742 30.8306 148.707 30.9679C148.933 30.0581 149.112 28.3949 149.223 28.2992C149.606 25.6209 149.759 23.6896 149.988 21.4518C150.068 21.206 150.052 21.7359 149.988 22.3872L150.157 20.791C150.227 20.8134 150.094 21.7072 150.046 22.1988C150.396 20.325 150.365 18.2851 150.706 16.0889V15.6228L150.731 15.4919C150.7 15.2183 150.7 14.942 150.731 14.6683C150.833 14.3491 150.865 14.7067 150.999 13.6181C151.165 12.7658 151.318 11.1824 151.512 10.0683C151.378 10.6621 151.388 10.4641 151.413 10.2024C151.528 9.66928 151.646 9.3724 151.732 8.9606L151.828 8.92869C151.764 9.02445 151.828 8.67331 151.914 8.29024C152 7.90717 152.127 7.4507 152.143 7.35174C152.29 7.07082 151.955 8.17534 151.968 8.30941C152.255 7.25917 152.36 7.01017 152.443 6.7484C152.481 6.62071 152.526 6.49303 152.612 6.27276C152.698 6.0525 152.806 5.72689 153.029 5.23529C153.441 4.14993 152.873 5.39488 153.029 4.85859C153.128 4.61917 153.246 4.39573 153.348 4.15951C153.45 3.92328 153.574 3.69662 153.705 3.46678C153.956 2.97699 154.267 2.5211 154.633 2.11008C154.535 2.18669 154.439 2.2665 154.346 2.3495C154.763 1.65708 155.433 1.15446 156.214 0.9481C156.854 0.831406 157.511 0.837925 158.149 0.967272C159.581 1.04559 161 1.28655 162.378 1.68552C163.421 1.98559 164.125 2.26012 164.587 2.4325C165.509 2.78683 165.474 2.68148 165.043 2.37821C164.363 1.93246 163.64 1.555 162.885 1.25135C162.385 1.04576 161.874 0.865718 161.355 0.711878C160.681 0.505085 159.994 0.341935 159.299 0.223456C158.661 0.113303 158.015 0.0450524 157.368 0.0191487C156.672 -0.0229452 155.976 0.100674 155.337 0.379873C154.721 0.691203 154.188 1.14673 153.785 1.70785C153.595 1.96055 153.419 2.22263 153.256 2.49313C153.106 2.76128 152.937 3.03264 152.8 3.31036C152.494 3.8918 152.219 4.48846 151.974 5.098C151.41 6.52058 150.972 7.99052 150.667 9.49052Z" fill="#5A5A5A"/>
<path d="M137.675 44.4966L137.56 44.4774C137.56 44.4934 137.592 44.4998 137.675 44.4966Z" fill="#5A5A5A"/>
<path d="M144.369 48.2123L144.388 48.1932C144.388 48.1932 144.369 48.2092 144.369 48.2123Z" fill="#5A5A5A"/>
<path d="M133.161 44.1997L133.168 44.1965L133.196 44.1837L133.161 44.1997Z" fill="#5A5A5A"/>
<path d="M138.937 43.3888C137.413 43.5069 136.986 43.4112 135.431 43.7081C134.678 43.8166 133.891 44.0082 133.171 44.1805C132.852 44.3689 132.214 44.3944 131.845 44.5923L131.673 44.5668C131.538 44.641 131.389 44.6866 131.236 44.7009V44.6785C131.041 44.7807 130.802 44.8158 130.707 44.8668V44.8477L130.458 44.9243L130.493 44.886C130.155 45.0319 129.804 45.1462 129.444 45.2276L129.495 45.2914C129.176 45.3486 128.872 45.4749 128.606 45.6617C128.469 45.754 128.343 45.8611 128.23 45.981C128.085 46.1363 127.965 46.3128 127.873 46.5045V46.4853C127.834 46.7281 127.816 46.9737 127.819 47.2195C127.806 47.4194 127.806 47.6198 127.819 47.8197C127.843 48.2548 128.017 48.668 128.313 48.988C128.23 48.8954 128.313 49.055 128.287 49.055C128.558 49.4317 128.925 49.7446 129.033 49.6329C129.269 49.8404 129.199 49.834 129.196 49.9074C129.234 49.8563 129.47 49.9968 129.687 50.1149L129.575 50.0766C129.779 50.1922 129.992 50.2895 130.213 50.3671L130.136 50.2011C130.455 50.3639 130.165 50.383 130.499 50.466L130.528 50.3671C130.984 50.5331 131.229 50.7406 131.679 50.897C132.639 51.057 133.613 51.1243 134.586 51.0981C135.542 51.0981 136.498 51.0343 137.391 51.0406L137.477 51.1141C137.525 51.2226 137.946 50.8874 138.025 50.9864L138.223 50.9098C138.284 50.9098 138.405 50.9098 138.309 50.9672C138.421 50.9556 138.529 50.9219 138.628 50.8683L138.841 50.9066C139.594 50.8395 140.196 50.5873 140.967 50.399C141.584 50.3101 142.186 50.1417 142.759 49.8978C143.352 49.6537 143.929 49.3722 144.487 49.055C145.188 48.6811 145.867 48.2665 146.52 47.8133C146.876 47.5371 147.172 47.1918 147.39 46.7982C147.612 46.3895 147.704 45.923 147.655 45.4606C147.663 45.388 147.646 45.3148 147.607 45.2531C147.565 44.6866 147.315 44.1557 146.906 43.7623C146.827 43.6845 146.741 43.613 146.651 43.5484C146.436 43.3963 146.201 43.2739 145.953 43.1846C145.373 42.9887 144.76 42.9074 144.149 42.9451C143.629 42.9771 143.288 43.0664 143.368 43.1941C143.409 43.2611 143.562 43.3346 143.849 43.4335C144.136 43.5325 144.569 43.6474 145.099 43.8741L145.064 43.8932C145.516 44.0356 145.952 44.2261 146.364 44.4615C146.326 44.5413 146.399 44.621 146.469 44.72C146.54 44.7985 146.59 44.8942 146.613 44.9977H146.594C146.644 45.072 146.679 45.1563 146.695 45.2448C146.711 45.3334 146.708 45.4243 146.686 45.5117C146.645 45.6848 146.619 45.861 146.606 46.0384C146.592 46.0244 146.581 46.0065 146.576 45.9867C146.571 45.9669 146.571 45.9461 146.578 45.9267C146.546 46.1725 146.409 46.5045 146.316 46.4662C146.133 46.7663 145.902 47.0339 145.631 47.2579C145.354 47.5005 145.067 47.708 144.907 47.8963V47.8612C144.732 48.075 144.624 48.04 144.385 48.2155C144.365 48.2155 144.343 48.2155 144.346 48.2155C144.136 48.4326 143.584 48.5794 143.39 48.7103L143.352 48.6624C143.18 48.7454 142.998 48.8125 142.823 48.8891L143.027 48.822C143.027 48.9976 142.587 48.8923 142.227 49.1221C141.854 49.237 141.57 49.6967 141.149 49.7382C140.98 49.8627 141.283 49.5754 141.015 49.7063C140.983 49.6265 141.133 49.6201 141.041 49.5722C140.773 49.684 140.566 49.6137 140.238 49.7478L140.209 49.6871C139.788 49.9138 139.345 49.7861 139.068 49.9553C138.609 50.0925 138.72 49.8116 138.255 50.0159L138.054 49.9553C137.844 49.9553 137.917 50.0798 137.681 50.0638C137.681 50.0063 137.385 50.0638 137.515 49.984C136.986 49.9521 136.457 50.2043 135.759 50.0766C135.609 50.1883 135.259 50.1277 135.147 50.2107C135.128 50.1692 134.446 50.1883 134.828 50.0957C134.863 50.0957 134.921 50.0957 134.917 50.0957L134.965 50.0319C134.573 49.8978 134.248 50.0862 133.859 50.0319C133.971 50.0606 134.127 50.0638 134.022 50.1021L133.658 50.0702L133.738 50.0191C133.56 50 133.381 49.9712 133.203 49.9425L133.269 50.0191C133.011 49.9553 132.932 49.8403 132.632 49.8946C132.492 49.9297 132.868 50.0191 132.587 50.0032L131.312 49.6584C131.335 49.7414 131.223 49.7158 131.102 49.6999V49.6329C130.649 49.6009 130.984 49.4541 130.566 49.3839L130.617 49.3551L130.461 49.4445C130.26 49.4445 130.232 49.3679 130.197 49.32C130.162 49.2721 130.127 49.2243 129.903 49.1891C130.047 49.2689 129.887 49.3583 129.731 49.2115L129.814 49.1891C129.712 49.1349 129.671 49.1285 129.62 49.071C129.696 49.071 129.699 49.0263 129.578 48.921C129.622 48.9241 129.665 48.9241 129.709 48.921C129.606 48.8852 129.506 48.8426 129.409 48.7933C129.295 48.5826 129.024 48.3145 129.068 48.1804L129.04 48.1102C129.02 48.0655 129.001 48.0048 128.973 47.9442C128.947 47.8274 128.894 47.7182 128.82 47.6249C128.896 47.7047 128.877 47.4462 128.963 47.5068C128.867 47.4174 128.81 47.0248 128.918 46.945V46.9674C128.947 46.9014 128.98 46.8374 129.017 46.7758C129.054 46.7148 129.101 46.6599 129.154 46.613C129.338 46.4665 129.559 46.3737 129.792 46.3448C129.738 46.2778 130.056 46.2267 129.954 46.1565C130.535 45.8788 131.118 46.032 131.258 45.6777C131.42 45.6323 131.589 45.6192 131.755 45.6394L131.692 45.6713C132.04 45.559 132.395 45.4652 132.753 45.3904C132.941 45.3169 132.941 45.1701 133.301 45.1254C133.199 45.2052 133.34 45.1637 133.47 45.1254C133.387 45.1542 133.368 45.1797 133.547 45.1797C133.574 45.1562 133.604 45.1368 133.636 45.1222C133.85 45.0584 133.808 45.0488 133.706 45.0616C133.706 45.0616 133.706 45.0424 133.665 45.0328C133.907 45.0552 134.302 44.8988 134.344 44.9881C135.004 44.8381 135.459 44.6689 136.011 44.5317C136.081 44.5732 135.957 44.6338 135.8 44.6817L136.192 44.6019C136.192 44.6721 135.973 44.6785 135.851 44.7104C136.339 44.7519 136.808 44.4455 137.369 44.4806L137.474 44.4104H137.56C137.56 44.3816 137.675 44.3242 137.754 44.305C137.84 44.3593 137.754 44.4519 138.038 44.4168C138.341 44.4022 138.641 44.3486 138.931 44.2571C138.778 44.2571 138.822 44.222 138.886 44.1933C139.023 44.1773 139.109 44.2316 139.205 44.1933L139.227 44.2763C139.166 44.1997 139.578 44.1582 139.626 44.1199C139.708 44.1773 139.418 44.1901 139.386 44.2412L140.212 44.1646C140.502 44.0784 140.151 44.0879 140.289 44.005C140.555 43.9469 140.828 43.9222 141.101 43.9315L141.003 43.8645C141.369 43.7845 141.748 43.7769 142.118 43.8421C143.941 43.5006 144.145 43.3186 143.878 43.1782C143.553 43.0737 143.217 43.0114 142.877 42.993C141.414 42.926 140.661 43.175 138.937 43.3888Z" fill="#5A5A5A"/>
<path d="M142.459 99.9137C132.629 93.3409 120.832 91.815 109.264 92.9131C96.7211 94.1554 84.3111 96.4958 72.1763 99.9073C66.4546 101.503 60.3153 103.291 54.3259 102.803C50.3988 102.483 46.3569 101.325 42.5701 99.9297C44.7089 98.6528 47.2973 95.8532 45.0181 93.4782C43.3733 91.7671 40.2878 91.4192 38.3529 92.7982C36.3033 94.2571 35.4172 98.49 37.5688 100.14C37.1926 100.217 36.8261 100.281 36.4786 100.338C33.2273 100.871 29.8484 100.578 26.6417 99.9009C20.4068 98.5826 14.5513 95.8787 8.90287 92.9961C8.0996 92.5843 6.75444 94.3401 7.7139 94.8285C16.9388 99.5434 29.5169 105.363 39.9435 101.213C44.5177 103.007 49.5445 104.581 54.3864 104.76C61.0453 105.005 67.7009 102.914 74.0379 101.143C81.0725 99.2023 88.2198 97.6981 95.4393 96.6385C103.23 95.4701 111.007 94.139 118.913 94.5795C126.744 95.0169 134.382 97.178 140.939 101.561C141.758 102.094 143.231 100.428 142.459 99.9137ZM39.5514 98.7358C38.1999 98.1771 37.8397 96.115 38.423 94.8125C38.8247 93.9155 39.8574 93.7815 40.7468 93.8549C42.2896 93.9921 45.1903 95.5531 43.5742 97.3663C42.7782 98.1907 41.8076 98.8256 40.734 99.2242C40.3388 99.0582 39.9403 98.8986 39.5514 98.7358Z" fill="#424242"/>
<path d="M161.665 44.6913L161.553 45.1573C161.616 45.0093 161.654 44.8518 161.665 44.6913Z" fill="#5A5A5A"/>
<path d="M163.134 50.4469V50.3319C163.13 50.3701 163.13 50.4087 163.134 50.4469Z" fill="#5A5A5A"/>
<path d="M155.541 61.6899H155.557L155.634 61.6197L155.541 61.6899Z" fill="#5A5A5A"/>
<path d="M161.365 38.7984C161.202 40.3946 161.014 41.6714 160.829 42.8015C160.644 43.9315 160.453 44.9499 160.268 45.9554C159.889 47.9665 159.538 50.0096 158.783 53.1986C158.588 53.9552 158.375 54.7181 158.145 55.4842C157.916 56.2504 157.658 57.0516 157.438 57.8178C157.229 58.5669 156.975 59.3025 156.676 60.0204C156.439 60.6544 156.055 61.2224 155.554 61.6772C155.283 61.9364 154.973 62.1518 154.636 62.3156C154.211 62.5242 153.769 62.6982 153.316 62.8359C152.36 63.1392 151.263 63.417 150.425 63.8575C150.19 63.9376 149.959 64.0303 149.733 64.1352C149.585 64.2329 149.442 64.3395 149.306 64.4544C149.156 64.5598 149.019 64.6875 148.879 64.8088C148.605 65.0578 148.36 65.3259 148.136 65.5717V65.527C147.635 66.1996 147.208 66.9241 146.861 67.6882V67.6435C146.699 67.985 146.543 68.3298 146.415 68.6777L146.463 68.4894C146.179 69.2427 145.921 70.0057 145.676 70.7463C145.43 71.4869 145.169 72.202 144.958 72.8947L145.073 72.8053C144.698 73.9456 144.406 75.1117 144.2 76.2944C144.015 77.284 143.859 78.2417 143.562 79.5824V79.5409C143.408 81.0188 143.152 82.4843 142.797 83.9271L142.287 85.986C142.065 86.8391 142.016 87.7281 142.144 88.6005C142.061 88.1025 142.125 88.8207 142.106 88.7856C142.15 89.0166 142.212 89.2439 142.29 89.4656C142.359 89.6767 142.44 89.8835 142.533 90.0849C142.697 90.4557 142.905 90.8061 143.151 91.1287C143.6 91.7001 144.012 91.9842 144.079 91.9268C144.566 92.3513 144.799 92.479 144.888 92.5652C144.978 92.6514 144.949 92.6642 145.009 92.7344C145.025 92.6929 145.277 92.8238 145.647 92.9611C146.081 93.1342 146.526 93.2792 146.979 93.3952C146.836 93.3633 146.686 93.3378 146.543 93.2995C147.419 93.5295 148.306 93.7139 149.201 93.8517L148.713 93.6155C150.097 93.9347 149.032 93.8517 150.374 94.072V93.957C152.287 94.3465 153.396 94.736 155.248 95.1765C156.204 95.3616 157.186 95.5691 158.193 95.7255C159.245 95.9235 160.322 95.9473 161.381 95.7958C161.657 95.7433 161.93 95.6718 162.197 95.5819C162.463 95.4861 162.722 95.3708 162.971 95.2371C163.466 94.9748 163.917 94.6366 164.307 94.2348C164.693 93.8488 165.034 93.4204 165.324 92.9579C165.609 92.5113 165.861 92.0439 166.076 91.5597C166.49 90.6174 166.826 89.6426 167.08 88.6452C167.338 87.6875 167.584 86.7107 167.791 85.7466C168.218 83.8313 168.534 81.9159 168.786 80.0836L168.91 79.7644C168.983 79.7005 168.98 79.1834 168.98 78.6535C168.949 78.2465 168.965 77.8373 169.028 77.434C169.028 77.1467 169.028 76.8562 169.028 76.5689C169.028 76.2816 169.108 75.8188 169.117 76.2497C169.14 75.7848 169.133 75.3189 169.098 74.8547L169.178 73.9992C169.196 72.4902 169.119 70.9816 168.948 69.4822C168.867 68.6971 168.692 67.9245 168.429 67.1806C168.129 66.3571 167.637 65.6173 166.994 65.0226C166.258 64.2533 165.177 63.6085 164.285 62.7881C163.841 62.4062 163.494 61.925 163.271 61.3835C163.074 60.783 162.999 60.1491 163.051 59.5192C163.083 58.8456 163.175 58.1178 163.246 57.4123C163.316 56.7069 163.392 56.0046 163.465 55.331L163.87 51.6663C164.486 45.6905 166.13 38.8974 167.122 32.8321C167.176 32.6003 167.211 32.3643 167.227 32.1267C167.603 30.2911 167.989 28.4588 168.4 26.6296C168.4 26.6296 168.773 24.9696 169.257 22.7989L169.649 21.0879C169.815 20.4607 169.921 19.8195 169.968 19.1726C169.989 18.8118 169.948 18.4502 169.847 18.1032L169.758 17.835C169.723 17.7488 169.675 17.6658 169.633 17.5828C169.545 17.4208 169.438 17.2697 169.315 17.1327C168.875 16.6341 168.287 16.2896 167.638 16.1495C167.103 16.0183 166.544 16.0183 166.009 16.1495C165.599 16.2507 165.22 16.4513 164.906 16.7337C164.726 16.8967 164.581 17.0943 164.479 17.3147C164.425 17.4392 164.45 17.4711 164.527 17.4168C164.592 17.3692 164.655 17.3181 164.715 17.2636C164.756 17.2285 164.798 17.1806 164.852 17.1391L165.047 17.0051C165.444 16.7502 165.904 16.6099 166.376 16.5996C166.708 16.5853 167.04 16.6286 167.358 16.7273C167.741 16.8345 168.096 17.0253 168.397 17.286C168.733 17.5752 168.958 17.9724 169.034 18.4096C169.094 18.955 169.037 19.5069 168.865 20.0281V19.8908C168.23 22.1856 167.718 24.5129 167.332 26.8627C167.09 27.1532 166.784 29.3366 166.583 30.0325V29.9623C166.331 31.833 165.703 33.7419 165.486 35.5487C165.461 35.3716 165.473 35.191 165.521 35.0188C165.292 36.3212 165.005 38.1089 164.884 38.1887C164.342 41.3011 163.609 45.6458 163.465 47.6728V47.5324C163.399 48.688 163.261 49.0104 163.147 50.2936C163.136 50.3428 163.121 50.3909 163.102 50.4373C163.029 51.6951 162.627 54.0701 162.547 55.0852L162.474 55.1427L162.19 57.6262L162.315 56.7005C162.385 56.8729 162.315 57.3389 162.187 57.9774C162.009 58.7902 161.954 59.6253 162.025 60.4546C162.048 60.9232 162.165 61.3823 162.369 61.8049C162.581 62.2231 162.862 62.602 163.201 62.9253C163.87 63.5638 164.642 63.982 165.327 64.5215C166.047 64.946 164.654 64.2022 165.694 64.8822C165.668 64.9811 165.196 64.5853 165.407 64.8375C165.852 65.1333 166.255 65.4876 166.605 65.8909C166.981 66.3299 167.288 66.8241 167.514 67.3562L167.466 67.436C167.796 68.2638 167.969 69.1462 167.976 70.0376C168.014 70.8804 168.03 71.6337 168.116 72.2945C168.169 72.8622 168.158 73.4342 168.081 73.9992C168.016 74.5854 168.007 75.1765 168.052 75.7645C168.014 76.039 167.963 76.3104 167.919 76.5817C167.864 77.4787 168.008 77.2201 167.896 78.2289C167.842 78.1619 167.734 79.4835 167.727 78.8929C167.581 80.0166 167.479 81.1562 167.31 82.382C167.142 83.723 166.869 85.0487 166.494 86.3468C166.465 87.0044 166.016 88.444 165.961 88.9197C165.926 88.9516 165.706 89.6603 165.509 90.1391C165.454 90.2974 165.385 90.4502 165.302 90.5956C165.273 90.6243 165.302 90.5031 165.429 90.1104C165.461 89.9889 165.508 89.8719 165.569 89.7624V89.555C165.251 90.3147 164.97 91.001 164.651 91.6523C164.349 92.3209 163.922 92.9264 163.395 93.4367C163.478 93.3601 163.571 93.2835 163.654 93.2005L163.858 92.9834C163.969 92.8717 164.011 92.8398 163.896 93.009C163.591 93.3779 163.235 93.7005 162.838 93.9666C162.909 93.8982 162.976 93.8257 163.038 93.7495C162.493 94.1582 161.856 94.4267 161.183 94.5317C161.279 94.5317 161.378 94.5317 161.476 94.5317C161.073 94.6028 160.661 94.6211 160.252 94.5859L158.866 94.5125C158.298 94.5125 159.895 94.7424 158.732 94.621C157.999 94.4966 157.055 94.2699 156.07 94.056C155.085 93.8421 154.043 93.6123 153.084 93.4176C153.246 93.5357 152.73 93.4175 152.194 93.3505L152.146 93.2644C150.087 92.977 151.429 92.9643 149.392 92.6578L149.58 92.6418L149.013 92.6897C148.53 92.6641 148.052 92.5717 147.595 92.4152C147.47 92.3705 147.34 92.3258 147.123 92.2652C146.906 92.2045 146.606 92.1375 146.144 92.0034C146.498 92.1375 146.571 92.2045 146.441 92.1981C146.133 92.1516 145.838 92.043 145.574 91.8789L145.813 91.9268C145.498 91.7975 145.202 91.6268 144.933 91.4192C145.067 91.4926 145.115 91.4958 145.054 91.4192C144.993 91.3426 144.821 91.2149 144.563 90.9691C144.694 91.0649 144.84 91.1383 144.978 91.2213C144.594 90.9761 144.252 90.6699 143.967 90.3147C143.822 90.0547 143.693 89.786 143.581 89.5103C143.521 89.3634 143.463 89.2102 143.416 89.0538C143.364 88.9103 143.323 88.763 143.294 88.6132C143.201 88.1703 143.209 87.7121 143.317 87.2725C143.317 87.2725 143.336 87.1257 143.374 86.8958C143.412 86.666 143.483 86.3499 143.562 86.0084C143.712 85.42 143.818 84.8214 143.881 84.2175C143.843 84.7442 144.158 83.3429 144.155 83.7579C144.278 82.6131 144.464 81.4759 144.713 80.3517L144.697 80.5018C145.271 77.6287 145.417 75.5762 146.243 73.1341C146.119 73.2203 146.581 71.9434 146.374 72.2275C146.708 71.0848 147.121 69.9669 147.61 68.8821C148.022 67.9755 148.388 67.3179 148.5 66.8358C148.705 66.4926 148.958 66.1807 149.252 65.9101C149.453 65.7313 149.619 65.6259 149.842 65.4568C149.775 65.5142 149.717 65.5781 149.654 65.6355C149.986 65.3444 150.359 65.1026 150.76 64.9173C151.071 64.7671 151.39 64.6349 151.716 64.5215C152.331 64.3108 152.905 64.1607 153.743 63.883C154.074 63.7566 154.394 63.6029 154.7 63.4233C154.999 63.235 155.398 63.0594 156.07 62.5837C155.879 62.7721 155.911 62.7593 156.07 62.654L156.354 62.4337C156.473 62.333 156.587 62.2265 156.695 62.1145C156.558 62.2677 156.459 62.3667 156.485 62.3603C156.66 62.2413 156.816 62.096 156.947 61.9294C157.004 61.824 157.097 61.6676 157.183 61.5239C157.183 61.5239 157.208 61.4952 157.205 61.5239C157.338 61.313 157.452 61.0909 157.546 60.86C157.471 60.9592 157.407 61.0662 157.355 61.1792C157.355 61.1537 157.329 61.1792 157.237 61.3005C157.572 60.7822 157.843 60.2247 158.043 59.6405C158.149 59.2744 158.29 58.9195 158.464 58.5807C158.678 57.8816 158.844 57.2336 159.022 56.6366C159.201 56.0397 159.366 55.4332 159.507 54.8586C159.793 53.7094 160.023 52.624 160.262 51.4301C160.374 51.1779 160.303 51.7493 160.166 52.4261C160.287 51.8685 160.404 51.3099 160.517 50.7501C160.593 50.7789 160.358 51.7078 160.252 52.2377C160.839 50.2745 160.979 48.0878 161.48 45.7703V45.2723L161.512 45.135C161.498 44.8404 161.515 44.545 161.563 44.254C161.684 43.9347 161.719 44.3018 161.881 43.1367C162.097 41.8588 162.235 40.5688 162.292 39.2741C162.213 39.9285 162.197 39.7146 162.203 39.4273C162.261 38.8399 162.366 38.5111 162.375 38.0546L162.471 38.0067C162.366 38.227 162.516 36.4617 162.49 36.2415C162.586 35.9222 162.49 37.1576 162.512 37.3109C162.694 34.955 162.605 36.1329 162.783 33.777C162.812 32.5193 162.678 33.9973 162.643 33.394C162.713 32.2831 162.729 31.1977 162.904 29.9336L162.787 30.3294C162.853 28.75 163.041 27.178 163.348 25.6273C163.532 23.7119 163.778 22.2052 163.969 21.0624C164.081 20.4973 164.157 20.0121 164.243 19.6099C164.329 19.2077 164.393 18.8821 164.441 18.6235C164.632 17.5892 164.53 17.6403 164.285 18.1511C163.95 18.9396 163.667 19.7489 163.437 20.5739C163.3 21.0145 163.195 21.4295 163.118 21.7295L163.061 22.2595C162.962 22.6393 162.885 23.0064 162.812 23.3672C162.739 23.7279 162.665 24.0758 162.605 24.4206C162.496 25.1069 162.375 25.7613 162.286 26.3966C162.114 27.6735 162.009 28.877 161.916 30.1123C161.747 32.5704 161.677 35.188 161.365 38.7984Z" fill="#5A5A5A"/>
<path d="M166.165 20.6953H166.127C166.127 20.6953 166.156 20.708 166.165 20.6953Z" fill="#5A5A5A"/>
<path d="M165.251 20.0856C165.094 20.4048 164.909 20.4431 164.897 20.8198C164.861 20.9962 164.853 21.1773 164.874 21.3561C164.992 21.4423 164.874 21.5796 164.973 21.6753L164.903 21.72C164.925 21.7396 164.94 21.7655 164.946 21.7942C164.952 21.8228 164.95 21.8527 164.938 21.8796H164.919C164.983 21.9467 164.967 22.0328 164.999 22.0616H164.973C164.981 22.0902 164.992 22.118 165.005 22.1446H164.973C165.051 22.2419 165.101 22.359 165.117 22.4829L165.187 22.4287C165.209 22.6968 165.378 22.6457 165.413 22.8883C165.56 22.8883 165.595 22.9937 165.649 23.0927C165.703 23.1916 165.767 23.2938 165.907 23.2459C165.872 23.2459 165.907 23.297 165.907 23.3161C166.012 23.3512 166.13 23.3672 166.159 23.2012C166.229 23.2235 166.21 23.2682 166.21 23.3385C166.21 23.2618 166.283 23.2523 166.344 23.2491L166.315 23.2746C166.37 23.2809 166.426 23.2809 166.481 23.2746L166.446 23.1373C166.529 23.1725 166.471 23.3065 166.554 23.2682V23.1533C166.663 23.1533 166.761 23.3193 166.902 23.348C167.031 23.2927 167.147 23.2093 167.241 23.1039C167.334 22.9985 167.404 22.8737 167.444 22.7383C167.521 22.4678 167.628 22.2067 167.762 21.9594H167.852C167.976 21.9786 167.692 21.819 167.807 21.8317L167.759 21.7775C167.781 21.7775 167.81 21.7487 167.836 21.7775C167.836 21.7391 167.836 21.7328 167.794 21.6976L167.88 21.6721C167.97 21.5253 167.839 21.3529 167.88 21.2092C168.062 21.0273 167.931 20.6219 167.823 20.408C167.718 20.2579 167.775 20.0887 167.807 19.8876C167.823 19.7882 167.823 19.687 167.807 19.5876C167.786 19.4854 167.727 19.3952 167.641 19.3354C167.641 19.3162 167.6 19.3067 167.587 19.3131C167.534 19.2001 167.468 19.0931 167.393 18.9938C167.338 18.9223 167.271 18.8607 167.195 18.8119C167.13 18.7607 167.057 18.7207 166.978 18.6937C166.905 18.6626 166.825 18.6474 166.745 18.649C166.596 18.649 166.494 18.7193 166.475 18.8629C166.462 18.954 166.462 19.0464 166.475 19.1375L166.497 19.3163C166.502 19.3875 166.502 19.4589 166.497 19.5301L166.481 19.5525C166.506 19.6546 166.516 19.677 166.659 19.6387C166.532 19.7536 166.691 19.6993 166.659 19.7568C166.803 19.7376 166.621 19.9004 166.745 19.9036C166.73 19.9036 166.688 19.9228 166.679 19.9036C166.669 19.8845 166.774 19.9706 166.679 20.0057C166.733 20.0919 166.72 20.2452 166.883 20.2994H166.857C166.969 20.3282 166.879 20.3537 166.94 20.3984H166.914C167.023 20.4399 166.94 20.5421 166.988 20.5804H166.921V20.6793V20.641C167.103 20.641 166.806 20.7176 166.921 20.7943C166.892 20.8581 167.287 20.9603 167.195 21.0337C167.275 21.0784 167.061 20.989 167.118 21.0337C167.026 21.0337 167.064 21.0017 166.985 21.0113C167.026 21.0656 166.879 21.0848 166.937 21.155H166.863C166.988 21.2571 166.745 21.2954 166.863 21.3688C166.911 21.4678 166.64 21.388 166.765 21.4997H166.659C166.637 21.5317 166.774 21.5508 166.72 21.5827C166.666 21.6147 166.659 21.621 166.605 21.5827C166.545 21.6306 166.577 21.6402 166.605 21.6625C166.634 21.6849 166.637 21.7168 166.557 21.6849C166.663 21.7647 166.596 21.7391 166.669 21.8094C166.624 21.7743 166.647 21.8445 166.561 21.7328L166.5 21.6753C166.388 21.5732 166.554 21.7551 166.526 21.7615C166.497 21.7679 166.545 21.7615 166.58 21.819H166.561L166.522 21.7519C166.51 21.7464 166.498 21.7388 166.487 21.7296L166.535 21.8126C166.503 21.7838 166.43 21.6242 166.484 21.7647C166.51 21.8445 166.548 21.8796 166.548 21.9211C166.505 21.8693 166.466 21.8138 166.433 21.7551C166.459 21.8764 166.452 21.8732 166.433 21.8988V21.7934C166.433 21.9467 166.404 21.5572 166.404 21.6785V21.8285C166.379 22.0424 166.404 21.6051 166.366 21.8924C166.366 21.8924 166.366 22.1318 166.337 22.0775L166.353 21.9754C166.353 21.9945 166.334 22.036 166.331 22.0137C166.328 21.9913 166.353 21.8669 166.331 21.8796L166.357 21.7583C166.344 21.8177 166.328 21.8763 166.309 21.9339C166.309 21.8221 166.261 21.9339 166.309 21.7998C166.309 21.7998 166.309 21.7264 166.251 21.8445C166.296 21.7711 166.302 21.7328 166.353 21.6466C166.306 21.7328 166.248 21.7774 166.306 21.6913C166.331 21.6434 166.306 21.6689 166.283 21.6913C166.261 21.7136 166.232 21.6913 166.283 21.6657C166.207 21.7168 166.245 21.6657 166.146 21.7391C166.089 21.7391 166.146 21.6945 166.146 21.6753C166.146 21.6562 166.169 21.6498 166 21.6753C165.977 21.6498 166.076 21.6338 166.092 21.6242H166.111C166.111 21.6242 166.086 21.5764 166.082 21.5508C166.079 21.5232 166.079 21.4954 166.082 21.4678C166.051 21.4359 165.894 21.4231 165.936 21.3624C165.996 21.3848 165.987 21.3625 165.987 21.3369C165.987 21.3114 166.019 21.3593 166.063 21.3369C166.048 21.3338 166.034 21.3272 166.022 21.3178C166.003 21.2795 165.984 21.2827 165.974 21.3178C165.962 21.3131 165.948 21.3131 165.936 21.3178C166.019 21.2827 165.936 21.2028 166.047 21.2124C166.047 21.0975 165.939 20.9953 165.923 20.8932C165.946 20.8923 165.968 20.8978 165.988 20.9091C166.008 20.9204 166.024 20.937 166.035 20.9571V20.8868C166.111 20.9028 166.07 20.9347 166.082 20.9571C166.223 20.9092 165.993 20.7655 166.133 20.7017L166.079 20.6666C166.048 20.6552 166.021 20.6339 166.003 20.6059C166.076 20.6059 166.156 20.6538 166.165 20.6059C166.242 20.6059 166.165 20.4974 166.165 20.4367C166.146 20.4559 166.111 20.4367 166.095 20.4176C166.079 20.3984 166.169 20.4176 166.149 20.3761L166.235 20.4112C166.149 20.3856 166.172 20.3154 166.143 20.2931C166.21 20.2931 166.181 20.3505 166.226 20.3761L166.274 20.242C166.232 20.1654 166.188 20.2133 166.127 20.1558C166.127 20.1047 166.092 20.0313 166.169 20.0121L166.089 19.9866C166.089 19.8749 166.111 19.8302 166.216 19.8206C166.183 19.6437 166.126 19.4719 166.047 19.3099C166.002 19.2219 165.924 19.1546 165.831 19.1215C165.726 19.1027 165.619 19.1256 165.531 19.1854C165.225 19.4184 165.337 19.7057 165.251 20.0856Z" fill="#5A5A5A"/>
<path d="M159.475 89.9125H159.522C159.516 89.9064 159.507 89.9031 159.499 89.9031C159.49 89.9031 159.481 89.9064 159.475 89.9125Z" fill="#5A5A5A"/>
<path d="M160.074 90.8925C160.393 90.5733 160.571 90.5733 160.797 90.1838C160.927 90.0023 161.044 89.8125 161.148 89.6156C161.107 89.4624 161.307 89.389 161.292 89.2325H161.374C161.374 89.1783 161.374 89.1272 161.435 89.1144C161.435 89.0314 161.492 88.9963 161.489 88.9548L161.524 88.8877L161.54 88.9165C161.554 88.8077 161.609 88.7083 161.693 88.6387L161.617 88.5973C161.811 88.4824 161.709 88.3195 161.91 88.2302C161.859 87.9109 162.248 88.0067 162.203 87.6875C162.203 87.7258 162.248 87.6875 162.264 87.713C162.305 87.6077 162.359 87.5023 162.219 87.3938C162.267 87.33 162.302 87.3683 162.359 87.3938C162.335 87.3728 162.32 87.3433 162.316 87.3113C162.313 87.2794 162.321 87.2473 162.34 87.2214V87.2597L162.417 87.0937L162.28 87.049C162.366 86.9916 162.436 87.1225 162.458 87.0267L162.359 86.9628C162.452 86.8639 162.64 86.8926 162.783 86.832C163.102 86.4042 163.159 85.7594 163.587 85.437L163.673 85.4593C163.787 85.5167 163.58 85.2454 163.673 85.2901L163.654 85.2103C163.679 85.2103 163.717 85.1911 163.73 85.2295C163.759 85.1848 163.73 85.1752 163.73 85.1209H163.829C163.988 84.9677 163.947 84.7379 164.081 84.5559C164.352 84.4027 164.463 83.8887 164.521 83.5982C164.546 83.1513 165.209 82.9598 165.203 82.4873C165.225 82.4873 165.203 82.433 165.203 82.4267L165.388 82.0915C165.503 81.8657 165.578 81.6216 165.611 81.37C165.627 81.0508 165.442 80.8593 164.674 81.2615L164.651 81.2424C164.505 81.3988 164.434 81.5073 164.498 81.6925C164.336 81.6382 164.409 81.8361 164.339 81.8552C164.403 82.0244 164.128 82.0372 164.183 82.1968C164.183 82.1968 164.132 82.1649 164.141 82.1393C164.122 82.2255 164.1 82.35 164.007 82.3117C163.937 82.5065 163.765 82.7459 163.842 82.9502L163.822 82.9311C163.88 83.0492 163.791 83.0236 163.797 83.1258H163.771C163.826 83.2503 163.673 83.3492 163.679 83.445L163.618 83.4162L163.555 83.5727L163.596 83.5248C163.746 83.6302 163.437 83.5791 163.481 83.7419C163.408 83.828 163.701 84.1249 163.567 84.1824C163.612 84.275 163.469 84.0739 163.488 84.1824C163.402 84.1377 163.453 84.1185 163.376 84.0994C163.376 84.1952 163.23 84.1696 163.236 84.2909L163.169 84.259C163.22 84.441 162.962 84.425 163.029 84.5782C163.029 84.7251 162.793 84.5463 162.847 84.741H162.736C162.691 84.7825 162.818 84.84 162.736 84.8719C162.681 84.8368 162.649 84.9198 162.618 84.8719C162.455 84.9517 162.579 85.1911 162.334 85.2933C162.417 85.3922 162.305 85.4433 162.366 85.5168C162.318 85.4944 162.254 85.686 162.216 85.5168C162.216 85.5168 162.216 85.488 162.238 85.5008L162.184 85.4529C162.009 85.4784 162.139 85.6668 162.063 85.7498C162.101 85.7498 162.12 85.6955 162.146 85.7498L162.082 85.8328L162.104 85.7849L161.993 85.8998L162.069 85.919C161.996 85.9637 161.872 85.919 161.919 86.0498C161.948 86.1137 162.044 86.0499 162.021 86.1233C161.9 86.1901 161.788 86.2715 161.687 86.3659C161.763 86.401 161.744 86.4297 161.738 86.468L161.674 86.4329C161.674 86.6053 161.511 86.3882 161.505 86.5447L161.467 86.5095L161.578 86.6213C161.633 86.8064 161.413 86.5957 161.505 86.8192C161.524 86.7649 161.655 86.8862 161.594 86.9245L161.543 86.8735C161.543 86.9118 161.543 86.9373 161.527 86.9501C161.508 86.9118 161.448 86.883 161.429 86.9501L161.374 86.8735L161.425 87.0299C161.317 87.0522 161.327 87.2118 161.225 87.1831C161.225 87.1831 161.091 87.298 161.161 87.3906C161.123 87.3236 161.049 87.3906 160.998 87.3204C161.037 87.4002 161.017 87.5438 160.919 87.5406C160.74 87.6524 160.826 87.8758 160.644 87.962C160.718 88.0035 160.644 88.0514 160.731 88.0961C160.731 88.3068 160.361 88.2365 160.597 88.4855C160.565 88.5621 160.479 88.5175 160.437 88.5398V88.5143C160.397 88.6115 160.342 88.7019 160.275 88.7824C160.275 88.8463 160.393 88.9484 160.3 89.0059C160.268 88.9452 160.252 88.9835 160.23 89.0059C160.23 88.9803 160.23 88.9612 160.16 88.9739C160.162 88.9898 160.162 89.0059 160.16 89.0218C160.141 89.0857 160.16 89.0889 160.185 89.0697C160.198 89.0731 160.211 89.0731 160.224 89.0697C160.118 89.0697 160.118 89.2197 160.026 89.1623C159.965 89.3246 159.915 89.491 159.876 89.6603C159.853 89.6498 159.833 89.6311 159.822 89.6077C159.811 89.5843 159.809 89.5576 159.816 89.5326L159.765 89.6348C159.701 89.5837 159.765 89.5549 159.765 89.5166C159.583 89.5453 159.698 89.8135 159.51 89.8678L159.538 89.9316C159.551 89.9448 159.56 89.9604 159.566 89.9774C159.572 89.9945 159.575 90.0126 159.573 90.0306C159.503 90.0082 159.446 89.9316 159.404 89.9954C159.312 89.9954 159.322 90.1551 159.299 90.2413C159.338 90.2157 159.36 90.2412 159.366 90.2796C159.373 90.3179 159.274 90.2796 159.28 90.3274L159.204 90.2732C159.283 90.3179 159.204 90.4136 159.236 90.4488C159.169 90.4232 159.236 90.3626 159.191 90.3243L159.057 90.5158C159.057 90.6243 159.134 90.5573 159.172 90.6403C159.14 90.7105 159.146 90.8095 159.051 90.8382L159.13 90.8702C159.092 91.0202 159.032 91.0776 158.907 91.0968C158.837 91.7129 158.977 91.9044 159.137 91.9395C159.257 91.9509 159.377 91.9204 159.478 91.8533C159.873 91.6267 159.819 91.3043 160.074 90.8925Z" fill="#5A5A5A"/>
<path d="M161.467 82.647H161.508C161.502 82.643 161.495 82.6409 161.488 82.6409C161.48 82.6409 161.473 82.643 161.467 82.647Z" fill="#5A5A5A"/>
<path d="M162.21 83.445C162.407 83.2216 162.582 83.2343 162.691 82.9374C162.77 82.809 162.834 82.6719 162.882 82.5289C162.812 82.4076 162.975 82.3629 162.924 82.2415H163C163 82.2 162.978 82.1585 163.026 82.1522H163.041C163.016 82.0883 163.067 82.066 163.041 82.034L163.057 81.9862L163.08 82.0085C163.072 81.9713 163.075 81.9327 163.087 81.8968C163.099 81.8609 163.121 81.829 163.15 81.8042L163.073 81.7691C163.223 81.6893 163.073 81.5616 163.249 81.5009H163.268C163.14 81.2551 163.516 81.3413 163.398 81.0987C163.414 81.1274 163.443 81.0987 163.462 81.1211C163.471 81.0983 163.474 81.074 163.473 81.0497C163.472 81.0254 163.466 81.0016 163.455 80.9798C163.444 80.958 163.429 80.9386 163.411 80.9228C163.392 80.907 163.371 80.8952 163.347 80.888C163.373 80.8402 163.414 80.888 163.475 80.888C163.45 80.878 163.43 80.8589 163.419 80.8346C163.408 80.8103 163.406 80.7826 163.414 80.7571L163.434 80.7891L163.462 80.6646L163.325 80.6263C163.389 80.5848 163.488 80.6837 163.481 80.6263L163.376 80.5784C163.437 80.5081 163.615 80.5337 163.73 80.489C163.928 80.1698 163.806 79.6973 164.122 79.4611H164.208C164.329 79.5026 164.065 79.3047 164.179 79.3366L164.141 79.2791C164.167 79.2791 164.195 79.2791 164.215 79.2791C164.234 79.2472 164.214 79.2376 164.189 79.1993H164.275C164.383 79.0876 164.275 78.9184 164.364 78.7875C164.578 78.6694 164.549 78.2927 164.527 78.0789C164.431 77.7596 165.005 77.5969 164.874 77.2585C164.893 77.2585 164.874 77.2202 164.846 77.217L164.932 76.9712C164.981 76.8009 164.988 76.621 164.951 76.4476C164.881 76.2306 164.651 76.1124 164.033 76.4476H164.007C163.912 76.5657 163.877 76.6424 163.985 76.7669C163.816 76.7349 163.94 76.869 163.877 76.885C163.982 76.9999 163.73 77.019 163.822 77.1276C163.822 77.1276 163.765 77.1084 163.765 77.0893C163.765 77.1499 163.784 77.2361 163.689 77.2138C163.689 77.3542 163.577 77.533 163.689 77.6575H163.663C163.749 77.7373 163.663 77.7245 163.692 77.7947H163.698C163.781 77.8809 163.666 77.9544 163.698 78.0118L163.634 77.9927L163.615 78.1044L163.641 78.0693C163.806 78.1395 163.507 78.1108 163.593 78.2257C163.545 78.2863 163.912 78.4938 163.787 78.5449C163.854 78.6088 163.669 78.4683 163.711 78.5449C163.622 78.5162 163.663 78.5002 163.587 78.4875C163.612 78.5545 163.469 78.5417 163.507 78.6247L163.437 78.6024C163.532 78.7333 163.287 78.7237 163.386 78.8226C163.411 78.9312 163.159 78.8035 163.261 78.9408H163.156C163.128 78.9727 163.258 79.011 163.198 79.0365C163.14 79.011 163.134 79.0685 163.086 79.0365C162.959 79.094 163.14 79.276 162.936 79.3366C163.038 79.41 162.936 79.442 163.022 79.4994C162.971 79.4803 162.965 79.6175 162.885 79.4994C162.885 79.4994 162.885 79.4803 162.904 79.4994L162.841 79.4643C162.688 79.4643 162.857 79.6175 162.809 79.6782C162.837 79.6782 162.844 79.6399 162.882 79.6782L162.847 79.7357L162.796 79.6973L162.723 79.7803H162.796C162.742 79.8122 162.618 79.7803 162.691 79.8697C162.735 79.9176 162.802 79.8697 162.806 79.9272C162.716 79.9709 162.633 80.0279 162.56 80.0964C162.643 80.1251 162.63 80.1443 162.633 80.173L162.567 80.1442C162.621 80.2687 162.407 80.1059 162.442 80.2208L162.398 80.1921L162.528 80.2815C162.624 80.4156 162.372 80.256 162.528 80.4219C162.528 80.3836 162.681 80.4762 162.633 80.505L162.576 80.4634C162.576 80.4922 162.602 80.5114 162.576 80.5209C162.551 80.5305 162.484 80.4699 162.48 80.5209L162.41 80.4603L162.5 80.5784C162.407 80.5784 162.455 80.7093 162.356 80.6837C162.356 80.6837 162.261 80.7635 162.356 80.837C162.305 80.7859 162.254 80.837 162.19 80.7763C162.245 80.837 162.264 80.9455 162.174 80.9359C162.041 81.0094 162.174 81.1817 162.031 81.236C162.111 81.2743 162.031 81.303 162.143 81.3413C162.184 81.5009 161.843 81.4275 162.12 81.6286C162.12 81.6829 162.018 81.6286 161.99 81.6605V81.6414C161.979 81.7108 161.952 81.7766 161.91 81.8329C161.91 81.8808 162.053 81.967 161.986 82.0053C161.942 81.9542 161.939 81.9862 161.926 82.0053C161.913 82.0245 161.91 81.9702 161.856 81.9766C161.866 81.9878 161.875 82.0007 161.881 82.0149C161.881 82.0628 161.897 82.066 161.916 82.0532C161.928 82.0561 161.94 82.0561 161.951 82.0532C161.862 82.0532 161.894 82.1617 161.798 82.1107C161.757 82.232 161.798 82.3692 161.798 82.481C161.776 82.4739 161.756 82.4605 161.74 82.4424C161.725 82.4243 161.715 82.4023 161.712 82.3788L161.69 82.4522C161.623 82.4107 161.69 82.3916 161.69 82.366C161.534 82.366 161.69 82.5895 161.546 82.615L161.588 82.6661C161.615 82.6862 161.635 82.7158 161.642 82.7491C161.575 82.7236 161.508 82.6629 161.483 82.7076C161.406 82.7076 161.451 82.8257 161.451 82.8896C161.476 82.8704 161.505 82.8896 161.518 82.9247C161.531 82.9598 161.438 82.9247 161.454 82.9566L161.374 82.9055C161.451 82.947 161.416 83.0141 161.441 83.0428C161.374 83.0173 161.413 82.9789 161.374 82.9438L161.298 83.0811C161.327 83.1673 161.378 83.1226 161.432 83.1896C161.432 83.2407 161.432 83.3173 161.368 83.3333L161.448 83.3652C161.448 83.4801 161.406 83.5184 161.301 83.5216C161.378 84.0037 161.54 84.1601 161.69 84.2143C161.785 84.237 161.886 84.2221 161.97 84.1728C162.194 84.026 162.079 83.7642 162.21 83.445Z" fill="#5A5A5A"/>
</svg>
